mtllib barrel.mtl
usemtl mat0
v 0.180021 1.540612 -0.809493
vt 0.546862 0.908074
vn 0 0.279035 -0.960281
v -0.199336 0.975611 -0.881577
vt 0.565648 0.880095
vn 0 0 -1
v 0.199336 0.975611 -0.881577
vt 0.545905 0.880095
vn 0 0 -1
v -0.180021 1.540612 -0.809493
vt 0.564691 0.908074
vn 0 0.279035 -0.960281
v -0.611032 1.540612 -0.560649
vt 0.586036 0.908074
vn -0.831629 0.279041 -0.480135
v -0.863137 0.975611 -0.268158
vt 0.59852 0.880095
vn -0.866032 0 -0.499989
v -0.663801 0.975611 -0.613418
vt 0.588649 0.880095
vn -0.866032 0 -0.499989
v -0.791053 1.540612 -0.248843
vt 0.594951 0.908074
vn -0.831629 0.279041 -0.480135
v -0.809494 1.540612 -0.18002
vt 0.595864 0.908074
vn -0.960281 0.279035 0
v -0.881578 0.975611 0.199336
vt 0.599433 0.880095
vn -1 0 0
v -0.881578 0.975611 -0.199335
vt 0.599433 0.880095
vn -1 0 0
v -0.809494 1.540612 0.180021
vt 0.595864 0.908074
vn -0.960281 0.279035 0
v -0.791052 1.540612 0.248845
vt 0.594951 0.908074
vn -0.831629 0.279041 0.480135
v -0.663801 0.975611 0.613419
vt 0.588649 0.880095
vn -0.866032 0 0.499989
v -0.863137 0.975611 0.26816
vt 0.59852 0.880095
vn -0.866032 0 0.499989
v -0.611032 1.540612 0.56065
vt 0.586036 0.908074
vn -0.831629 0.279041 0.480135
v -0.56065 1.540612 0.611032
vt 0.583541 0.908074
vn -0.480135 0.279041 0.831629
v -0.268159 0.975611 0.863137
vt 0.569056 0.880095
vn -0.499989 0 0.866032
v -0.613419 0.975611 0.663801
vt 0.586154 0.880095
vn -0.499989 0 0.866032
v -0.248844 1.540612 0.791053
vt 0.5681 0.908074
vn -0.480135 0.279041 0.831629
v -0.180021 1.540612 0.809494
vt 0.564691 0.908074
vn 0 0.279035 0.960281
v 0.199336 0.975611 0.881578
vt 0.545905 0.880095
vn 0 0 1
v -0.199336 0.975611 0.881578
vt 0.565648 0.880095
vn 0 0 1
v 0.180021 1.540612 0.809494
vt 0.546862 0.908074
vn 0 0.279035 0.960281
v 0.248844 1.540612 0.791053
vt 0.543453 0.908074
vn 0.480135 0.279041 0.831629
v 0.613419 0.975611 0.663801
vt 0.525399 0.880095
vn 0.499989 0 0.866032
v 0.268159 0.975611 0.863137
vt 0.542497 0.880095
vn 0.499989 0 0.866032
v 0.560649 1.540612 0.611032
vt 0.528012 0.908074
vn 0.480135 0.279041 0.831629
v 0.611031 1.540612 0.56065
vt 0.525517 0.908074
vn 0.831629 0.279041 0.480135
v 0.863137 0.975611 0.268159
vt 0.513033 0.880095
vn 0.866032 0 0.499989
v 0.663801 0.975611 0.613419
vt 0.522904 0.880095
vn 0.866032 0 0.499989
v 0.791052 1.540612 0.248844
vt 0.516602 0.908074
vn 0.831629 0.279041 0.480135
v 0.809493 1.540612 0.180021
vt 0.515689 0.908074
vn 0.960281 0.279035 0
v 0.881578 0.975611 -0.199335
vt 0.512119 0.880095
vn 1 0 0
v 0.881578 0.975611 0.199336
vt 0.512119 0.880095
vn 1 0 0
v 0.809493 1.540612 -0.18002
vt 0.515689 0.908074
vn 0.960281 0.279035 0
v 0.791052 1.540612 -0.248843
vt 0.516602 0.908074
vn 0.831629 0.279041 -0.480135
v 0.663801 0.975611 -0.613418
vt 0.522904 0.880095
vn 0.866032 0 -0.499989
v 0.863137 0.975611 -0.268158
vt 0.513033 0.880095
vn 0.866032 0 -0.499989
v 0.611031 1.540612 -0.560649
vt 0.525517 0.908074
vn 0.831629 0.279041 -0.480135
v -0.530862 1.951221 -0.142243
vt 0.582065 0.912783
vn 0.915161 0.319937 0.245195
v -0.360138 1.831951 -0.360137
vt 0.573611 0.906877
vn 0.66994 0.319939 0.66994
v -0.491957 1.831951 -0.131819
vt 0.580139 0.906877
vn 0.915161 0.319937 0.245195
v -0.388618 1.951221 -0.388617
vt 0.575021 0.912783
vn 0.630927 0.16041 0.759078
v 0.560649 1.540612 -0.611031
vt 0.528012 0.908074
vn 0.480135 0.279041 -0.831629
v 0.268159 0.975611 -0.863136
vt 0.542497 0.880095
vn 0.499989 0 -0.866032
v 0.613419 0.975611 -0.6638
vt 0.525399 0.880095
vn 0.499989 0 -0.866032
v 0.248844 1.540612 -0.791052
vt 0.543453 0.908074
vn 0.480135 0.279041 -0.831629
v -0.248844 1.540612 -0.791052
vt 0.5681 0.908074
vn -0.480135 0.279041 -0.831629
v -0.613419 0.975611 -0.6638
vt 0.586154 0.880095
vn -0.499989 0 -0.866032
v -0.268159 0.975611 -0.863136
vt 0.569056 0.880095
vn -0.499989 0 -0.866032
v -0.56065 1.540612 -0.611031
vt 0.583541 0.908074
vn -0.480135 0.279041 -0.831629
v 0.131818 0.119271 0.491957
vt 0.549249 0.790813
vn -0.245195 -0.319937 -0.915161
v -0.142245 0.000001 0.530861
vt 0.562821 0.784906
vn 0.245195 -0.319937 -0.915161
v 0.142243 0.000001 0.530861
vt 0.548732 0.784906
vn -0.245195 -0.319937 -0.915161
v -0.13182 0.119271 0.491957
vt 0.562304 0.790813
vn 0.245195 -0.319937 -0.915161
v -0.180021 0.410608 -0.809493
vt 0.564691 0.852115
vn 0 -0.279035 -0.960281
v 0.180021 0.410608 -0.809493
vt 0.546862 0.852115
vn 0 -0.279035 -0.960281
v -0.448979 1.951221 -0.448977
vt 0.57801 0.928408
vn -0.781428 0.431092 -0.451143
v -0.613316 1.951221 -0.164337
vt 0.586149 0.928408
vn -0.781428 0.431092 -0.451143
v 0.560649 0.410608 -0.611031
vt 0.528012 0.852115
vn 0.480135 -0.279041 -0.831629
v 0.248844 0.410608 -0.791052
vt 0.543453 0.852115
vn 0.480135 -0.279041 -0.831629
v 0.448977 0.000001 -0.448977
vt 0.533542 0.831781
vn 0.451143 -0.431092 -0.781428
v 0.164337 0.000001 -0.613315
vt 0.547638 0.831781
vn 0.451143 -0.431092 -0.781428
v 0.611031 0.410608 -0.560649
vt 0.525517 0.852115
vn 0.831629 -0.279041 -0.480135
v 0.791052 0.410608 -0.248843
vt 0.516602 0.852115
vn 0.831629 -0.279041 -0.480135
v 0.448977 0.000001 -0.448977
vt 0.533542 0.831781
vn 0.781428 -0.431092 -0.451143
v 0.613314 0.000001 -0.164337
vt 0.525404 0.831781
vn 0.781428 -0.431092 -0.451143
v 0.809493 0.410608 -0.18002
vt 0.515689 0.852115
vn 0.960281 -0.279035 0
v 0.809493 0.410608 0.180021
vt 0.515689 0.852115
vn 0.960281 -0.279035 0
v 0.613314 0.000001 -0.164337
vt 0.525404 0.831781
vn 0.90231 -0.431088 0
v 0.613314 0.000001 0.164338
vt 0.525404 0.831781
vn 0.90231 -0.431088 0
v 0.791052 0.410608 0.248844
vt 0.516602 0.852115
vn 0.831629 -0.279041 0.480135
v 0.611031 0.410608 0.56065
vt 0.525517 0.852115
vn 0.831629 -0.279041 0.480135
v 0.613314 0.000001 0.164338
vt 0.525404 0.831781
vn 0.781428 -0.431092 0.451143
v 0.448977 0.000001 0.448978
vt 0.533542 0.831781
vn 0.781428 -0.431092 0.451143
v 0.248844 0.410608 0.791053
vt 0.543453 0.852115
vn 0.480135 -0.279041 0.831629
v 0.560649 0.410608 0.611032
vt 0.528012 0.852115
vn 0.480135 -0.279041 0.831629
v 0.448977 0.000001 0.448978
vt 0.533542 0.831781
vn 0.451143 -0.431092 0.781428
v 0.164336 0.000001 0.613315
vt 0.547638 0.831781
vn 0.451143 -0.431092 0.781428
v 0.180021 0.410608 0.809494
vt 0.546862 0.852115
vn 0 -0.279035 0.960281
v -0.180021 0.410608 0.809494
vt 0.564691 0.852115
vn 0 -0.279035 0.960281
v 0.164336 0.000001 0.613315
vt 0.547638 0.831781
vn 0 -0.431088 0.90231
v -0.164338 0.000001 0.613316
vt 0.563915 0.831781
vn 0 -0.431088 0.90231
v -0.248844 0.410608 0.791053
vt 0.5681 0.852115
vn -0.480135 -0.279041 0.831629
v -0.56065 0.410608 0.611032
vt 0.583541 0.852115
vn -0.480135 -0.279041 0.831629
v -0.164338 0.000001 0.613316
vt 0.563915 0.831781
vn -0.451143 -0.431092 0.781428
v -0.448979 0.000001 0.448978
vt 0.57801 0.831781
vn -0.451143 -0.431092 0.781428
v -0.611032 0.410608 0.56065
vt 0.586036 0.852115
vn -0.831629 -0.279041 0.480135
v -0.791052 0.410608 0.248845
vt 0.594951 0.852115
vn -0.831629 -0.279041 0.480135
v -0.448979 0.000001 0.448978
vt 0.57801 0.831781
vn -0.781428 -0.431092 0.451143
v -0.613316 0.000001 0.164338
vt 0.586149 0.831781
vn -0.781428 -0.431092 0.451143
v -0.809494 0.410608 0.180021
vt 0.595864 0.852115
vn -0.960281 -0.279035 0
v -0.809494 0.410608 -0.18002
vt 0.595864 0.852115
vn -0.960281 -0.279035 0
v -0.613316 0.000001 -0.164337
vt 0.586149 0.831781
vn -0.90231 -0.431088 0
v -0.613316 0.000001 0.164338
vt 0.586149 0.831781
vn -0.90231 -0.431088 0
v -0.791052 0.410608 -0.248843
vt 0.594951 0.852115
vn -0.831629 -0.279041 -0.480135
v -0.611032 0.410608 -0.560649
vt 0.586036 0.852115
vn -0.831629 -0.279041 -0.480135
v -0.613316 0.000001 -0.164337
vt 0.586149 0.831781
vn -0.781428 -0.431092 -0.451143
v -0.448979 0.000001 -0.448977
vt 0.57801 0.831781
vn -0.781428 -0.431092 -0.451143
v -0.56065 0.410608 -0.611031
vt 0.583541 0.852115
vn -0.480135 -0.279041 -0.831629
v -0.248844 0.410608 -0.791052
vt 0.5681 0.852115
vn -0.480135 -0.279041 -0.831629
v -0.164338 1.951221 -0.613315
vt 0.563915 0.928408
vn -0.473417 0.321766 -0.819965
v -0.448979 1.951221 -0.448977
vt 0.57801 0.928408
vn -0.473417 0.321766 -0.819965
v 0.164337 0.000001 -0.613315
vt 0.547638 0.831781
vn 0 -0.431088 -0.90231
v -0.164338 0.000001 -0.613315
vt 0.563915 0.831781
vn 0 -0.431088 -0.90231
v -0.613316 1.951221 0.164338
vt 0.586149 0.928408
vn -0.90231 0.431088 0
v -0.613316 1.951221 -0.164337
vt 0.586149 0.928408
vn -0.90231 0.431088 0
v -0.613316 1.951221 0.164338
vt 0.586149 0.928408
vn -0.808385 0.35872 0.466726
v -0.448979 1.951221 0.448978
vt 0.57801 0.928408
vn -0.806935 0.36306 0.46588
v -0.448979 1.951221 0.448978
vt 0.57801 0.928408
vn -0.451143 0.431092 0.781428
v -0.164338 1.951221 0.613316
vt 0.563915 0.928408
vn -0.451143 0.431092 0.781428
v -0.164338 1.951221 0.613316
vt 0.563915 0.928408
vn 0 0.431088 0.90231
v 0.164336 1.951221 0.613315
vt 0.547638 0.928408
vn 0 0.431088 0.90231
v 0.164336 1.951221 0.613315
vt 0.547638 0.928408
vn 0.451143 0.431092 0.781428
v 0.448977 1.951221 0.448978
vt 0.533542 0.928408
vn 0.451143 0.431092 0.781428
v 0.448977 1.951221 0.448978
vt 0.533542 0.928408
vn 0.781428 0.431092 0.451143
v 0.613314 1.951221 0.164338
vt 0.525404 0.928408
vn 0.781428 0.431092 0.451143
v 0.613314 1.951221 0.164338
vt 0.525404 0.928408
vn 0.90231 0.431088 0
v 0.613314 1.951221 -0.164337
vt 0.525404 0.928408
vn 0.90231 0.431088 0
v 0.448977 1.951221 -0.448977
vt 0.533542 0.928408
vn 0.808385 0.35872 -0.466726
v 0.613314 1.951221 -0.164337
vt 0.525404 0.928408
vn 0.806935 0.36306 -0.46588
v 0.164336 1.951221 -0.613315
vt 0.547638 0.928408
vn 0.451143 0.431092 -0.781428
v 0.448977 1.951221 -0.448977
vt 0.533542 0.928408
vn 0.451143 0.431092 -0.781428
v 0.164336 1.951221 -0.613315
vt 0.547638 0.928408
vn 0 0.431088 -0.90231
v -0.164338 1.951221 -0.613315
vt 0.563915 0.928408
vn 0 0.431088 -0.90231
v -0.448979 0.000001 -0.448977
vt 0.57801 0.800531
vn 0 -1 0
v -0.142245 0.000001 -0.530861
vt 0.562821 0.800531
vn 0 -1 0
v -0.164338 0.000001 -0.613315
vt 0.563915 0.800531
vn 0 -1 0
v -0.388618 0.000001 -0.388617
vt 0.575021 0.800531
vn 0 -1 0
v 0.596679 2.000001 -0.164356
vt 0.526228 0.930824
vn 0.830608 0.283065 -0.479547
v 0.4362 2.000001 -0.442315
vt 0.534175 0.930824
vn 0.830608 0.283065 -0.479547
v -0.613316 0.000001 -0.164337
vt 0.586149 0.800531
vn 0 -1 0
v -0.530862 0.000001 -0.142243
vt 0.582065 0.800531
vn 0 -1 0
v -0.388618 1.951221 -0.388617
vt 0.575021 0.959658
vn 0 1 0
v -0.613316 1.951221 -0.164337
vt 0.586149 0.959658
vn 0 1 0
v -0.448979 1.951221 -0.448977
vt 0.57801 0.959658
vn 0 1 0
v -0.530862 1.951221 -0.142243
vt 0.582065 0.959658
vn 0 1 0
v -0.613316 0.000001 0.164338
vt 0.586149 0.800531
vn 0 -1 0
v -0.530862 0.000001 0.142244
vt 0.582065 0.800531
vn 0 -1 0
v -0.613316 1.951221 0.164338
vt 0.586149 0.959658
vn 0 1 0
v -0.530862 1.951221 0.142244
vt 0.582065 0.959658
vn 0 1 0
v -0.388618 0.000001 0.388618
vt 0.575021 0.800531
vn 0 -1 0
v -0.448979 0.000001 0.448978
vt 0.57801 0.800531
vn 0 -1 0
v 0.516161 2.000001 -0.142781
vt 0.530215 0.946449
vn 0.257798 0.088293 0.962156
v 0.613314 1.951221 -0.164337
vt 0.525404 0.944033
vn 0.257798 0.088293 0.962156
v 0.53086 1.951221 -0.142243
vt 0.529487 0.944033
vn 0.257798 0.088293 0.962156
v 0.596679 2.000001 -0.164356
vt 0.526228 0.946449
vn 0.257798 0.088293 0.962156
v -0.142245 0.000001 0.530861
vt 0.562821 0.800531
vn 0 -1 0
v -0.164338 0.000001 0.613316
vt 0.563915 0.800531
vn 0 -1 0
v -0.142245 1.951221 0.530861
vt 0.562821 0.959658
vn 0 1 0
v -0.448979 1.951221 0.448978
vt 0.57801 0.959658
vn 0 1 0
v -0.388618 1.951221 0.388618
vt 0.575021 0.959658
vn 0 1 0
v -0.164338 1.951221 0.613316
vt 0.563915 0.959658
vn 0 1 0
v 0.164336 0.000001 0.613315
vt 0.547638 0.800531
vn 0 -1 0
v 0.142243 0.000001 0.530861
vt 0.548732 0.800531
vn 0 -1 0
v 0.164336 1.951221 0.613315
vt 0.547638 0.959658
vn 0 1 0
v 0.142243 1.951221 0.530861
vt 0.548732 0.959658
vn 0 1 0
v 0.448977 0.000001 0.448978
vt 0.533542 0.800531
vn 0 -1 0
v 0.388616 0.000001 0.388618
vt 0.536532 0.800531
vn 0 -1 0
v 0.448977 1.951221 0.448978
vt 0.533542 0.959658
vn 0 1 0
v 0.388616 1.951221 0.388618
vt 0.536532 0.959658
vn 0 1 0
v 0.613314 0.000001 0.164338
vt 0.525404 0.800531
vn 0 -1 0
v 0.53086 0.000001 0.142244
vt 0.529487 0.800531
vn 0 -1 0
v 0.613314 1.951221 0.164338
vt 0.525404 0.959658
vn 0 1 0
v 0.53086 1.951221 0.142244
vt 0.529487 0.959658
vn 0 1 0
v 0.53086 0.000001 -0.142243
vt 0.529487 0.800531
vn 0 -1 0
v 0.613314 0.000001 -0.164337
vt 0.525404 0.800531
vn 0 -1 0
v 0.53086 1.951221 -0.142243
vt 0.529487 0.959658
vn 0 1 0
v 0.613314 1.951221 -0.164337
vt 0.525404 0.959658
vn 0 1 0
v 0.388616 0.000001 -0.388617
vt 0.536532 0.800531
vn 0 -1 0
v 0.448977 0.000001 -0.448977
vt 0.533542 0.800531
vn 0 -1 0
v 0.377256 2.000001 -0.383371
vt 0.537094 0.915199
vn -0.839088 -0.247509 0.484428
v 0.53086 1.951221 -0.142243
vt 0.529487 0.912783
vn -0.930553 0.139044 0.33873
v 0.388616 1.951221 -0.388617
vt 0.536532 0.912783
vn -0.764657 0.123572 0.632479
v 0.516161 2.000001 -0.142781
vt 0.530215 0.915199
vn -0.839088 -0.247509 0.484428
v 0.142243 0.000001 -0.530861
vt 0.548732 0.800531
vn 0 -1 0
v 0.164337 0.000001 -0.613315
vt 0.547638 0.800531
vn 0 -1 0
v 0.448977 1.951221 -0.448977
vt 0.533542 0.959658
vn 0 1 0
v 0.142243 1.951221 -0.530861
vt 0.548732 0.959658
vn 0 1 0
v 0.164336 1.951221 -0.613315
vt 0.547638 0.959658
vn 0 1 0
v 0.388616 1.951221 -0.388617
vt 0.536532 0.959658
vn 0 1 0
v -0.142245 1.951221 -0.530861
vt 0.562821 0.959658
vn 0 1 0
v -0.164338 1.951221 -0.613315
vt 0.563915 0.959658
vn 0 1 0
v 0.131818 1.831951 0.491957
vt 0.549249 0.922502
vn 0 1 0
v -0.360138 1.831951 0.360137
vt 0.573611 0.938127
vn 0 1 0
v 0.360136 1.831951 0.360137
vt 0.537942 0.938127
vn 0 1 0
v -0.13182 1.831951 0.491957
vt 0.562304 0.922502
vn 0 1 0
v 0.360136 0.119271 -0.360137
vt 0.537942 0.790813
vn -0.66994 -0.319939 0.66994
v 0.53086 0.000001 -0.142243
vt 0.529487 0.784906
vn -0.915161 -0.319937 0.245195
v 0.388616 0.000001 -0.388617
vt 0.536532 0.784906
vn -0.66994 -0.319939 0.66994
v 0.491956 0.119271 -0.131819
vt 0.531414 0.790813
vn -0.915161 -0.319937 0.245195
v 0.142243 1.951221 0.530861
vt 0.548732 0.912783
vn -0.245195 0.319937 -0.915161
v -0.13182 1.831951 0.491957
vt 0.562304 0.906877
vn 0.245195 0.319937 -0.915161
v 0.131818 1.831951 0.491957
vt 0.549249 0.906877
vn -0.245195 0.319937 -0.915161
v -0.142245 1.951221 0.530861
vt 0.562821 0.912783
vn 0.245195 0.319937 -0.915161
v -0.491957 0.119271 0.13182
vt 0.580139 0.790813
vn 0.915161 -0.319937 -0.245195
v -0.530862 0.000001 -0.142243
vt 0.582065 0.784906
vn 0.915161 -0.319937 0.245195
v -0.530862 0.000001 0.142244
vt 0.582065 0.784906
vn 0.915161 -0.319937 -0.245195
v -0.491957 0.119271 -0.131819
vt 0.580139 0.790813
vn 0.915161 -0.319937 0.245195
v 0.491956 1.831951 -0.131819
vt 0.531414 0.906877
vn -0.915161 0.319937 0.245195
v 0.360136 1.831951 -0.360137
vt 0.537942 0.906877
vn -0.66994 0.319939 0.66994
v 0.388616 0.000001 0.388618
vt 0.536532 0.784906
vn -0.66994 -0.319939 -0.66994
v 0.360136 0.119271 0.360137
vt 0.537942 0.790813
vn -0.66994 -0.319939 -0.66994
v -0.530862 1.951221 0.142244
vt 0.582065 0.912783
vn 0.930074 0.123572 -0.345966
v -0.491957 1.831951 0.13182
vt 0.580139 0.906877
vn 0.915161 0.319937 -0.245195
v 0.131818 0.119271 -0.491956
vt 0.549249 0.790813
vn -0.245195 -0.319937 0.915161
v 0.142243 0.000001 -0.530861
vt 0.548732 0.784906
vn -0.245195 -0.319937 0.915161
v 0.388616 1.951221 0.388618
vt 0.536532 0.912783
vn -0.66994 0.319939 -0.66994
v 0.360136 1.831951 0.360137
vt 0.537942 0.906877
vn -0.66994 0.319939 -0.66994
v -0.388618 0.000001 0.388618
vt 0.575021 0.784906
vn 0.66994 -0.319939 -0.66994
v -0.360138 0.119271 0.360137
vt 0.573611 0.790813
vn 0.66994 -0.319939 -0.66994
v 0.142243 1.951221 -0.530861
vt 0.548732 0.912783
vn -0.245195 0.319937 0.915161
v 0.131818 1.831951 -0.491956
vt 0.549249 0.906877
vn -0.245195 0.319937 0.915161
v 0.491956 0.119271 0.13182
vt 0.531414 0.790813
vn -0.915161 -0.319937 -0.245195
v 0.53086 0.000001 0.142244
vt 0.529487 0.784906
vn -0.915161 -0.319937 -0.245195
v -0.388618 1.951221 0.388618
vt 0.575021 0.912783
vn 0.758638 0.139044 -0.636502
v -0.491957 1.831951 0.13182
vt 0.580139 0.906877
vn 0.915161 0.319937 -0.245195
v -0.360138 1.831951 0.360137
vt 0.573611 0.906877
vn 0.66994 0.319939 -0.66994
v -0.530862 1.951221 0.142244
vt 0.582065 0.912783
vn 0.930074 0.123572 -0.345966
v -0.13182 0.119271 -0.491956
vt 0.562304 0.790813
vn 0.245195 -0.319937 0.915161
v -0.142245 0.000001 -0.530861
vt 0.562821 0.784906
vn 0.245195 -0.319937 0.915161
v -0.388618 0.000001 -0.388617
vt 0.575021 0.784906
vn 0.66994 -0.319939 0.66994
v -0.360138 0.119271 -0.360137
vt 0.573611 0.790813
vn 0.66994 -0.319939 0.66994
v 0.53086 1.951221 0.142244
vt 0.529487 0.912783
vn -0.915161 0.319937 -0.245195
v 0.491956 1.831951 0.13182
vt 0.531414 0.906877
vn -0.915161 0.319937 -0.245195
v -0.142245 1.951221 -0.530861
vt 0.562821 0.912783
vn 0.341903 0.160407 0.925944
v -0.13182 1.831951 -0.491956
vt 0.562304 0.906877
vn 0.245195 0.319937 0.915161
v 0.53086 0.000001 0.142244
vt 0.529487 0.784906
vn -0.915161 -0.319937 -0.245195
v 0.491956 0.119271 0.13182
vt 0.531414 0.790813
vn -0.915161 -0.319937 -0.245195
v -0.491957 0.119271 -0.131819
vt 0.580139 0.790813
vn 0.915161 -0.319937 0.245195
v -0.530862 0.000001 -0.142243
vt 0.582065 0.784906
vn 0.915161 -0.319937 0.245195
v 0.491956 1.831951 0.13182
vt 0.531414 0.906877
vn -0.915161 0.319937 -0.245195
v 0.53086 1.951221 0.142244
vt 0.529487 0.912783
vn -0.915161 0.319937 -0.245195
v -0.180021 0.410608 -0.809493
vt 0.564691 0.820865
vn -0.786207 -0.190044 -0.588015
v -0.207384 0.410608 -0.773964
vt 0.566046 0.820865
vn -0.780555 -0.214183 -0.587247
v -0.164338 0.000001 -0.613315
vt 0.563915 0.800531
vn -0.754186 -0.306319 -0.580838
v -0.207384 0.410608 -0.773964
vt 0.566046 0.883365
vn 0.382371 -0.214182 -0.898843
v -0.248844 0.410608 -0.791052
vt 0.5681 0.883365
vn 0.386865 -0.190045 -0.90234
v -0.164338 0.000001 -0.613315
vt 0.563915 0.863031
vn 0.362721 -0.306322 -0.880114
v -0.248844 1.540612 -0.791052
vt 0.5681 0.939324
vn 0.386865 0.190045 -0.90234
v -0.207384 1.540612 -0.773964
vt 0.566046 0.939324
vn 0.382371 0.214182 -0.898843
v -0.164338 1.951221 -0.613315
vt 0.563915 0.959658
vn 0.362721 0.306322 -0.880114
v -0.207384 1.540612 -0.773964
vt 0.566046 0.876824
vn -0.780555 0.214183 -0.587247
v -0.180021 1.540612 -0.809493
vt 0.564691 0.876824
vn -0.786207 0.190044 -0.588015
v -0.164338 1.951221 -0.613315
vt 0.563915 0.897158
vn -0.754186 0.306319 -0.580838
v -0.611032 1.540612 -0.560649
vt 0.586036 0.939324
vn -0.116123 0.190039 -0.974885
v -0.566582 1.540612 -0.566581
vt 0.583834 0.939324
vn -0.11826 0.21418 -0.969609
v -0.448979 1.951221 -0.448977
vt 0.57801 0.959658
vn -0.125922 0.306321 -0.943563
v -0.566582 1.540612 -0.566581
vt 0.583834 0.876824
vn -0.969609 0.21418 -0.11826
v -0.56065 1.540612 -0.611031
vt 0.583541 0.876824
vn -0.974885 0.190039 -0.116123
v -0.448979 1.951221 -0.448977
vt 0.57801 0.897158
vn -0.943563 0.306321 -0.125922
v -0.56065 0.410608 -0.611031
vt 0.583541 0.820865
vn -0.974885 -0.190039 -0.116123
v -0.566582 0.410608 -0.566581
vt 0.583834 0.820865
vn -0.969609 -0.21418 -0.11826
v -0.448979 0.000001 -0.448977
vt 0.57801 0.800531
vn -0.943563 -0.306321 -0.125922
v -0.566582 0.410608 -0.566581
vt 0.583834 0.883365
vn -0.11826 -0.21418 -0.969609
v -0.611032 0.410608 -0.560649
vt 0.586036 0.883365
vn -0.116123 -0.190039 -0.974885
v -0.448979 0.000001 -0.448977
vt 0.57801 0.863031
vn -0.125922 -0.306321 -0.943563
v -0.809494 1.540612 -0.18002
vt 0.595864 0.939324
vn -0.588015 0.190044 -0.786207
v -0.773966 1.540612 -0.207383
vt 0.594104 0.939324
vn -0.587247 0.214183 -0.780555
v -0.613316 1.951221 -0.164337
vt 0.586149 0.959658
vn -0.580838 0.306319 -0.754186
v -0.773966 1.540612 -0.207383
vt 0.594104 0.876824
vn -0.898853 0.214184 0.382345
v -0.791053 1.540612 -0.248843
vt 0.594951 0.876824
vn -0.902346 0.19004 0.386855
v -0.613316 1.951221 -0.164337
vt 0.586149 0.897158
vn -0.880114 0.306322 0.362721
v -0.791052 0.410608 -0.248843
vt 0.594951 0.820865
vn -0.902346 -0.19004 0.386855
v -0.773965 0.410608 -0.207383
vt 0.594104 0.820865
vn -0.898853 -0.214184 0.382345
v -0.613316 0.000001 -0.164337
vt 0.586149 0.800531
vn -0.880114 -0.306322 0.362721
v -0.773965 0.410608 -0.207383
vt 0.594104 0.883365
vn -0.587247 -0.214183 -0.780555
v -0.809494 0.410608 -0.18002
vt 0.595864 0.883365
vn -0.588015 -0.190044 -0.786207
v -0.613316 0.000001 -0.164337
vt 0.586149 0.863031
vn -0.580838 -0.306319 -0.754186
v -0.791052 1.540612 0.248845
vt 0.594951 0.939324
vn -0.90234 0.190045 -0.386865
v -0.773965 1.540612 0.207384
vt 0.594104 0.939324
vn -0.898853 0.214184 -0.382345
v -0.613316 1.951221 0.164338
vt 0.586149 0.959658
vn -0.880114 0.306322 -0.362721
v -0.773965 1.540612 0.207384
vt 0.594104 0.876824
vn -0.587247 0.214183 0.780555
v -0.809494 1.540612 0.180021
vt 0.595864 0.876824
vn -0.588015 0.190044 0.786207
v -0.613316 1.951221 0.164338
vt 0.586149 0.897158
vn -0.580838 0.306319 0.754186
v -0.809494 0.410608 0.180021
vt 0.595864 0.820865
vn -0.588015 -0.190044 0.786207
v -0.773965 0.410608 0.207384
vt 0.594104 0.820865
vn -0.587247 -0.214183 0.780555
v -0.613316 0.000001 0.164338
vt 0.586149 0.800531
vn -0.580838 -0.306319 0.754186
v -0.773965 0.410608 0.207384
vt 0.594104 0.883365
vn -0.898853 -0.214184 -0.382345
v -0.791052 0.410608 0.248845
vt 0.594951 0.883365
vn -0.90234 -0.190045 -0.386865
v -0.613316 0.000001 0.164338
vt 0.586149 0.863031
vn -0.880114 -0.306322 -0.362721
v -0.56065 1.540612 0.611032
vt 0.583541 0.939324
vn -0.974885 0.190039 0.116123
v -0.566582 1.540612 0.566582
vt 0.583834 0.939324
vn -0.969609 0.21418 0.11826
v -0.448979 1.951221 0.448978
vt 0.57801 0.959658
vn -0.943563 0.306321 0.125922
v -0.566582 1.540612 0.566582
vt 0.583834 0.876824
vn -0.11826 0.21418 0.969609
v -0.611032 1.540612 0.56065
vt 0.586036 0.876824
vn -0.116123 0.190039 0.974885
v -0.448979 1.951221 0.448978
vt 0.57801 0.897158
vn -0.125922 0.306321 0.943563
v -0.611032 0.410608 0.56065
vt 0.586036 0.820865
vn -0.116123 -0.190039 0.974885
v -0.566582 0.410608 0.566582
vt 0.583834 0.820865
vn -0.11826 -0.21418 0.969609
v -0.448979 0.000001 0.448978
vt 0.57801 0.800531
vn -0.125922 -0.306321 0.943563
v -0.566582 0.410608 0.566582
vt 0.583834 0.883365
vn -0.969605 -0.214179 0.11829
v -0.56065 0.410608 0.611032
vt 0.583541 0.883365
vn -0.974883 -0.190045 0.116127
v -0.448979 0.000001 0.448978
vt 0.57801 0.863031
vn -0.943563 -0.306321 0.125922
v -0.180021 1.540612 0.809494
vt 0.564691 0.939324
vn -0.786207 0.190044 0.588015
v -0.207384 1.540612 0.773966
vt 0.566046 0.939324
vn -0.780555 0.214183 0.587247
v -0.164338 1.951221 0.613316
vt 0.563915 0.959658
vn -0.754186 0.306319 0.580838
v -0.207384 1.540612 0.773966
vt 0.566046 0.876824
vn 0.382345 0.214184 0.898853
v -0.248844 1.540612 0.791053
vt 0.5681 0.876824
vn 0.386865 0.190045 0.90234
v -0.164338 1.951221 0.613316
vt 0.563915 0.897158
vn 0.362721 0.306322 0.880114
v -0.248844 0.410608 0.791053
vt 0.5681 0.820865
vn 0.386865 -0.190045 0.90234
v -0.207384 0.410608 0.773966
vt 0.566046 0.820865
vn 0.382345 -0.214184 0.898853
v -0.164338 0.000001 0.613316
vt 0.563915 0.800531
vn 0.362721 -0.306322 0.880114
v -0.207384 0.410608 0.773966
vt 0.566046 0.883365
vn -0.780555 -0.214183 0.587247
v -0.180021 0.410608 0.809494
vt 0.564691 0.883365
vn -0.786207 -0.190044 0.588015
v -0.164338 0.000001 0.613316
vt 0.563915 0.863031
vn -0.754186 -0.306319 0.580838
v 0.248844 1.540612 0.791053
vt 0.543453 0.939324
vn -0.386865 0.190045 0.90234
v 0.207383 1.540612 0.773966
vt 0.545506 0.939324
vn -0.382345 0.214184 0.898853
v 0.164336 1.951221 0.613315
vt 0.547638 0.959658
vn -0.362721 0.306322 0.880114
v 0.207383 1.540612 0.773966
vt 0.545506 0.876824
vn 0.780555 0.214183 0.587247
v 0.180021 1.540612 0.809494
vt 0.546862 0.876824
vn 0.786207 0.190044 0.588015
v 0.164336 1.951221 0.613315
vt 0.547638 0.897158
vn 0.754186 0.306319 0.580838
v 0.180021 0.410608 0.809494
vt 0.546862 0.820865
vn 0.786207 -0.190044 0.588015
v 0.207383 0.410608 0.773966
vt 0.545506 0.820865
vn 0.780555 -0.214183 0.587247
v 0.164336 0.000001 0.613315
vt 0.547638 0.800531
vn 0.754186 -0.306319 0.580838
v 0.207383 0.410608 0.773966
vt 0.545506 0.883365
vn -0.382345 -0.214184 0.898853
v 0.248844 0.410608 0.791053
vt 0.543453 0.883365
vn -0.386855 -0.19004 0.902346
v 0.164336 0.000001 0.613315
vt 0.547638 0.863031
vn -0.362721 -0.306322 0.880114
v 0.611031 1.540612 0.56065
vt 0.525517 0.939324
vn 0.116123 0.190039 0.974885
v 0.566581 1.540612 0.566582
vt 0.527718 0.939324
vn 0.11826 0.21418 0.969609
v 0.448977 1.951221 0.448978
vt 0.533542 0.959658
vn 0.125922 0.306321 0.943563
v 0.566581 1.540612 0.566582
vt 0.527718 0.876824
vn 0.969609 0.21418 0.11826
v 0.560649 1.540612 0.611032
vt 0.528012 0.876824
vn 0.974885 0.190039 0.116123
v 0.448977 1.951221 0.448978
vt 0.533542 0.897158
vn 0.943563 0.306321 0.125922
v 0.560649 0.410608 0.611032
vt 0.528012 0.820865
vn 0.974885 -0.190039 0.116123
v 0.566581 0.410608 0.566582
vt 0.527718 0.820865
vn 0.969609 -0.21418 0.11826
v 0.448977 0.000001 0.448978
vt 0.533542 0.800531
vn 0.943563 -0.306321 0.125922
v 0.566581 0.410608 0.566582
vt 0.527718 0.883365
vn 0.11826 -0.21418 0.969609
v 0.611031 0.410608 0.56065
vt 0.525517 0.883365
vn 0.116123 -0.190039 0.974885
v 0.448977 0.000001 0.448978
vt 0.533542 0.863031
vn 0.125922 -0.306321 0.943563
v 0.809493 1.540612 0.180021
vt 0.515689 0.939324
vn 0.588015 0.190044 0.786207
v 0.773964 1.540612 0.207384
vt 0.517449 0.939324
vn 0.587247 0.214183 0.780555
v 0.613314 1.951221 0.164338
vt 0.525404 0.959658
vn 0.580838 0.306319 0.754186
v 0.773964 1.540612 0.207384
vt 0.517449 0.876824
vn 0.898843 0.214182 -0.382371
v 0.791052 1.540612 0.248844
vt 0.516602 0.876824
vn 0.90234 0.190045 -0.386865
v 0.613314 1.951221 0.164338
vt 0.525404 0.897158
vn 0.880114 0.306322 -0.362721
v 0.791052 0.410608 0.248844
vt 0.516602 0.820865
vn 0.90234 -0.190045 -0.386865
v 0.773964 0.410608 0.207384
vt 0.517449 0.820865
vn 0.898843 -0.214182 -0.382371
v 0.613314 0.000001 0.164338
vt 0.525404 0.800531
vn 0.880114 -0.306322 -0.362721
v 0.773964 0.410608 0.207384
vt 0.517449 0.883365
vn 0.587247 -0.214183 0.780555
v 0.809493 0.410608 0.180021
vt 0.515689 0.883365
vn 0.588015 -0.190044 0.786207
v 0.613314 0.000001 0.164338
vt 0.525404 0.863031
vn 0.580838 -0.306319 0.754186
v 0.791052 1.540612 -0.248843
vt 0.516602 0.939324
vn 0.90234 0.190045 0.386865
v 0.773964 1.540612 -0.207383
vt 0.517449 0.939324
vn 0.898853 0.214184 0.382345
v 0.613314 1.951221 -0.164337
vt 0.525404 0.959658
vn 0.880114 0.306322 0.362721
v 0.773964 1.540612 -0.207383
vt 0.517449 0.876824
vn 0.587247 0.214183 -0.780555
v 0.809493 1.540612 -0.18002
vt 0.515689 0.876824
vn 0.588015 0.190044 -0.786207
v 0.613314 1.951221 -0.164337
vt 0.525404 0.897158
vn 0.580838 0.306319 -0.754186
v 0.809493 0.410608 -0.18002
vt 0.515689 0.820865
vn 0.588015 -0.190044 -0.786207
v 0.773964 0.410608 -0.207383
vt 0.517449 0.820865
vn 0.587227 -0.214186 -0.780569
v 0.613314 0.000001 -0.164337
vt 0.525404 0.800531
vn 0.580838 -0.306319 -0.754186
v 0.773964 0.410608 -0.207383
vt 0.517449 0.883365
vn 0.898853 -0.214184 0.382345
v 0.791052 0.410608 -0.248843
vt 0.516602 0.883365
vn 0.90234 -0.190045 0.386865
v 0.613314 0.000001 -0.164337
vt 0.525404 0.863031
vn 0.880114 -0.306322 0.362721
v 0.560649 1.540612 -0.611031
vt 0.528012 0.939324
vn 0.974885 0.190039 -0.116123
v 0.566581 1.540612 -0.566581
vt 0.527718 0.939324
vn 0.969609 0.21418 -0.11826
v 0.448977 1.951221 -0.448977
vt 0.533542 0.959658
vn 0.943563 0.306321 -0.125922
v 0.566581 1.540612 -0.566581
vt 0.527718 0.876824
vn 0.11826 0.21418 -0.969609
v 0.611031 1.540612 -0.560649
vt 0.525517 0.876824
vn 0.116123 0.190039 -0.974885
v 0.448977 1.951221 -0.448977
vt 0.533542 0.897158
vn 0.125922 0.306321 -0.943563
v 0.611031 0.410608 -0.560649
vt 0.525517 0.820865
vn 0.116123 -0.190039 -0.974885
v 0.566581 0.410608 -0.566581
vt 0.527718 0.820865
vn 0.11826 -0.21418 -0.969609
v 0.448977 0.000001 -0.448977
vt 0.533542 0.800531
vn 0.125922 -0.306321 -0.943563
v 0.566581 0.410608 -0.566581
vt 0.527718 0.883365
vn 0.969609 -0.21418 -0.11826
v 0.560649 0.410608 -0.611031
vt 0.528012 0.883365
vn 0.974885 -0.190039 -0.116123
v 0.448977 0.000001 -0.448977
vt 0.533542 0.863031
vn 0.943563 -0.306321 -0.125922
v 0.180021 1.540612 -0.809493
vt 0.546862 0.939324
vn 0.786207 0.190044 -0.588015
v 0.207383 1.540612 -0.773964
vt 0.545506 0.939324
vn 0.780569 0.214186 -0.587227
v 0.164336 1.951221 -0.613315
vt 0.547638 0.959658
vn 0.754186 0.306319 -0.580838
v 0.207383 1.540612 -0.773964
vt 0.545506 0.876824
vn -0.382345 0.214184 -0.898853
v 0.248844 1.540612 -0.791052
vt 0.543453 0.876824
vn -0.386865 0.190045 -0.90234
v 0.164336 1.951221 -0.613315
vt 0.547638 0.897158
vn -0.362721 0.306322 -0.880114
v 0.248844 0.410608 -0.791052
vt 0.543453 0.820865
vn -0.386865 -0.190045 -0.90234
v 0.207383 0.410608 -0.773964
vt 0.545506 0.820865
vn -0.382371 -0.214182 -0.898843
v 0.164337 0.000001 -0.613315
vt 0.547638 0.800531
vn -0.362721 -0.306322 -0.880114
v 0.207383 0.410608 -0.773964
vt 0.545506 0.883365
vn 0.780569 -0.214186 -0.587227
v 0.180021 0.410608 -0.809493
vt 0.546862 0.883365
vn 0.786207 -0.190044 -0.588015
v 0.164337 0.000001 -0.613315
vt 0.547638 0.863031
vn 0.754186 -0.306319 -0.580838
v -0.225975 0.975611 -0.843348
vt 0.566967 0.848845
vn -0.806869 0 -0.590731
v -0.199336 0.975611 -0.881577
vt 0.565648 0.848845
vn -0.806869 0 -0.590731
v -0.225975 0.975611 -0.843348
vt 0.566967 0.911345
vn 0.403401 0 -0.915023
v -0.268159 0.975611 -0.863136
vt 0.569056 0.911345
vn 0.403401 0 -0.915023
v -0.663801 0.975611 -0.613418
vt 0.588649 0.911345
vn -0.10816 0 -0.994133
v -0.617374 0.975611 -0.617373
vt 0.58635 0.911345
vn -0.10816 0 -0.994133
v -0.613419 0.975611 -0.6638
vt 0.586154 0.848845
vn -0.994133 0 -0.10816
v -0.617374 0.975611 -0.617373
vt 0.58635 0.848845
vn -0.994133 0 -0.10816
v -0.881578 0.975611 -0.199335
vt 0.599433 0.911345
vn -0.590731 0 -0.806869
v -0.843349 0.975611 -0.225974
vt 0.59754 0.911345
vn -0.590731 0 -0.806869
v -0.863137 0.975611 -0.268158
vt 0.59852 0.848845
vn -0.915034 0 0.403376
v -0.843349 0.975611 -0.225974
vt 0.59754 0.848845
vn -0.915034 0 0.403376
v -0.863137 0.975611 0.26816
vt 0.59852 0.911345
vn -0.915034 0 -0.403376
v -0.843349 0.975611 0.225975
vt 0.59754 0.911345
vn -0.915034 0 -0.403376
v -0.881578 0.975611 0.199336
vt 0.599433 0.848845
vn -0.590731 0 0.806869
v -0.843349 0.975611 0.225975
vt 0.59754 0.848845
vn -0.590731 0 0.806869
v -0.613419 0.975611 0.663801
vt 0.586154 0.911345
vn -0.994133 0 0.10816
v -0.617374 0.975611 0.617375
vt 0.58635 0.911345
vn -0.994133 0 0.10816
v -0.663801 0.975611 0.613419
vt 0.588649 0.848845
vn -0.10816 0 0.994133
v -0.617374 0.975611 0.617375
vt 0.58635 0.848845
vn -0.10816 0 0.994133
v -0.199336 0.975611 0.881578
vt 0.565648 0.911345
vn -0.806869 0 0.590731
v -0.225975 0.975611 0.843349
vt 0.566967 0.911345
vn -0.806869 0 0.590731
v -0.268159 0.975611 0.863137
vt 0.569056 0.848845
vn 0.403376 0 0.915034
v -0.225975 0.975611 0.843349
vt 0.566967 0.848845
vn 0.403376 0 0.915034
v 0.268159 0.975611 0.863137
vt 0.542497 0.911345
vn -0.403376 0 0.915034
v 0.225974 0.975611 0.843349
vt 0.544586 0.911345
vn -0.403376 0 0.915034
v 0.199336 0.975611 0.881578
vt 0.545905 0.848845
vn 0.806869 0 0.590731
v 0.225974 0.975611 0.843349
vt 0.544586 0.848845
vn 0.806869 0 0.590731
v 0.663801 0.975611 0.613419
vt 0.522904 0.911345
vn 0.10816 0 0.994133
v 0.617374 0.975611 0.617375
vt 0.525203 0.911345
vn 0.10816 0 0.994133
v 0.613419 0.975611 0.663801
vt 0.525399 0.848845
vn 0.994133 0 0.10816
v 0.617374 0.975611 0.617375
vt 0.525203 0.848845
vn 0.994133 0 0.10816
v 0.881578 0.975611 0.199336
vt 0.512119 0.911345
vn 0.590731 0 0.806869
v 0.843349 0.975611 0.225975
vt 0.514013 0.911345
vn 0.590731 0 0.806869
v 0.863137 0.975611 0.268159
vt 0.513033 0.848845
vn 0.915023 0 -0.403401
v 0.843349 0.975611 0.225975
vt 0.514013 0.848845
vn 0.915023 0 -0.403401
v 0.863137 0.975611 -0.268158
vt 0.513033 0.911345
vn 0.915023 0 0.403401
v 0.843348 0.975611 -0.225974
vt 0.514013 0.911345
vn 0.915023 0 0.403401
v 0.881578 0.975611 -0.199335
vt 0.512119 0.848845
vn 0.590731 0 -0.806869
v 0.843348 0.975611 -0.225974
vt 0.514013 0.848845
vn 0.590731 0 -0.806869
v 0.613419 0.975611 -0.6638
vt 0.525399 0.911345
vn 0.994133 0 -0.10816
v 0.617374 0.975611 -0.617373
vt 0.525203 0.911345
vn 0.994133 0 -0.10816
v 0.663801 0.975611 -0.613418
vt 0.522904 0.848845
vn 0.10816 0 -0.994133
v 0.617374 0.975611 -0.617373
vt 0.525203 0.848845
vn 0.10816 0 -0.994133
v 0.199336 0.975611 -0.881577
vt 0.545905 0.911345
vn 0.806869 0 -0.590731
v 0.225975 0.975611 -0.843348
vt 0.544586 0.911345
vn 0.806869 0 -0.590731
v 0.268159 0.975611 -0.863136
vt 0.542497 0.848845
vn -0.403376 0 -0.915034
v 0.225975 0.975611 -0.843348
vt 0.544586 0.848845
vn -0.403376 0 -0.915034
v -0.448979 0.000001 -0.448977
vt 0.57801 0.831781
vn -0.451143 -0.431092 -0.781428
v -0.164338 0.000001 -0.613315
vt 0.563915 0.831781
vn -0.451143 -0.431092 -0.781428
v 0.241154 1.35744 -0.9
vt 0.167926 0.901332
vn 0.254959 0.171977 -0.951535
v -0.232767 1.543054 -0.868699
vt 0.187313 0.9125
vn -0.254959 0.171977 -0.951535
v -0.241154 1.357439 -0.9
vt 0.187656 0.901332
vn -0.254959 0.171977 -0.951535
v 0.232768 1.543054 -0.868699
vt 0.168269 0.9125
vn 0.254959 0.171977 -0.951535
v -0.8687 1.543054 -0.232767
vt 0.213327 0.9125
vn -0.951535 0.171977 -0.254959
v -0.9 1.357439 0.241155
vt 0.214608 0.901332
vn -0.951535 0.171977 0.254959
v -0.9 1.357439 -0.241154
vt 0.214608 0.901332
vn -0.951535 0.171977 -0.254959
v -0.8687 1.543054 0.232768
vt 0.213327 0.9125
vn -0.951535 0.171977 0.254959
v -0.658846 1.357439 0.658846
vt 0.204743 0.901332
vn -0.696572 0.171976 0.696572
v -0.635932 1.543054 0.635933
vt 0.203805 0.9125
vn -0.696572 0.171976 0.696572
v -0.241154 1.357439 0.9
vt 0.187656 0.901332
vn -0.254959 0.171977 0.951535
v -0.232767 1.543054 0.8687
vt 0.187313 0.9125
vn -0.254959 0.171977 0.951535
v 0.241154 1.357439 0.9
vt 0.167926 0.901332
vn 0.254959 0.171977 0.951535
v 0.232767 1.543054 0.8687
vt 0.168269 0.9125
vn 0.254959 0.171977 0.951535
v 0.658846 1.35744 0.658846
vt 0.15084 0.901332
vn 0.696572 0.171976 0.696572
v 0.635932 1.543054 0.635933
vt 0.151777 0.9125
vn 0.696572 0.171976 0.696572
v 0.8687 1.543054 0.232768
vt 0.142255 0.9125
vn 0.951535 0.171977 0.254959
v 0.9 1.357439 0.241155
vt 0.140975 0.901332
vn 0.951535 0.171977 0.254959
v 0.9 1.35744 -0.241154
vt 0.140975 0.901332
vn 0.951535 0.171977 -0.254959
v 0.8687 1.543054 -0.232767
vt 0.142255 0.9125
vn 0.951535 0.171977 -0.254959
v 0.8687 1.543054 -0.232767
vt 0.142255 0.9125
vn 0.951535 0.171977 -0.254959
v 0.658846 1.35744 -0.658845
vt 0.15084 0.901332
vn 0.696572 0.171976 -0.696572
v 0.9 1.35744 -0.241154
vt 0.140975 0.901332
vn 0.951535 0.171977 -0.254959
v 0.635932 1.543054 -0.635932
vt 0.151777 0.9125
vn 0.696572 0.171976 -0.696572
v -0.635932 1.543054 -0.635932
vt 0.203805 0.9125
vn -0.696572 0.171976 -0.696572
v -0.9 1.357439 -0.241154
vt 0.214608 0.901332
vn -0.951535 0.171977 -0.254959
v -0.658846 1.357439 -0.658845
vt 0.204743 0.901332
vn -0.696572 0.171976 -0.696572
v -0.8687 1.543054 -0.232767
vt 0.213327 0.9125
vn -0.951535 0.171977 -0.254959
v 0.241154 0.593784 -0.9
vt 0.167926 0.855385
vn 0.254959 -0.171977 -0.951535
v -0.232767 0.408169 -0.868699
vt 0.187313 0.844218
vn -0.254959 -0.171977 -0.951535
v 0.232768 0.408169 -0.868699
vt 0.168269 0.844218
vn 0.254959 -0.171977 -0.951535
v -0.241154 0.593784 -0.9
vt 0.187656 0.855385
vn -0.254959 -0.171977 -0.951535
v -0.8687 0.408169 -0.232767
vt 0.213327 0.844218
vn -0.951535 -0.171977 -0.254959
v -0.9 0.593784 0.241155
vt 0.214608 0.855386
vn -0.951535 -0.171977 0.254959
v -0.8687 0.408169 0.232768
vt 0.213327 0.844218
vn -0.951535 -0.171977 0.254959
v -0.9 0.593784 -0.241154
vt 0.214608 0.855386
vn -0.951535 -0.171977 -0.254959
v -0.635932 0.408169 0.635933
vt 0.203805 0.844218
vn -0.696572 -0.171976 0.696572
v -0.658846 0.593784 0.658846
vt 0.204743 0.855386
vn -0.696572 -0.171976 0.696572
v -0.232767 0.408169 0.8687
vt 0.187313 0.844218
vn -0.254959 -0.171977 0.951535
v -0.241154 0.593784 0.9
vt 0.187656 0.855386
vn -0.254959 -0.171977 0.951535
v 0.232767 0.408169 0.8687
vt 0.168269 0.844218
vn 0.254959 -0.171977 0.951535
v 0.241154 0.593784 0.9
vt 0.167926 0.855386
vn 0.254959 -0.171977 0.951535
v 0.635932 0.408169 0.635933
vt 0.151777 0.844218
vn 0.696572 -0.171976 0.696572
v 0.658846 0.593784 0.658846
vt 0.15084 0.855386
vn 0.696572 -0.171976 0.696572
v 0.8687 0.408169 0.232768
vt 0.142255 0.844218
vn 0.951535 -0.171977 0.254959
v 0.9 0.593784 0.241155
vt 0.140975 0.855386
vn 0.951535 -0.171977 0.254959
v 0.8687 0.408169 -0.232767
vt 0.142255 0.844218
vn 0.951535 -0.171977 -0.254959
v 0.9 0.593784 -0.241154
vt 0.140975 0.855386
vn 0.951535 -0.171977 -0.254959
v 0.8687 0.408169 -0.232767
vt 0.142255 0.844218
vn 0.951535 -0.171977 -0.254959
v 0.658846 0.593784 -0.658845
vt 0.15084 0.855386
vn 0.696572 -0.171976 -0.696572
v 0.635932 0.408169 -0.635932
vt 0.151777 0.844218
vn 0.696572 -0.171976 -0.696572
v 0.9 0.593784 -0.241154
vt 0.140975 0.855386
vn 0.951535 -0.171977 -0.254959
v -0.658846 0.593784 -0.658845
vt 0.204743 0.855386
vn -0.696572 -0.171976 -0.696572
v -0.8687 0.408169 -0.232767
vt 0.213327 0.844218
vn -0.951535 -0.171977 -0.254959
v -0.635932 0.408169 -0.635932
vt 0.203805 0.844218
vn -0.696572 -0.171976 -0.696572
v -0.9 0.593784 -0.241154
vt 0.214608 0.855386
vn -0.951535 -0.171977 -0.254959
v -0.209999 1.296276 -0.783725
vt 0.186382 0.85169
vn -0.117223 -0.89152 -0.437551
v -0.658846 1.357439 -0.658845
vt 0.204743 0.85537
vn -0.320299 -0.891525 -0.320299
v -0.573727 1.296276 -0.573726
vt 0.201261 0.85169
vn -0.320299 -0.891525 -0.320299
v -0.241154 1.357439 -0.9
vt 0.187656 0.85537
vn -0.117223 -0.89152 -0.437551
v -0.198778 1.581776 -0.741847
vt 0.185923 0.960793
vn -0.073184 0.959177 -0.273174
v -0.635932 1.543054 -0.635932
vt 0.203805 0.958463
vn -0.199961 0.959183 -0.199961
v -0.232767 1.543054 -0.868699
vt 0.187313 0.958463
vn -0.073184 0.959177 -0.273174
v -0.54307 1.581776 -0.54307
vt 0.200007 0.960793
vn -0.199961 0.959183 -0.199961
v -0.783725 1.296276 -0.209998
vt 0.209851 0.85169
vn -0.437551 -0.89152 -0.117223
v -0.9 1.357439 -0.241154
vt 0.214608 0.85537
vn -0.437551 -0.89152 -0.117223
v -0.741848 1.581776 -0.198777
vt 0.208138 0.960793
vn -0.273174 0.959177 -0.073184
v -0.8687 1.543054 -0.232767
vt 0.213327 0.958463
vn -0.273174 0.959177 -0.073184
v -0.9 1.357439 0.241155
vt 0.214608 0.85537
vn -0.437551 -0.89152 0.117223
v -0.783725 1.296276 0.209999
vt 0.209851 0.85169
vn -0.437551 -0.89152 0.117223
v -0.741848 1.581776 0.198778
vt 0.208138 0.960793
vn -0.273174 0.959177 0.073184
v -0.8687 1.543054 0.232768
vt 0.213327 0.958463
vn -0.273174 0.959177 0.073184
v -0.9 1.357439 0.241155
vt 0.214608 0.85537
vn -0.437551 -0.89152 0.117223
v -0.573727 1.296276 0.573727
vt 0.201261 0.85169
vn -0.320299 -0.891525 0.320299
v -0.783725 1.296276 0.209999
vt 0.209851 0.85169
vn -0.437551 -0.89152 0.117223
v -0.658846 1.357439 0.658846
vt 0.204743 0.85537
vn -0.320299 -0.891525 0.320299
v -0.8687 1.543054 0.232768
vt 0.213327 0.958463
vn -0.273174 0.959177 0.073184
v -0.54307 1.581776 0.543071
vt 0.200007 0.960793
vn -0.199961 0.959183 0.199961
v -0.635932 1.543054 0.635933
vt 0.203805 0.958463
vn -0.199961 0.959183 0.199961
v -0.741848 1.581776 0.198778
vt 0.208138 0.960793
vn -0.273174 0.959177 0.073184
v -0.241154 1.357439 0.9
vt 0.187656 0.85537
vn -0.117223 -0.89152 0.437551
v -0.209999 1.296276 0.783726
vt 0.186382 0.85169
vn -0.117223 -0.89152 0.437551
v -0.232767 1.543054 0.8687
vt 0.187313 0.958463
vn -0.073184 0.959177 0.273174
v -0.198778 1.581776 0.741848
vt 0.185923 0.960793
vn -0.073184 0.959177 0.273174
v 0.241154 1.357439 0.9
vt 0.167926 0.85537
vn 0.117223 -0.89152 0.437551
v 0.209999 1.296276 0.783726
vt 0.169201 0.85169
vn 0.117223 -0.89152 0.437551
v 0.232767 1.543054 0.8687
vt 0.168269 0.958463
vn 0.073184 0.959177 0.273174
v 0.198777 1.581776 0.741848
vt 0.16966 0.960793
vn 0.073184 0.959177 0.273174
v 0.573727 1.296276 0.573727
vt 0.154322 0.85169
vn 0.320299 -0.891525 0.320299
v 0.658846 1.35744 0.658846
vt 0.15084 0.85537
vn 0.320299 -0.891525 0.320299
v 0.635932 1.543054 0.635933
vt 0.151777 0.958463
vn 0.199961 0.959183 0.199961
v 0.54307 1.581776 0.543071
vt 0.155576 0.960793
vn 0.199961 0.959183 0.199961
v 0.783725 1.296276 0.209999
vt 0.145731 0.85169
vn 0.437551 -0.89152 0.117223
v 0.9 1.357439 0.241155
vt 0.140975 0.85537
vn 0.437551 -0.89152 0.117223
v 0.8687 1.543054 0.232768
vt 0.142255 0.958463
vn 0.273174 0.959177 0.073184
v 0.741848 1.581776 0.198778
vt 0.147444 0.960793
vn 0.273174 0.959177 0.073184
v 0.783725 1.296276 -0.209998
vt 0.145731 0.85169
vn 0.437551 -0.89152 -0.117223
v 0.9 1.35744 -0.241154
vt 0.140975 0.85537
vn 0.437551 -0.89152 -0.117223
v 0.8687 1.543054 -0.232767
vt 0.142255 0.958463
vn 0.273174 0.959177 -0.073184
v 0.741848 1.581776 -0.198777
vt 0.147444 0.960793
vn 0.273174 0.959177 -0.073184
v 0.783725 1.296276 -0.209998
vt 0.145731 0.85169
vn 0.437551 -0.89152 -0.117223
v 0.658846 1.35744 -0.658845
vt 0.15084 0.85537
vn 0.320299 -0.891525 -0.320299
v 0.573727 1.296276 -0.573726
vt 0.154322 0.85169
vn 0.320299 -0.891525 -0.320299
v 0.9 1.35744 -0.241154
vt 0.140975 0.85537
vn 0.437551 -0.89152 -0.117223
v 0.8687 1.543054 -0.232767
vt 0.142255 0.958463
vn 0.273174 0.959177 -0.073184
v 0.54307 1.581776 -0.54307
vt 0.155576 0.960793
vn 0.199961 0.959183 -0.199961
v 0.635932 1.543054 -0.635932
vt 0.151777 0.958463
vn 0.199961 0.959183 -0.199961
v 0.741848 1.581776 -0.198777
vt 0.147444 0.960793
vn 0.273174 0.959177 -0.073184
v 0.209999 1.296276 -0.783725
vt 0.169201 0.85169
vn 0.117223 -0.89152 -0.437551
v 0.241154 1.35744 -0.9
vt 0.167926 0.85537
vn 0.117223 -0.89152 -0.437551
v 0.198777 1.581776 -0.741847
vt 0.16966 0.960793
vn 0.073184 0.959177 -0.273174
v 0.232768 1.543054 -0.868699
vt 0.168269 0.958463
vn 0.073184 0.959177 -0.273174
v -0.232767 0.408169 -0.868699
vt 0.187313 0.798255
vn -0.073184 -0.959177 -0.273174
v -0.54307 0.369447 -0.54307
vt 0.200007 0.795925
vn -0.199961 -0.959183 -0.199961
v -0.198778 0.369447 -0.741847
vt 0.185923 0.795925
vn -0.073184 -0.959177 -0.273174
v -0.635932 0.408169 -0.635932
vt 0.203805 0.798255
vn -0.199961 -0.959183 -0.199961
v -0.209999 0.654947 -0.783725
vt 0.186382 0.905028
vn -0.117225 0.891532 -0.437526
v -0.658846 0.593784 -0.658845
vt 0.204743 0.901348
vn -0.320299 0.891525 -0.320299
v -0.241154 0.593784 -0.9
vt 0.187656 0.901348
vn -0.117225 0.891532 -0.437526
v -0.573727 0.654947 -0.573726
vt 0.201261 0.905028
vn -0.320299 0.891525 -0.320299
v -0.741848 0.369447 -0.198777
vt 0.208138 0.795925
vn -0.273174 -0.959177 -0.073184
v -0.8687 0.408169 -0.232767
vt 0.213327 0.798255
vn -0.273174 -0.959177 -0.073184
v -0.9 0.593784 -0.241154
vt 0.214608 0.901348
vn -0.437551 0.89152 -0.117223
v -0.783725 0.654947 -0.209998
vt 0.209851 0.905028
vn -0.437551 0.89152 -0.117223
v -0.8687 0.408169 0.232768
vt 0.213327 0.798255
vn -0.273174 -0.959177 0.073184
v -0.741848 0.369447 0.198778
vt 0.208138 0.795925
vn -0.273174 -0.959177 0.073184
v -0.783725 0.654947 0.209999
vt 0.209851 0.905028
vn -0.437551 0.89152 0.117223
v -0.9 0.593784 0.241155
vt 0.214608 0.901348
vn -0.437551 0.89152 0.117223
v -0.741848 0.369447 0.198778
vt 0.208138 0.795925
vn -0.273174 -0.959177 0.073184
v -0.635932 0.408169 0.635933
vt 0.203805 0.798255
vn -0.199961 -0.959183 0.199961
v -0.54307 0.369447 0.543071
vt 0.200007 0.795925
vn -0.199961 -0.959183 0.199961
v -0.8687 0.408169 0.232768
vt 0.213327 0.798255
vn -0.273174 -0.959177 0.073184
v -0.9 0.593784 0.241155
vt 0.214608 0.901348
vn -0.437551 0.89152 0.117223
v -0.573727 0.654947 0.573727
vt 0.201261 0.905028
vn -0.320299 0.891525 0.320299
v -0.658846 0.593784 0.658846
vt 0.204743 0.901348
vn -0.320299 0.891525 0.320299
v -0.783725 0.654947 0.209999
vt 0.209851 0.905028
vn -0.437551 0.89152 0.117223
v -0.198778 0.369447 0.741848
vt 0.185923 0.795925
vn -0.073184 -0.959177 0.273174
v -0.232767 0.408169 0.8687
vt 0.187313 0.798255
vn -0.073184 -0.959177 0.273174
v -0.241154 0.593784 0.9
vt 0.187656 0.901348
vn -0.117223 0.89152 0.437551
v -0.209999 0.654947 0.783726
vt 0.186382 0.905028
vn -0.117223 0.89152 0.437551
v 0.198777 0.369447 0.741848
vt 0.16966 0.795925
vn 0.073184 -0.959177 0.273174
v 0.232767 0.408169 0.8687
vt 0.168269 0.798255
vn 0.073184 -0.959177 0.273174
v 0.241154 0.593784 0.9
vt 0.167926 0.901348
vn 0.117223 0.89152 0.437551
v 0.209999 0.654947 0.783726
vt 0.169201 0.905028
vn 0.117223 0.89152 0.437551
v 0.635932 0.408169 0.635933
vt 0.151777 0.798255
vn 0.199961 -0.959183 0.199961
v 0.54307 0.369447 0.543071
vt 0.155576 0.795925
vn 0.199961 -0.959183 0.199961
v 0.658846 0.593784 0.658846
vt 0.15084 0.901348
vn 0.320299 0.891525 0.320299
v 0.573727 0.654947 0.573727
vt 0.154322 0.905028
vn 0.320299 0.891525 0.320299
v 0.741848 0.369447 0.198778
vt 0.147444 0.795925
vn 0.273174 -0.959177 0.073184
v 0.8687 0.408169 0.232768
vt 0.142255 0.798255
vn 0.273174 -0.959177 0.073184
v 0.783725 0.654947 0.209999
vt 0.145731 0.905028
vn 0.437551 0.89152 0.117223
v 0.9 0.593784 0.241155
vt 0.140975 0.901348
vn 0.437551 0.89152 0.117223
v 0.741848 0.369447 -0.198777
vt 0.147444 0.795925
vn 0.273174 -0.959177 -0.073184
v 0.8687 0.408169 -0.232767
vt 0.142255 0.798255
vn 0.273174 -0.959177 -0.073184
v 0.9 0.593784 -0.241154
vt 0.140975 0.901348
vn 0.437551 0.89152 -0.117223
v 0.783725 0.654947 -0.209998
vt 0.145731 0.905028
vn 0.437551 0.89152 -0.117223
v 0.8687 0.408169 -0.232767
vt 0.142255 0.798255
vn 0.273174 -0.959177 -0.073184
v 0.54307 0.369447 -0.54307
vt 0.155576 0.795925
vn 0.199961 -0.959183 -0.199961
v 0.741848 0.369447 -0.198777
vt 0.147444 0.795925
vn 0.273174 -0.959177 -0.073184
v 0.635932 0.408169 -0.635932
vt 0.151777 0.798255
vn 0.199961 -0.959183 -0.199961
v 0.783725 0.654947 -0.209998
vt 0.145731 0.905028
vn 0.437551 0.89152 -0.117223
v 0.658846 0.593784 -0.658845
vt 0.15084 0.901348
vn 0.320299 0.891525 -0.320299
v 0.9 0.593784 -0.241154
vt 0.140975 0.901348
vn 0.437551 0.89152 -0.117223
v 0.573727 0.654947 -0.573726
vt 0.154322 0.905028
vn 0.320299 0.891525 -0.320299
v 0.232768 0.408169 -0.868699
vt 0.168269 0.798255
vn 0.073184 -0.959177 -0.273174
v 0.198778 0.369447 -0.741847
vt 0.16966 0.795925
vn 0.073184 -0.959177 -0.273174
v 0.241154 0.593784 -0.9
vt 0.167926 0.901348
vn 0.117225 0.891532 -0.437526
v 0.209999 0.654947 -0.783725
vt 0.169201 0.905028
vn 0.117225 0.891532 -0.437526
v 0.360136 1.831951 -0.360137
vt 0.537942 0.922502
vn 0 1 0
v -0.13182 1.831951 -0.491956
vt 0.562304 0.938127
vn 0 1 0
v 0.131818 1.831951 -0.491956
vt 0.549249 0.938127
vn 0 1 0
v -0.360138 1.831951 -0.360137
vt 0.573611 0.922502
vn 0 1 0
v -0.141144 2.000001 -0.522276
vt 0.562766 0.962074
vn 0 1 0
v -0.440678 2.000001 -0.442315
vt 0.577599 0.962074
vn 0 1 0
v -0.162719 2.000001 -0.602794
vt 0.563834 0.962074
vn 0 1 0
v -0.381734 2.000001 -0.383371
vt 0.57468 0.962074
vn 0 1 0
v -0.381734 2.000001 0.375619
vt 0.57468 0.962074
vn 0 1 0
v -0.601157 2.000001 0.156603
vt 0.585547 0.962074
vn 0 1 0
v -0.520639 2.000001 0.135029
vt 0.581559 0.962074
vn 0 1 0
v -0.440678 2.000001 0.434562
vt 0.577599 0.962074
vn 0 1 0
v 0.596679 2.000001 -0.164356
vt 0.526228 0.962074
vn 0 1 0
v 0.377256 2.000001 -0.383371
vt 0.537094 0.962074
vn 0 1 0
v 0.4362 2.000001 -0.442315
vt 0.534175 0.962074
vn 0 1 0
v 0.516161 2.000001 -0.142781
vt 0.530215 0.962074
vn 0 1 0
v -0.141144 2.000001 -0.522276
vt 0.562766 0.946449
vn 0.965655 0.023744 -0.258741
v -0.164338 1.951221 -0.613315
vt 0.563915 0.944033
vn 0.965655 0.023744 -0.258741
v -0.142245 1.951221 -0.530861
vt 0.562821 0.944033
vn 0.965655 0.023744 -0.258741
v -0.162719 2.000001 -0.602794
vt 0.563834 0.946449
vn 0.965655 0.023744 -0.258741
v -0.440678 2.000001 0.434562
vt 0.577599 0.946449
vn 0.704345 0.088291 0.704345
v -0.388618 1.951221 0.388618
vt 0.575021 0.944033
vn 0.704345 0.088291 0.704345
v -0.448979 1.951221 0.448978
vt 0.57801 0.944033
vn 0.704345 0.088291 0.704345
v -0.381734 2.000001 0.375619
vt 0.57468 0.946449
vn 0.704345 0.088291 0.704345
v -0.440678 2.000001 -0.442315
vt 0.577599 0.946449
vn -0.706907 0.023744 0.706907
v -0.388618 1.951221 -0.388617
vt 0.575021 0.944033
vn -0.706907 0.023744 0.706907
v -0.448979 1.951221 -0.448977
vt 0.57801 0.944033
vn -0.706907 0.023744 0.706907
v -0.381734 2.000001 -0.383371
vt 0.57468 0.946449
vn -0.706907 0.023744 0.706907
v -0.381734 2.000001 0.375619
vt 0.57468 0.915199
vn 0.839088 -0.247509 -0.484428
v -0.520639 2.000001 0.135029
vt 0.581559 0.915199
vn 0.839088 -0.247509 -0.484428
v -0.520639 2.000001 0.135029
vt 0.581559 0.946449
vn -0.257798 -0.088293 -0.962156
v -0.613316 1.951221 0.164338
vt 0.586149 0.944033
vn -0.257798 -0.088293 -0.962156
v -0.530862 1.951221 0.142244
vt 0.582065 0.944033
vn -0.257798 -0.088293 -0.962156
v -0.601157 2.000001 0.156603
vt 0.585547 0.946449
vn -0.257798 -0.088293 -0.962156
v -0.440678 2.000001 0.434562
vt 0.577599 0.930824
vn -0.830608 0.283065 0.479547
v -0.601157 2.000001 0.156603
vt 0.585547 0.930824
vn -0.830608 0.283065 0.479547
v 0.4362 2.000001 -0.442315
vt 0.534175 0.946449
vn -0.704345 -0.088291 -0.704345
v 0.388616 1.951221 -0.388617
vt 0.536532 0.944033
vn -0.704345 -0.088291 -0.704345
v 0.448977 1.951221 -0.448977
vt 0.533542 0.944033
vn -0.704345 -0.088291 -0.704345
v 0.377256 2.000001 -0.383371
vt 0.537094 0.946449
vn -0.704345 -0.088291 -0.704345
v -0.381734 2.000001 -0.383371
vt 0.57468 0.915199
vn 0.493431 -0.161537 0.854653
v -0.141144 2.000001 -0.522276
vt 0.562766 0.915199
vn 0.493431 -0.161537 0.854653
v -0.162719 2.000001 -0.602794
vt 0.563834 0.930824
vn -0.489961 0.199293 -0.848658
v -0.440678 2.000001 -0.442315
vt 0.577599 0.930824
vn -0.489961 0.199293 -0.848658
v 0.491956 1.831951 0.13182
vt 0.531414 0.922502
vn 0 1 0
v -0.491957 1.831951 -0.131819
vt 0.580139 0.938127
vn 0 1 0
v 0.491956 1.831951 -0.131819
vt 0.531414 0.938127
vn 0 1 0
v -0.491957 1.831951 0.13182
vt 0.580139 0.922502
vn 0 1 0
v -0.000001 0.119271 0
vt 0.561033 0.806438
vn 0 -1 0
v -0.13182 0.119271 -0.491956
vt 0.562304 0.806438
vn 0 -1 0
v -0.360138 0.119271 -0.360137
vt 0.573611 0.806438
vn 0 -1 0
v -0.000001 0.119271 0
vt 0.570137 0.806438
vn 0 -1 0
v -0.491957 0.119271 -0.131819
vt 0.580139 0.806438
vn 0 -1 0
v -0.000001 0.119271 0
vt 0.575393 0.806438
vn 0 -1 0
v -0.491957 0.119271 0.13182
vt 0.580139 0.806438
vn 0 -1 0
v -0.000001 0.119271 0
vt 0.575393 0.806438
vn 0 -1 0
v -0.360138 0.119271 0.360137
vt 0.573611 0.806438
vn 0 -1 0
v -0.000001 0.119271 0
vt 0.570137 0.806438
vn 0 -1 0
v -0.360138 0.119271 0.360137
vt 0.573611 0.806438
vn 0 -1 0
v -0.13182 0.119271 0.491957
vt 0.562304 0.806438
vn 0 -1 0
v -0.000001 0.119271 0
vt 0.561033 0.806438
vn 0 -1 0
v -0.13182 0.119271 0.491957
vt 0.562304 0.806438
vn 0 -1 0
v 0.131818 0.119271 0.491957
vt 0.549249 0.806438
vn 0 -1 0
v -0.000001 0.119271 0
vt 0.55052 0.806438
vn 0 -1 0
v 0.131818 0.119271 0.491957
vt 0.549249 0.806438
vn 0 -1 0
v 0.360136 0.119271 0.360137
vt 0.537942 0.806438
vn 0 -1 0
v -0.000001 0.119271 0
vt 0.541416 0.806438
vn 0 -1 0
v 0.491956 0.119271 0.13182
vt 0.531414 0.806438
vn 0 -1 0
v -0.000001 0.119271 0
vt 0.53616 0.806438
vn 0 -1 0
v 0.491956 0.119271 -0.131819
vt 0.531414 0.806438
vn 0 -1 0
v -0.000001 0.119271 0
vt 0.53616 0.806437
vn 0 -1 0
v 0.491956 0.119271 -0.131819
vt 0.531414 0.806438
vn 0 -1 0
v 0.360136 0.119271 -0.360137
vt 0.537942 0.806438
vn 0 -1 0
v -0.000001 0.119271 0
vt 0.541416 0.806438
vn 0 -1 0
v 0.360136 0.119271 -0.360137
vt 0.537942 0.806438
vn 0 -1 0
v 0.131818 0.119271 -0.491956
vt 0.549249 0.806438
vn 0 -1 0
v -0.000001 0.119271 0
vt 0.55052 0.806437
vn 0 -1 0
v 0.131818 0.119271 -0.491956
vt 0.549249 0.806438
vn 0 -1 0
v 0.360136 1.831951 -0.360137
vt 0.537942 0.938127
vn 0 1 0
v -0.491957 1.831951 -0.131819
vt 0.580139 0.922502
vn 0 1 0
v -0.360138 1.831951 -0.360137
vt 0.573611 0.938127
vn 0 1 0
v 0.491956 1.831951 -0.131819
vt 0.531414 0.922502
vn 0 1 0
v 0.360136 1.831951 0.360137
vt 0.537942 0.922502
vn 0 1 0
v -0.491957 1.831951 0.13182
vt 0.580139 0.938127
vn 0 1 0
v 0.491956 1.831951 0.13182
vt 0.531414 0.938127
vn 0 1 0
v -0.360138 1.831951 0.360137
vt 0.573611 0.922502
vn 0 1 0
v 0.292217 1.884685 0.087653
vt 0.306779 0.836339
vn 0 1 0
v 0.140554 1.884685 0.089498
vt 0.31195 0.805089
vn 0 1 0
v 0.189175 1.884685 0.054173
vt 0.31195 0.836339
vn 0 1 0
v 0.310788 1.884685 0.14481
vt 0.306779 0.805089
vn 0 1 0
v 0.263737 1.966622 0
vt 0.308208 0.992886
vn 0 1 0
v 0.297557 1.95633 -0.104088
vt 0.306511 0.94117
vn 0.028901 0.99561 -0.089023
v 0.373182 1.95633 0
vt 0.302716 0.94117
vn 0.093601 0.99561 0
v 0.175195 1.95633 -0.06433
vt 0.312652 0.94117
vn -0.075717 0.99561 -0.055025
v 0.175195 1.95633 0.06433
vt 0.312652 0.94117
vn -0.075717 0.99561 0.055025
v 0.263737 1.966622 0
vt 0.308208 0.992886
vn 0 1 0
v 0.297557 1.95633 0.104088
vt 0.306511 0.94117
vn 0.028901 0.99561 0.089023
v 0.175195 1.95633 0.06433
vt 0.312652 0.94117
vn -0.075717 0.99561 0.055025
v 0.373182 1.95633 0
vt 0.302716 0.94117
vn 0.093601 0.99561 0
v 0.373182 1.95633 0
vt 0.302716 0.906187
vn 0.794046 -0.191507 -0.576902
v 0.292217 1.884685 -0.087652
vt 0.306779 0.87614
vn 0.794046 -0.191507 -0.576902
v 0.355901 1.884685 0
vt 0.303583 0.87614
vn 0.794046 -0.191507 -0.576902
v 0.297557 1.95633 -0.104088
vt 0.306511 0.906187
vn 0.794046 -0.191507 -0.576902
v 0.292217 1.884685 0.087653
vt 0.306779 0.87614
vn 0.794046 -0.191507 0.576902
v 0.373182 1.95633 0
vt 0.302716 0.906187
vn 0.794046 -0.191507 0.576902
v 0.355901 1.884685 0
vt 0.303583 0.87614
vn 0.794046 -0.191507 0.576902
v 0.297557 1.95633 0.104088
vt 0.306511 0.906187
vn 0.794046 -0.191507 0.576902
v 0.175195 1.95633 0.06433
vt 0.312652 0.906187
vn -0.303298 -0.191507 0.933454
v 0.292217 1.884685 0.087653
vt 0.306779 0.87614
vn -0.303298 -0.191507 0.933454
v 0.189175 1.884685 0.054173
vt 0.31195 0.87614
vn -0.303298 -0.191507 0.933454
v 0.297557 1.95633 0.104088
vt 0.306511 0.906187
vn -0.303298 -0.191507 0.933454
v 0.175195 1.95633 -0.06433
vt 0.312652 0.906187
vn -0.981491 -0.191507 0
v 0.189175 1.884685 0.054173
vt 0.31195 0.87614
vn -0.981491 -0.191507 0
v 0.189175 1.884685 -0.054172
vt 0.31195 0.87614
vn -0.981491 -0.191507 0
v 0.175195 1.95633 0.06433
vt 0.312652 0.906187
vn -0.981491 -0.191507 0
v 0.292217 1.884685 -0.087652
vt 0.306779 0.87614
vn -0.303298 -0.191507 -0.933454
v 0.175195 1.95633 -0.06433
vt 0.312652 0.906187
vn -0.303298 -0.191507 -0.933454
v 0.189175 1.884685 -0.054172
vt 0.31195 0.87614
vn -0.303298 -0.191507 -0.933454
v 0.297557 1.95633 -0.104088
vt 0.306511 0.906187
vn -0.303298 -0.191507 -0.933454
v 0.310788 1.884685 -0.144809
vt 0.306779 0.789464
vn -0.308911 -0.022981 -0.950813
v 0.142201 1.813039 -0.088299
vt 0.311248 0.766592
vn -0.308911 -0.022981 -0.950813
v 0.310159 1.813039 -0.142873
vt 0.307047 0.766592
vn -0.308911 -0.022981 -0.950813
v 0.140554 1.884685 -0.089497
vt 0.31195 0.789464
vn -0.308911 -0.022981 -0.950813
v 0.140554 1.884685 -0.089497
vt 0.31195 0.789464
vn -0.999737 -0.02295 0
v 0.142201 1.813039 0.088302
vt 0.311248 0.766592
vn -0.999737 -0.02295 0
v 0.142201 1.813039 -0.088299
vt 0.311248 0.766592
vn -0.999737 -0.02295 0
v 0.140554 1.884685 0.089498
vt 0.31195 0.789464
vn -0.999737 -0.02295 0
v 0.140554 1.884685 0.089498
vt 0.31195 0.789464
vn -0.308911 -0.02295 0.950814
v 0.310159 1.813039 0.142875
vt 0.307047 0.766592
vn -0.308911 -0.02295 0.950814
v 0.142201 1.813039 0.088302
vt 0.311248 0.766592
vn -0.308911 -0.02295 0.950814
v 0.310788 1.884685 0.14481
vt 0.306779 0.789464
vn -0.308911 -0.02295 0.950814
v 0.310788 1.884685 0.14481
vt 0.306779 0.789464
vn 0.808816 -0.02295 0.587614
v 0.413963 1.813039 0.000002
vt 0.30445 0.766592
vn 0.808816 -0.02295 0.587614
v 0.310159 1.813039 0.142875
vt 0.307047 0.766592
vn 0.808816 -0.02295 0.587614
v 0.415999 1.884685 0.000001
vt 0.303583 0.789464
vn 0.808816 -0.02295 0.587614
v 0.415999 1.884685 0.000001
vt 0.303583 0.789464
vn 0.808815 -0.022981 -0.587613
v 0.310159 1.813039 -0.142873
vt 0.307047 0.766592
vn 0.808815 -0.022981 -0.587613
v 0.413963 1.813039 0.000002
vt 0.30445 0.766592
vn 0.808815 -0.022981 -0.587613
v 0.310788 1.884685 -0.144809
vt 0.306779 0.789464
vn 0.808815 -0.022981 -0.587613
v 0.189175 1.884685 -0.054172
vt 0.31195 0.836339
vn 0 1 0
v 0.140554 1.884685 -0.089497
vt 0.31195 0.805089
vn 0 1 0
v 0.415999 1.884685 0.000001
vt 0.303583 0.805089
vn 0 1 0
v 0.292217 1.884685 -0.087652
vt 0.306779 0.836339
vn 0 1 0
v 0.310788 1.884685 -0.144809
vt 0.306779 0.805089
vn 0 1 0
v 0.355901 1.884685 0
vt 0.303583 0.836339
vn 0 1 0
v 0.140554 1.884685 -0.089497
vt 0.31195 0.805089
vn 0 1 0
v 0.189175 1.884685 -0.054172
vt 0.31195 0.836339
vn 0 1 0
v 0.415999 1.884685 0.000001
vt 0.303583 0.805089
vn 0 1 0
v 0.355901 1.884685 0
vt 0.303583 0.836339
vn 0 1 0
f 1/1/1 3/3/3 2/2/2
f 1/1/1 2/2/2 4/4/4
f 5/5/5 7/7/7 6/6/6
f 5/5/5 6/6/6 8/8/8
f 9/9/9 11/11/11 10/10/10
f 9/9/9 10/10/10 12/12/12
f 13/13/13 15/15/15 14/14/14
f 13/13/13 14/14/14 16/16/16
f 17/17/17 19/19/19 18/18/18
f 17/17/17 18/18/18 20/20/20
f 21/21/21 23/23/23 22/22/22
f 21/21/21 22/22/22 24/24/24
f 25/25/25 27/27/27 26/26/26
f 25/25/25 26/26/26 28/28/28
f 29/29/29 31/31/31 30/30/30
f 29/29/29 30/30/30 32/32/32
f 33/33/33 35/35/35 34/34/34
f 33/33/33 34/34/34 36/36/36
f 37/37/37 39/39/39 38/38/38
f 37/37/37 38/38/38 40/40/40
f 41/41/41 43/43/43 42/42/42
f 41/41/41 42/42/42 44/44/44
f 45/45/45 47/47/47 46/46/46
f 45/45/45 46/46/46 48/48/48
f 49/49/49 51/51/51 50/50/50
f 49/49/49 50/50/50 52/52/52
f 53/53/53 55/55/55 54/54/54
f 53/53/53 54/54/54 56/56/56
f 3/3/3 58/58/58 57/57/57
f 3/3/3 57/57/57 2/2/2
f 59/59/59 5/5/5 8/8/8
f 59/59/59 8/8/8 60/60/60
f 61/61/61 62/62/62 46/46/46
f 47/47/47 61/61/61 46/46/46
f 63/63/63 64/64/64 62/62/62
f 61/61/61 63/63/63 62/62/62
f 39/39/39 66/66/66 65/65/65
f 39/39/39 65/65/65 38/38/38
f 66/66/66 68/68/68 67/67/67
f 66/66/66 67/67/67 65/65/65
f 35/35/35 70/70/70 69/69/69
f 35/35/35 69/69/69 34/34/34
f 70/70/70 72/72/72 71/71/71
f 70/70/70 71/71/71 69/69/69
f 31/31/31 74/74/74 73/73/73
f 31/31/31 73/73/73 30/30/30
f 74/74/74 76/76/76 75/75/75
f 74/74/74 75/75/75 73/73/73
f 77/77/77 78/78/78 26/26/26
f 27/27/27 77/77/77 26/26/26
f 77/77/77 80/80/80 79/79/79
f 77/77/77 79/79/79 78/78/78
f 23/23/23 82/82/82 81/81/81
f 23/23/23 81/81/81 22/22/22
f 82/82/82 84/84/84 83/83/83
f 82/82/82 83/83/83 81/81/81
f 19/19/19 86/86/86 85/85/85
f 19/19/19 85/85/85 18/18/18
f 86/86/86 88/88/88 87/87/87
f 86/86/86 87/87/87 85/85/85
f 15/15/15 90/90/90 89/89/89
f 15/15/15 89/89/89 14/14/14
f 90/90/90 92/92/92 91/91/91
f 90/90/90 91/91/91 89/89/89
f 11/11/11 94/94/94 93/93/93
f 11/11/11 93/93/93 10/10/10
f 95/95/95 96/96/96 93/93/93
f 94/94/94 95/95/95 93/93/93
f 7/7/7 98/98/98 97/97/97
f 7/7/7 97/97/97 6/6/6
f 98/98/98 100/100/100 99/99/99
f 98/98/98 99/99/99 97/97/97
f 51/51/51 102/102/102 101/101/101
f 51/51/51 101/101/101 50/50/50
f 103/103/103 49/49/49 52/52/52
f 103/103/103 52/52/52 104/104/104
f 105/105/105 106/106/106 57/57/57
f 58/58/58 105/105/105 57/57/57
f 9/9/9 12/12/12 107/107/107
f 108/108/108 9/9/9 107/107/107
f 109/109/109 13/13/13 16/16/16
f 109/109/109 16/16/16 110/110/110
f 111/111/111 17/17/17 20/20/20
f 111/111/111 20/20/20 112/112/112
f 113/113/113 21/21/21 24/24/24
f 113/113/113 24/24/24 114/114/114
f 115/115/115 25/25/25 28/28/28
f 115/115/115 28/28/28 116/116/116
f 117/117/117 29/29/29 32/32/32
f 117/117/117 32/32/32 118/118/118
f 119/119/119 33/33/33 36/36/36
f 119/119/119 36/36/36 120/120/120
f 37/37/37 40/40/40 121/121/121
f 122/122/122 37/37/37 121/121/121
f 45/45/45 48/48/48 123/123/123
f 124/124/124 45/45/45 123/123/123
f 125/125/125 1/1/1 4/4/4
f 125/125/125 4/4/4 126/126/126
f 127/127/127 129/129/129 128/128/128
f 127/127/127 128/128/128 130/130/130
f 131/131/131 122/122/122 121/121/121
f 131/131/131 121/121/121 132/132/132
f 133/133/133 127/127/127 130/130/130
f 133/133/133 130/130/130 134/134/134
f 135/135/135 137/137/137 136/136/136
f 138/138/138 135/135/135 136/136/136
f 139/139/139 133/133/133 134/134/134
f 139/139/139 134/134/134 140/140/140
f 138/138/138 136/136/136 141/141/141
f 142/142/142 138/138/138 141/141/141
f 139/139/139 140/140/140 143/143/143
f 144/144/144 139/139/139 143/143/143
f 145/145/145 147/147/147 146/146/146
f 145/145/145 146/146/146 148/148/148
f 144/144/144 143/143/143 149/149/149
f 150/150/150 144/144/144 149/149/149
f 151/151/151 153/153/153 152/152/152
f 151/151/151 152/152/152 154/154/154
f 149/149/149 156/156/156 155/155/155
f 150/150/150 149/149/149 155/155/155
f 157/157/157 158/158/158 151/151/151
f 157/157/157 151/151/151 154/154/154
f 156/156/156 160/160/160 159/159/159
f 156/156/156 159/159/159 155/155/155
f 161/161/161 162/162/162 158/158/158
f 157/157/157 161/161/161 158/158/158
f 160/160/160 164/164/164 163/163/163
f 160/160/160 163/163/163 159/159/159
f 165/165/165 166/166/166 162/162/162
f 161/161/161 165/165/165 162/162/162
f 167/167/167 168/168/168 163/163/163
f 164/164/164 167/167/167 163/163/163
f 165/165/165 170/170/170 169/169/169
f 165/165/165 169/169/169 166/166/166
f 171/171/171 172/172/172 168/168/168
f 167/167/167 171/171/171 168/168/168
f 173/173/173 175/175/175 174/174/174
f 173/173/173 174/174/174 176/176/176
f 177/177/177 178/178/178 172/172/172
f 171/171/171 177/177/177 172/172/172
f 179/179/179 181/181/181 180/180/180
f 179/179/179 180/180/180 182/182/182
f 128/128/128 129/129/129 178/178/178
f 128/128/128 178/178/178 177/177/177
f 181/181/181 184/184/184 183/183/183
f 180/180/180 181/181/181 183/183/183
f 185/185/185 187/187/187 186/186/186
f 185/185/185 186/186/186 188/188/188
f 189/189/189 191/191/191 190/190/190
f 189/189/189 190/190/190 192/192/192
f 193/193/193 195/195/195 194/194/194
f 193/193/193 194/194/194 196/196/196
f 197/197/197 199/199/199 198/198/198
f 197/197/197 198/198/198 200/200/200
f 175/175/175 202/202/202 201/201/201
f 175/175/175 201/201/201 174/174/174
f 203/203/203 55/55/55 53/53/53
f 204/204/204 203/203/203 53/53/53
f 205/205/205 206/206/206 43/43/43
f 205/205/205 43/43/43 41/41/41
f 207/207/207 208/208/208 191/191/191
f 207/207/207 191/191/191 189/189/189
f 209/209/209 210/210/210 195/195/195
f 209/209/209 195/195/195 193/193/193
f 211/211/211 199/199/199 197/197/197
f 212/212/212 211/211/211 197/197/197
f 213/213/213 214/214/214 202/202/202
f 213/213/213 202/202/202 175/175/175
f 215/215/215 216/216/216 203/203/203
f 215/215/215 203/203/203 204/204/204
f 217/217/217 219/219/219 218/218/218
f 217/217/217 218/218/218 220/220/220
f 221/221/221 222/222/222 208/208/208
f 221/221/221 208/208/208 207/207/207
f 223/223/223 222/222/222 221/221/221
f 224/224/224 223/223/223 221/221/221
f 225/225/225 226/226/226 210/210/210
f 225/225/225 210/210/210 209/209/209
f 56/56/56 54/54/54 211/211/211
f 56/56/56 211/211/211 212/212/212
f 227/227/227 228/228/228 214/214/214
f 227/227/227 214/214/214 213/213/213
f 44/44/44 42/42/42 228/228/228
f 44/44/44 228/228/228 227/227/227
f 192/192/192 190/190/190 229/229/229
f 192/192/192 229/229/229 230/230/230
f 196/196/196 194/194/194 219/219/219
f 196/196/196 219/219/219 217/217/217
f 231/231/231 232/232/232 223/223/223
f 231/231/231 223/223/223 224/224/224
f 174/174/174 201/201/201 233/233/233
f 174/174/174 233/233/233 234/234/234
f 235/235/235 237/237/237 236/236/236
f 238/238/238 240/240/240 239/239/239
f 241/241/241 243/243/243 242/242/242
f 244/244/244 246/246/246 245/245/245
f 247/247/247 249/249/249 248/248/248
f 250/250/250 252/252/252 251/251/251
f 253/253/253 255/255/255 254/254/254
f 256/256/256 258/258/258 257/257/257
f 259/259/259 261/261/261 260/260/260
f 262/262/262 264/264/264 263/263/263
f 265/265/265 267/267/267 266/266/266
f 268/268/268 270/270/270 269/269/269
f 271/271/271 273/273/273 272/272/272
f 274/274/274 276/276/276 275/275/275
f 277/277/277 279/279/279 278/278/278
f 280/280/280 282/282/282 281/281/281
f 283/283/283 285/285/285 284/284/284
f 286/286/286 288/288/288 287/287/287
f 289/289/289 291/291/291 290/290/290
f 292/292/292 294/294/294 293/293/293
f 295/295/295 297/297/297 296/296/296
f 298/298/298 300/300/300 299/299/299
f 301/301/301 303/303/303 302/302/302
f 304/304/304 306/306/306 305/305/305
f 307/307/307 309/309/309 308/308/308
f 310/310/310 312/312/312 311/311/311
f 313/313/313 315/315/315 314/314/314
f 316/316/316 318/318/318 317/317/317
f 319/319/319 321/321/321 320/320/320
f 322/322/322 324/324/324 323/323/323
f 325/325/325 327/327/327 326/326/326
f 328/328/328 330/330/330 329/329/329
f 331/331/331 333/333/333 332/332/332
f 334/334/334 336/336/336 335/335/335
f 337/337/337 339/339/339 338/338/338
f 340/340/340 342/342/342 341/341/341
f 343/343/343 345/345/345 344/344/344
f 346/346/346 348/348/348 347/347/347
f 349/349/349 351/351/351 350/350/350
f 352/352/352 354/354/354 353/353/353
f 355/355/355 357/357/357 356/356/356
f 358/358/358 360/360/360 359/359/359
f 361/361/361 363/363/363 362/362/362
f 364/364/364 366/366/366 365/365/365
f 367/367/367 369/369/369 368/368/368
f 370/370/370 372/372/372 371/371/371
f 373/373/373 375/375/375 374/374/374
f 376/376/376 378/378/378 377/377/377
f 245/245/245 380/380/380 379/379/379
f 245/245/245 379/379/379 244/244/244
f 381/381/381 382/382/382 241/241/241
f 242/242/242 381/381/381 241/241/241
f 256/256/256 257/257/257 383/383/383
f 384/384/384 256/256/256 383/383/383
f 385/385/385 253/253/253 254/254/254
f 385/385/385 254/254/254 386/386/386
f 268/268/268 269/269/269 387/387/387
f 388/388/388 268/268/268 387/387/387
f 389/389/389 265/265/265 266/266/266
f 389/389/389 266/266/266 390/390/390
f 280/280/280 281/281/281 391/391/391
f 392/392/392 280/280/280 391/391/391
f 393/393/393 277/277/277 278/278/278
f 393/393/393 278/278/278 394/394/394
f 292/292/292 293/293/293 395/395/395
f 396/396/396 292/292/292 395/395/395
f 397/397/397 289/289/289 290/290/290
f 397/397/397 290/290/290 398/398/398
f 304/304/304 305/305/305 399/399/399
f 400/400/400 304/304/304 399/399/399
f 401/401/401 301/301/301 302/302/302
f 401/401/401 302/302/302 402/402/402
f 316/316/316 317/317/317 403/403/403
f 404/404/404 316/316/316 403/403/403
f 405/405/405 313/313/313 314/314/314
f 405/405/405 314/314/314 406/406/406
f 328/328/328 329/329/329 407/407/407
f 408/408/408 328/328/328 407/407/407
f 409/409/409 325/325/325 326/326/326
f 409/409/409 326/326/326 410/410/410
f 340/340/340 341/341/341 411/411/411
f 412/412/412 340/340/340 411/411/411
f 413/413/413 337/337/337 338/338/338
f 413/413/413 338/338/338 414/414/414
f 352/352/352 353/353/353 415/415/415
f 416/416/416 352/352/352 415/415/415
f 417/417/417 349/349/349 350/350/350
f 417/417/417 350/350/350 418/418/418
f 364/364/364 365/365/365 419/419/419
f 420/420/420 364/364/364 419/419/419
f 421/421/421 361/361/361 362/362/362
f 421/421/421 362/362/362 422/422/422
f 376/376/376 377/377/377 423/423/423
f 424/424/424 376/376/376 423/423/423
f 425/425/425 373/373/373 374/374/374
f 425/425/425 374/374/374 426/426/426
f 380/380/380 235/235/235 236/236/236
f 380/380/380 236/236/236 379/379/379
f 238/238/238 239/239/239 382/382/382
f 381/381/381 238/238/238 382/382/382
f 384/384/384 383/383/383 247/247/247
f 248/248/248 384/384/384 247/247/247
f 251/251/251 385/385/385 386/386/386
f 251/251/251 386/386/386 250/250/250
f 388/388/388 387/387/387 259/259/259
f 260/260/260 388/388/388 259/259/259
f 263/263/263 389/389/389 390/390/390
f 263/263/263 390/390/390 262/262/262
f 392/392/392 391/391/391 271/271/271
f 272/272/272 392/392/392 271/271/271
f 275/275/275 393/393/393 394/394/394
f 275/275/275 394/394/394 274/274/274
f 396/396/396 395/395/395 283/283/283
f 284/284/284 396/396/396 283/283/283
f 287/287/287 397/397/397 398/398/398
f 287/287/287 398/398/398 286/286/286
f 400/400/400 399/399/399 295/295/295
f 296/296/296 400/400/400 295/295/295
f 299/299/299 401/401/401 402/402/402
f 299/299/299 402/402/402 298/298/298
f 404/404/404 403/403/403 307/307/307
f 308/308/308 404/404/404 307/307/307
f 311/311/311 405/405/405 406/406/406
f 311/311/311 406/406/406 310/310/310
f 408/408/408 407/407/407 319/319/319
f 320/320/320 408/408/408 319/319/319
f 323/323/323 409/409/409 410/410/410
f 323/323/323 410/410/410 322/322/322
f 412/412/412 411/411/411 331/331/331
f 332/332/332 412/412/412 331/331/331
f 335/335/335 413/413/413 414/414/414
f 335/335/335 414/414/414 334/334/334
f 416/416/416 415/415/415 343/343/343
f 344/344/344 416/416/416 343/343/343
f 347/347/347 417/417/417 418/418/418
f 347/347/347 418/418/418 346/346/346
f 420/420/420 419/419/419 355/355/355
f 356/356/356 420/420/420 355/355/355
f 359/359/359 421/421/421 422/422/422
f 359/359/359 422/422/422 358/358/358
f 424/424/424 423/423/423 367/367/367
f 368/368/368 424/424/424 367/367/367
f 371/371/371 425/425/425 426/426/426
f 371/371/371 426/426/426 370/370/370
f 102/102/102 428/428/428 427/427/427
f 102/102/102 427/427/427 101/101/101
f 429/429/429 431/431/431 430/430/430
f 432/432/432 429/429/429 430/430/430
f 433/433/433 435/435/435 434/434/434
f 433/433/433 434/434/434 436/436/436
f 436/436/436 434/434/434 437/437/437
f 436/436/436 437/437/437 438/438/438
f 438/438/438 437/437/437 439/439/439
f 438/438/438 439/439/439 440/440/440
f 440/440/440 439/439/439 441/441/441
f 440/440/440 441/441/441 442/442/442
f 442/442/442 441/441/441 443/443/443
f 442/442/442 443/443/443 444/444/444
f 443/443/443 446/446/446 445/445/445
f 444/444/444 443/443/443 445/445/445
f 445/445/445 446/446/446 447/447/447
f 445/445/445 447/447/447 448/448/448
f 449/449/449 451/451/451 450/450/450
f 449/449/449 450/450/450 452/452/452
f 452/452/452 450/450/450 429/429/429
f 452/452/452 429/429/429 432/432/432
f 453/453/453 455/455/455 454/454/454
f 453/453/453 454/454/454 456/456/456
f 430/430/430 431/431/431 455/455/455
f 430/430/430 455/455/455 453/453/453
f 457/457/457 459/459/459 458/458/458
f 457/457/457 458/458/458 460/460/460
f 461/461/461 463/463/463 462/462/462
f 464/464/464 461/461/461 462/462/462
f 462/462/462 463/463/463 465/465/465
f 462/462/462 465/465/465 466/466/466
f 466/466/466 465/465/465 467/467/467
f 466/466/466 467/467/467 468/468/468
f 468/468/468 467/467/467 469/469/469
f 468/468/468 469/469/469 470/470/470
f 470/470/470 469/469/469 471/471/471
f 470/470/470 471/471/471 472/472/472
f 472/472/472 471/471/471 473/473/473
f 472/472/472 473/473/473 474/474/474
f 474/474/474 473/473/473 475/475/475
f 474/474/474 475/475/475 476/476/476
f 477/477/477 479/479/479 478/478/478
f 480/480/480 477/477/477 478/478/478
f 478/478/478 479/479/479 459/459/459
f 478/478/478 459/459/459 457/457/457
f 481/481/481 483/483/483 482/482/482
f 481/481/481 482/482/482 484/484/484
f 460/460/460 458/458/458 483/483/483
f 460/460/460 483/483/483 481/481/481
f 485/485/485 487/487/487 486/486/486
f 488/488/488 485/485/485 486/486/486
f 489/489/489 491/491/491 490/490/490
f 489/489/489 490/490/490 492/492/492
f 486/486/486 487/487/487 493/493/493
f 486/486/486 493/493/493 494/494/494
f 490/490/490 496/496/496 495/495/495
f 492/492/492 490/490/490 495/495/495
f 493/493/493 498/498/498 497/497/497
f 494/494/494 493/493/493 497/497/497
f 496/496/496 500/500/500 499/499/499
f 495/495/495 496/496/496 499/499/499
f 501/501/501 503/503/503 502/502/502
f 501/501/501 502/502/502 504/504/504
f 505/505/505 507/507/507 506/506/506
f 508/508/508 505/505/505 506/506/506
f 502/502/502 510/510/510 509/509/509
f 504/504/504 502/502/502 509/509/509
f 506/506/506 507/507/507 511/511/511
f 506/506/506 511/511/511 512/512/512
f 510/510/510 514/514/514 513/513/513
f 509/509/509 510/510/510 513/513/513
f 512/512/512 511/511/511 515/515/515
f 512/512/512 515/515/515 516/516/516
f 513/513/513 514/514/514 517/517/517
f 513/513/513 517/517/517 518/518/518
f 516/516/516 515/515/515 519/519/519
f 516/516/516 519/519/519 520/520/520
f 518/518/518 517/517/517 521/521/521
f 518/518/518 521/521/521 522/522/522
f 520/520/520 519/519/519 523/523/523
f 520/520/520 523/523/523 524/524/524
f 522/522/522 521/521/521 525/525/525
f 522/522/522 525/525/525 526/526/526
f 524/524/524 523/523/523 527/527/527
f 524/524/524 527/527/527 528/528/528
f 529/529/529 531/531/531 530/530/530
f 532/532/532 529/529/529 530/530/530
f 533/533/533 535/535/535 534/534/534
f 536/536/536 533/533/533 534/534/534
f 530/530/530 531/531/531 537/537/537
f 530/530/530 537/537/537 538/538/538
f 535/535/535 540/540/540 539/539/539
f 534/534/534 535/535/535 539/539/539
f 538/538/538 537/537/537 485/485/485
f 538/538/538 485/485/485 488/488/488
f 540/540/540 491/491/491 489/489/489
f 539/539/539 540/540/540 489/489/489
f 541/541/541 543/543/543 542/542/542
f 541/541/541 542/542/542 544/544/544
f 545/545/545 547/547/547 546/546/546
f 545/545/545 546/546/546 548/548/548
f 544/544/544 542/542/542 549/549/549
f 544/544/544 549/549/549 550/550/550
f 548/548/548 546/546/546 551/551/551
f 548/548/548 551/551/551 552/552/552
f 549/549/549 554/554/554 553/553/553
f 550/550/550 549/549/549 553/553/553
f 551/551/551 556/556/556 555/555/555
f 552/552/552 551/551/551 555/555/555
f 557/557/557 559/559/559 558/558/558
f 560/560/560 557/557/557 558/558/558
f 561/561/561 563/563/563 562/562/562
f 564/564/564 561/561/561 562/562/562
f 558/558/558 559/559/559 565/565/565
f 558/558/558 565/565/565 566/566/566
f 562/562/562 563/563/563 567/567/567
f 562/562/562 567/567/567 568/568/568
f 566/566/566 565/565/565 569/569/569
f 566/566/566 569/569/569 570/570/570
f 568/568/568 567/567/567 571/571/571
f 568/568/568 571/571/571 572/572/572
f 569/569/569 574/574/574 573/573/573
f 570/570/570 569/569/569 573/573/573
f 572/572/572 571/571/571 575/575/575
f 572/572/572 575/575/575 576/576/576
f 573/573/573 574/574/574 577/577/577
f 573/573/573 577/577/577 578/578/578
f 575/575/575 580/580/580 579/579/579
f 576/576/576 575/575/575 579/579/579
f 578/578/578 577/577/577 581/581/581
f 578/578/578 581/581/581 582/582/582
f 579/579/579 580/580/580 583/583/583
f 579/579/579 583/583/583 584/584/584
f 585/585/585 587/587/587 586/586/586
f 585/585/585 586/586/586 588/588/588
f 589/589/589 591/591/591 590/590/590
f 589/589/589 590/590/590 592/592/592
f 586/586/586 594/594/594 593/593/593
f 588/588/588 586/586/586 593/593/593
f 592/592/592 590/590/590 595/595/595
f 592/592/592 595/595/595 596/596/596
f 594/594/594 543/543/543 541/541/541
f 593/593/593 594/594/594 541/541/541
f 596/596/596 595/595/595 547/547/547
f 596/596/596 547/547/547 545/545/545
f 597/597/597 599/599/599 598/598/598
f 597/597/597 598/598/598 600/600/600
f 601/601/601 603/603/603 602/602/602
f 604/604/604 601/601/601 602/602/602
f 605/605/605 607/607/607 606/606/606
f 605/605/605 606/606/606 608/608/608
f 609/609/609 611/611/611 610/610/610
f 609/609/609 610/610/610 612/612/612
f 613/613/613 615/615/615 614/614/614
f 613/613/613 614/614/614 616/616/616
f 617/617/617 619/619/619 618/618/618
f 617/617/617 618/618/618 620/620/620
f 621/621/621 623/623/623 622/622/622
f 621/621/621 622/622/622 624/624/624
f 625/625/625 217/217/217 220/220/220
f 625/625/625 220/220/220 626/626/626
f 627/627/627 629/629/629 628/628/628
f 627/627/627 628/628/628 630/630/630
f 109/109/109 110/110/110 631/631/631
f 632/632/632 109/109/109 631/631/631
f 633/633/633 635/635/635 634/634/634
f 633/633/633 634/634/634 636/636/636
f 637/637/637 44/44/44 227/227/227
f 637/637/637 227/227/227 638/638/638
f 639/639/639 103/103/103 104/104/104
f 639/639/639 104/104/104 640/640/640
f 641/641/641 643/643/643 642/642/642
f 641/641/641 642/642/642 644/644/644
f 645/645/645 647/647/647 646/646/646
f 648/648/648 649/649/649 647/647/647
f 650/650/650 651/651/651 649/649/649
f 652/652/652 653/653/653 651/651/651
f 654/654/654 656/656/656 655/655/655
f 657/657/657 659/659/659 658/658/658
f 660/660/660 662/662/662 661/661/661
f 663/663/663 664/664/664 662/662/662
f 665/665/665 666/666/666 664/664/664
f 667/667/667 669/669/669 668/668/668
f 670/670/670 672/672/672 671/671/671
f 673/673/673 646/646/646 674/674/674
f 675/675/675 677/677/677 676/676/676
f 678/678/678 675/675/675 676/676/676
f 679/679/679 681/681/681 680/680/680
f 679/679/679 680/680/680 682/682/682
f 683/683/683 685/685/685 684/684/684
f 686/686/686 683/683/683 684/684/684
f 687/687/687 689/689/689 688/688/688
f 687/687/687 688/688/688 690/690/690
f 687/687/687 690/690/690 691/691/691
f 692/692/692 694/694/694 693/693/693
f 692/692/692 693/693/693 695/695/695
f 696/696/696 698/698/698 697/697/697
f 696/696/696 697/697/697 699/699/699
f 700/700/700 702/702/702 701/701/701
f 703/703/703 700/700/700 701/701/701
f 704/704/704 706/706/706 705/705/705
f 704/704/704 705/705/705 707/707/707
f 708/708/708 710/710/710 709/709/709
f 708/708/708 709/709/709 711/711/711
f 712/712/712 714/714/714 713/713/713
f 715/715/715 712/712/712 713/713/713
f 716/716/716 718/718/718 717/717/717
f 716/716/716 717/717/717 719/719/719
f 720/720/720 722/722/722 721/721/721
f 720/720/720 721/721/721 723/723/723
f 724/724/724 726/726/726 725/725/725
f 724/724/724 725/725/725 727/727/727
f 728/728/728 730/730/730 729/729/729
f 728/728/728 729/729/729 731/731/731
f 732/732/732 734/734/734 733/733/733
f 732/732/732 733/733/733 735/735/735
f 736/736/736 737/737/737 684/684/684
f 685/685/685 736/736/736 684/684/684
f 738/738/738 740/740/740 739/739/739
f 738/738/738 739/739/739 741/741/741
f 739/739/739 740/740/740 742/742/742
f 739/739/739 742/742/742 743/743/743
f 744/744/744 745/745/745 683/683/683
f 686/686/686 744/744/744 683/683/683
