mtllib column.mtl
usemtl mat0
v -0.35 1.2 -0.35
vt 0.164673 0.864329
vn -1 0 0
v -0.35 0.9 0.35
vt 0.164673 0.833433
vn -1 0 0
v -0.35 0.9 -0.35
vt 0.164673 0.833433
vn -1 0 0
v -0.35 1.2 0.35
vt 0.164673 0.864329
vn -1 0 0
v -0.35 1.2 0.35
vt 0.164673 0.879954
vn 0 0 1
v 0.35 0.9 0.35
vt 0.211016 0.849058
vn 0 0 1
v -0.35 0.9 0.35
vt 0.164673 0.849058
vn 0 0 1
v 0.35 1.2 0.35
vt 0.211016 0.879954
vn 0 0 1
v 0.35 1.2 0.35
vt 0.211016 0.864329
vn 1 0 0
v 0.35 0.9 -0.35
vt 0.211016 0.833433
vn 1 0 0
v 0.35 0.9 0.35
vt 0.211016 0.833433
vn 1 0 0
v 0.35 1.2 -0.35
vt 0.211016 0.864329
vn 1 0 0
v 0.35 1.2 -0.35
vt 0.211016 0.879954
vn 0 0 -1
v -0.35 0.9 -0.35
vt 0.164673 0.849058
vn 0 0 -1
v 0.35 0.9 -0.35
vt 0.211016 0.849058
vn 0 0 -1
v -0.35 1.2 -0.35
vt 0.164673 0.879954
vn 0 0 -1
v 0.35 1.2 0.35
vt 0.211016 0.895579
vn 0 0.868243 0.496139
v -0.35 1.2 0.35
vt 0.164673 0.895579
vn 0 0.868243 0.496139
v 0 1.4 0
vt 0.199429 0.945366
vn 0 0.868243 0.496139
v 0.35 1.2 -0.35
vt 0.211016 0.879954
vn 0.496139 0.868243 0
v 0.35 1.2 0.35
vt 0.211016 0.879954
vn 0.496139 0.868243 0
v 0 1.4 0
vt 0.199429 0.929741
vn 0.496139 0.868243 0
v -0.35 1.2 0.35
vt 0.164673 0.879954
vn -0.496139 0.868243 0
v -0.35 1.2 -0.35
vt 0.164673 0.879954
vn -0.496139 0.868243 0
v 0 1.4 0
vt 0.176258 0.929741
vn -0.496139 0.868243 0
v -0.35 1.2 -0.35
vt 0.164673 0.895579
vn 0 0.868243 -0.496139
v 0.35 1.2 -0.35
vt 0.211016 0.895579
vn 0 0.868243 -0.496139
v 0 1.4 0
vt 0.176258 0.945366
vn 0 0.868243 -0.496139
v 0.35 0.3 -0.35
vt 0.211016 0.818163
vn 0 0 -1
v -0.35 0 -0.35
vt 0.164673 0.787267
vn 0 0 -1
v 0.35 0 -0.35
vt 0.211016 0.787267
vn 0 0 -1
v -0.35 0.3 -0.35
vt 0.164673 0.818163
vn 0 0 -1
v 0.274809 0.4 -0.274809
vt 0.211016 0.833788
vn 0 0.600977 -0.799266
v -0.35 0.3 -0.35
vt 0.164673 0.833788
vn 0 0.600977 -0.799266
v 0.35 0.3 -0.35
vt 0.211016 0.833788
vn 0 0.600977 -0.799266
v -0.274809 0.4 -0.274809
vt 0.164673 0.833788
vn 0 0.600977 -0.799266
v 0.35 0.3 0.35
vt 0.211016 0.802538
vn 1 0 0
v 0.35 0 -0.35
vt 0.211016 0.771642
vn 1 0 0
v 0.35 0 0.35
vt 0.211016 0.771642
vn 1 0 0
v 0.35 0.3 -0.35
vt 0.211016 0.802538
vn 1 0 0
v 0.35 0.3 0.35
vt 0.211016 0.818163
vn 0.799266 0.600977 0
v 0.274809 0.4 -0.274809
vt 0.211016 0.818163
vn 0.799266 0.600977 0
v 0.35 0.3 -0.35
vt 0.211016 0.818163
vn 0.799266 0.600977 0
v 0.274809 0.4 0.274809
vt 0.211016 0.818163
vn 0.799266 0.600977 0
v -0.35 0.3 0.35
vt 0.164673 0.818163
vn 0 0 1
v 0.35 0 0.35
vt 0.211016 0.787267
vn 0 0 1
v -0.35 0 0.35
vt 0.164673 0.787267
vn 0 0 1
v 0.35 0.3 0.35
vt 0.211016 0.818163
vn 0 0 1
v -0.35 0.3 0.35
vt 0.164673 0.833788
vn 0 0.600977 0.799266
v 0.274809 0.4 0.274809
vt 0.211016 0.833788
vn 0 0.600977 0.799266
v 0.35 0.3 0.35
vt 0.211016 0.833788
vn 0 0.600977 0.799266
v -0.274809 0.4 0.274809
vt 0.164673 0.833788
vn 0 0.600977 0.799266
v -0.35 0.3 -0.35
vt 0.164673 0.802538
vn -1 0 0
v -0.35 0 0.35
vt 0.164673 0.771642
vn -1 0 0
v -0.35 0 -0.35
vt 0.164673 0.771642
vn -1 0 0
v -0.35 0.3 0.35
vt 0.164673 0.802538
vn -1 0 0
v -0.35 0.3 -0.35
vt 0.164673 0.818163
vn -0.799266 0.600977 0
v -0.274809 0.4 0.274809
vt 0.164673 0.818163
vn -0.799266 0.600977 0
v -0.35 0.3 0.35
vt 0.164673 0.818163
vn -0.799266 0.600977 0
v -0.274809 0.4 -0.274809
vt 0.164673 0.818163
vn -0.799266 0.600977 0
v 0.274809 0.8 -0.274809
vt 0.211016 0.849058
vn 0 0 -1
v -0.274809 0.4 -0.274809
vt 0.164673 0.818163
vn 0 0 -1
v 0.274809 0.4 -0.274809
vt 0.211016 0.818163
vn 0 0 -1
v -0.274809 0.8 -0.274809
vt 0.164673 0.849058
vn 0 0 -1
v 0.274809 0.8 0.274809
vt 0.211016 0.833433
vn 1 0 0
v 0.274809 0.4 -0.274809
vt 0.211016 0.802538
vn 1 0 0
v 0.274809 0.4 0.274809
vt 0.211016 0.802538
vn 1 0 0
v 0.274809 0.8 -0.274809
vt 0.211016 0.833433
vn 1 0 0
v -0.274809 0.8 0.274809
vt 0.164673 0.849058
vn 0 0 1
v 0.274809 0.4 0.274809
vt 0.211016 0.818163
vn 0 0 1
v -0.274809 0.4 0.274809
vt 0.164673 0.818163
vn 0 0 1
v 0.274809 0.8 0.274809
vt 0.211016 0.849058
vn 0 0 1
v -0.274809 0.4 -0.274809
vt 0.164673 0.802538
vn -1 0 0
v -0.274809 0.8 0.274809
vt 0.164673 0.833433
vn -1 0 0
v -0.274809 0.4 0.274809
vt 0.164673 0.802538
vn -1 0 0
v -0.274809 0.8 -0.274809
vt 0.164673 0.833433
vn -1 0 0
v -0.35 0.9 -0.35
vt 0.164673 0.817808
vn -0.799266 -0.600977 0
v -0.274809 0.8 0.274809
vt 0.164673 0.817808
vn -0.799266 -0.600977 0
v -0.274809 0.8 -0.274809
vt 0.164673 0.817808
vn -0.799266 -0.600977 0
v -0.35 0.9 0.35
vt 0.164673 0.817808
vn -0.799266 -0.600977 0
v -0.35 0.9 0.35
vt 0.164673 0.833433
vn 0 -0.600977 0.799266
v 0.274809 0.8 0.274809
vt 0.211016 0.833433
vn 0 -0.600977 0.799266
v -0.274809 0.8 0.274809
vt 0.164673 0.833433
vn 0 -0.600977 0.799266
v 0.35 0.9 0.35
vt 0.211016 0.833433
vn 0 -0.600977 0.799266
v 0.35 0.9 0.35
vt 0.211016 0.817808
vn 0.799266 -0.600977 0
v 0.274809 0.8 -0.274809
vt 0.211016 0.817808
vn 0.799266 -0.600977 0
v 0.274809 0.8 0.274809
vt 0.211016 0.817808
vn 0.799266 -0.600977 0
v 0.35 0.9 -0.35
vt 0.211016 0.817808
vn 0.799266 -0.600977 0
v 0.35 0.9 -0.35
vt 0.211016 0.833433
vn 0 -0.600977 -0.799266
v -0.274809 0.8 -0.274809
vt 0.164673 0.833433
vn 0 -0.600977 -0.799266
v 0.274809 0.8 -0.274809
vt 0.211016 0.833433
vn 0 -0.600977 -0.799266
v -0.35 0.9 -0.35
vt 0.164673 0.833433
vn 0 -0.600977 -0.799266
f 1/1/1 3/3/3 2/2/2
f 1/1/1 2/2/2 4/4/4
f 5/5/5 7/7/7 6/6/6
f 5/5/5 6/6/6 8/8/8
f 9/9/9 11/11/11 10/10/10
f 9/9/9 10/10/10 12/12/12
f 13/13/13 15/15/15 14/14/14
f 13/13/13 14/14/14 16/16/16
f 17/17/17 19/19/19 18/18/18
f 20/20/20 22/22/22 21/21/21
f 23/23/23 25/25/25 24/24/24
f 26/26/26 28/28/28 27/27/27
f 29/29/29 31/31/31 30/30/30
f 29/29/29 30/30/30 32/32/32
f 33/33/33 35/35/35 34/34/34
f 33/33/33 34/34/34 36/36/36
f 37/37/37 39/39/39 38/38/38
f 37/37/37 38/38/38 40/40/40
f 41/41/41 43/43/43 42/42/42
f 44/44/44 41/41/41 42/42/42
f 45/45/45 47/47/47 46/46/46
f 45/45/45 46/46/46 48/48/48
f 49/49/49 51/51/51 50/50/50
f 52/52/52 49/49/49 50/50/50
f 53/53/53 55/55/55 54/54/54
f 53/53/53 54/54/54 56/56/56
f 57/57/57 59/59/59 58/58/58
f 60/60/60 57/57/57 58/58/58
f 61/61/61 63/63/63 62/62/62
f 61/61/61 62/62/62 64/64/64
f 65/65/65 67/67/67 66/66/66
f 65/65/65 66/66/66 68/68/68
f 69/69/69 71/71/71 70/70/70
f 69/69/69 70/70/70 72/72/72
f 73/73/73 75/75/75 74/74/74
f 76/76/76 73/73/73 74/74/74
f 77/77/77 79/79/79 78/78/78
f 77/77/77 78/78/78 80/80/80
f 81/81/81 83/83/83 82/82/82
f 81/81/81 82/82/82 84/84/84
f 85/85/85 87/87/87 86/86/86
f 85/85/85 86/86/86 88/88/88
f 89/89/89 91/91/91 90/90/90
f 89/89/89 90/90/90 92/92/92
