mtllib floor.mtl
usemtl mat0
v 1.05 0.05 2
vt 0.675502 0.870536
vn 0 1 0
v 2 0.05 1.05
vt 0.633084 0.870536
vn 0 1 0
v 2 0.05 2
vt 0.633084 0.870536
vn 0 1 0
v 1.575736 0.05 1
vt 0.652027 0.870536
vn 0 1 0
v 0.424264 0.05 1
vt 0.703442 0.870536
vn 0 1 0
v 1 0.05 0.424264
vt 0.677734 0.870536
vn 0 1 0
v 1 0.05 1.575736
vt 0.677734 0.870536
vn 0 1 0
v 1 0.05 0.424264
vt 0.677734 0.854911
vn 0 0.916866 -0.399195
v 0.355364 0.02 1
vt 0.706517 0.837947
vn -0.399195 0.916866 0
v 1 0.02 0.355364
vt 0.677734 0.837947
vn 0 0.916866 -0.399195
v 0.424264 0.05 1
vt 0.703442 0.854911
vn -0.399195 0.916866 0
v 0.332843 0.05 0.95
vt 0.707522 0.901786
vn 0.179511 0.87714 0.445422
v 1 0.02 0.355364
vt 0.677734 0.869197
vn 0.44259 0.877245 0.185893
v 0.355364 0.02 1
vt 0.706517 0.869197
vn 0.185893 0.877245 0.44259
v 0.95 0.05 0.332843
vt 0.679966 0.901786
vn 0.445422 0.87714 0.179511
v 1 0.02 1.644636
vt 0.677734 0.806697
vn 0.44259 0.877245 -0.185893
v 0.332843 0.05 1.05
vt 0.707522 0.839286
vn 0.179511 0.87714 -0.445422
v 0.355364 0.02 1
vt 0.706517 0.806697
vn 0.185893 0.877245 -0.44259
v 0.95 0.05 1.667157
vt 0.679966 0.839286
vn 0.445422 0.87714 -0.179511
v 0.355364 0.02 1
vt 0.706517 0.837947
vn -0.399195 0.916866 0
v 1 0.05 1.575736
vt 0.677734 0.854911
vn 0 0.916866 0.399195
v 1 0.02 1.644636
vt 0.677734 0.837947
vn 0 0.916866 0.399195
v 0.424264 0.05 1
vt 0.703442 0.854911
vn -0.399195 0.916866 0
v 1.575736 0.05 1
vt 0.652027 0.854911
vn 0.399195 0.916866 0
v 1.644636 0.02 1
vt 0.648952 0.837947
vn 0.399195 0.916866 0
v 1.05 0.05 0.332843
vt 0.675502 0.901786
vn -0.445422 0.87714 0.179511
v 1.644636 0.02 1
vt 0.648952 0.869197
vn -0.185893 0.877245 0.44259
v 1 0.02 0.355364
vt 0.677734 0.869197
vn -0.44259 0.877245 0.185893
v 1.667157 0.05 0.95
vt 0.647947 0.901786
vn -0.179511 0.87714 0.445422
v 1.667157 0.05 1.05
vt 0.647947 0.839286
vn -0.179511 0.87714 -0.445422
v 1 0.02 1.644636
vt 0.677734 0.806697
vn -0.44259 0.877245 -0.185893
v 1.644636 0.02 1
vt 0.648952 0.806697
vn -0.185893 0.877245 -0.44259
v 1.05 0.05 1.667157
vt 0.675502 0.839286
vn -0.445422 0.87714 -0.179511
v 1.644636 0.02 1
vt 0.648952 0.837947
vn 0.399195 0.916866 0
v 1.575736 0.05 1
vt 0.652027 0.854911
vn 0.399195 0.916866 0
v 0.95 0.05 0.332843
vt 0.679966 0.886161
vn 0.445422 0.87714 0.179511
v 1 0.02 -0.355364
vt 0.677734 0.853572
vn 0.44259 0.877245 -0.185893
v 1 0.02 0.355364
vt 0.677734 0.853572
vn 0.44259 0.877245 0.185893
v 0.95 0.05 -0.332843
vt 0.679966 0.886161
vn 0.445422 0.87714 -0.179511
v -0.95 0.05 -0.332843
vt 0.675502 0.854911
vn -0.445422 0.87714 -0.179511
v -1 0.02 0.355364
vt 0.677734 0.822322
vn -0.44259 0.877245 0.185893
v -1 0.02 -0.355364
vt 0.677734 0.822322
vn -0.44259 0.877245 -0.185893
v -0.95 0.05 0.332843
vt 0.675502 0.854911
vn -0.445422 0.87714 0.179511
v -0.332843 0.05 0.95
vt 0.647947 0.901786
vn -0.179511 0.87714 0.445422
v 0.355364 0.02 1
vt 0.706517 0.869197
vn 0.185893 0.877245 0.44259
v -0.355364 0.02 1
vt 0.648952 0.869197
vn -0.185893 0.877245 0.44259
v 0.332843 0.05 0.95
vt 0.707522 0.901786
vn 0.179511 0.87714 0.445422
v -1.05 0.05 0.332843
vt 0.679966 0.886161
vn 0.445422 0.87714 0.179511
v -1 0.02 -0.355364
vt 0.677734 0.853572
vn 0.44259 0.877245 -0.185893
v -1 0.02 0.355364
vt 0.677734 0.853572
vn 0.44259 0.877245 0.185893
v -1.05 0.05 -0.332843
vt 0.679966 0.886161
vn 0.445422 0.87714 -0.179511
v 1.05 0.05 1.667157
vt 0.675502 0.854911
vn -0.445422 0.87714 -0.179511
v 1 0.02 2
vt 0.677734 0.854241
vn -0.514491 0.857496 0
v 1 0.02 1.644636
vt 0.677734 0.822322
vn -0.44259 0.877245 -0.185893
v 1.05 0.05 2
vt 0.675502 0.854241
vn -0.514491 0.857496 0
v 0.95 0.05 2
vt 0.679966 0.854241
vn 0.514491 0.857496 0
v 1 0.02 1.644636
vt 0.677734 0.853572
vn 0.44259 0.877245 -0.185893
v 1 0.02 2
vt 0.677734 0.854241
vn 0.514491 0.857496 0
v 0.95 0.05 1.667157
vt 0.679966 0.886161
vn 0.445422 0.87714 -0.179511
v 2 0.05 1.05
vt 0.633084 0.854241
vn 0 0.857496 -0.514491
v 2 0.02 1
vt 0.633084 0.854241
vn 0 0.857496 -0.514491
v 2 0.02 1
vt 0.633084 0.854241
vn 0 0.857496 0.514491
v 2 0.05 0.95
vt 0.633084 0.854241
vn 0 0.857496 0.514491
v 2 0.05 2
vt 0.633084 0.838616
vn 1 0 0
v 2 0.02 1
vt 0.633084 0.838616
vn 1 0 0
v 2 -0.1 2
vt 0.633084 0.838616
vn 1 0 0
v 2 0.05 1.05
vt 0.633084 0.838616
vn 1 0 0
v 1 0.02 2
vt 0.677734 0.838616
vn 0 0 1
v 2 0.05 2
vt 0.633084 0.838616
vn 0 0 1
v 2 -0.1 2
vt 0.633084 0.838616
vn 0 0 1
v 1.05 0.05 2
vt 0.675502 0.838616
vn 0 0 1
v -1 0.02 2
vt 0.677734 0.838616
vn 0 0 1
v -2 -0.1 2
vt 0.722385 0.838616
vn 0 0 1
v 1.667157 0.05 0.95
vt 0.647947 0.870536
vn 0 1 0
v 1.05 0.05 -0.332843
vt 0.675502 0.870536
vn 0 1 0
v 1.667157 0.05 -0.95
vt 0.647947 0.870536
vn 0 1 0
v 1.05 0.05 0.332843
vt 0.675502 0.870536
vn 0 1 0
v 1.667157 0.05 1.05
vt 0.647947 0.870536
vn 0 1 0
v 1.05 0.05 1.667157
vt 0.675502 0.870536
vn 0 1 0
v -1.05 0.05 -0.332843
vt 0.679966 0.870536
vn 0 1 0
v -1.667157 0.05 0.95
vt 0.707522 0.870536
vn 0 1 0
v -1.667157 0.05 -0.95
vt 0.707522 0.870536
vn 0 1 0
v -1.05 0.05 0.332843
vt 0.679966 0.870536
vn 0 1 0
v -2 0.05 -0.95
vt 0.722385 0.838616
vn -1 0 0
v -2 0.02 1
vt 0.722385 0.838616
vn -1 0 0
v -2 0.02 -1
vt 0.722385 0.838616
vn -1 0 0
v -2 0.05 0.95
vt 0.722385 0.838616
vn -1 0 0
v 2 0.05 0.95
vt 0.633084 0.838616
vn 1 0 0
v 2 0.02 -1
vt 0.633084 0.838616
vn 1 0 0
v 2 0.05 -0.95
vt 0.633084 0.838616
vn 1 0 0
v 2 0.05 -1.05
vt 0.633084 0.870536
vn 0 1 0
v 1.05 0.05 -2
vt 0.675502 0.870536
vn 0 1 0
v 2 0.05 -2
vt 0.633084 0.870536
vn 0 1 0
v 1.575736 0.05 -1
vt 0.652027 0.870536
vn 0 1 0
v 0.424264 0.05 -1
vt 0.703442 0.870536
vn 0 1 0
v 1 0.05 -1.575736
vt 0.677734 0.870536
vn 0 1 0
v 1 0.05 -0.424264
vt 0.677734 0.870536
vn 0 1 0
v 1 0.05 -1.575736
vt 0.677734 0.854911
vn 0 0.916866 -0.399195
v 0.355364 0.02 -1
vt 0.706517 0.837947
vn -0.399195 0.916866 0
v 1 0.02 -1.644636
vt 0.677734 0.837947
vn 0 0.916866 -0.399195
v 0.424264 0.05 -1
vt 0.703442 0.854911
vn -0.399195 0.916866 0
v 0.332843 0.05 -1.05
vt 0.707522 0.901786
vn 0.179511 0.87714 0.445422
v 1 0.02 -1.644636
vt 0.677734 0.869197
vn 0.44259 0.877245 0.185893
v 0.355364 0.02 -1
vt 0.706517 0.869197
vn 0.185893 0.877245 0.44259
v 0.95 0.05 -1.667157
vt 0.679966 0.901786
vn 0.445422 0.87714 0.179511
v 1 0.02 -0.355364
vt 0.677734 0.806697
vn 0.44259 0.877245 -0.185893
v 0.332843 0.05 -0.95
vt 0.707522 0.839286
vn 0.179511 0.87714 -0.445422
v 0.355364 0.02 -1
vt 0.706517 0.806697
vn 0.185893 0.877245 -0.44259
v 0.95 0.05 -0.332843
vt 0.679966 0.839286
vn 0.445422 0.87714 -0.179511
v 0.355364 0.02 -1
vt 0.706517 0.837947
vn -0.399195 0.916866 0
v 1 0.05 -0.424264
vt 0.677734 0.854911
vn 0 0.916866 0.399195
v 1 0.02 -0.355364
vt 0.677734 0.837947
vn 0 0.916866 0.399195
v 0.424264 0.05 -1
vt 0.703442 0.854911
vn -0.399195 0.916866 0
v 1.575736 0.05 -1
vt 0.652027 0.854911
vn 0.399195 0.916866 0
v 1.644636 0.02 -1
vt 0.648952 0.837947
vn 0.399195 0.916866 0
v 1.05 0.05 -1.667157
vt 0.675502 0.901786
vn -0.445422 0.87714 0.179511
v 1.644636 0.02 -1
vt 0.648952 0.869197
vn -0.185893 0.877245 0.44259
v 1 0.02 -1.644636
vt 0.677734 0.869197
vn -0.44259 0.877245 0.185893
v 1.667157 0.05 -1.05
vt 0.647947 0.901786
vn -0.179511 0.87714 0.445422
v 1.667157 0.05 -0.95
vt 0.647947 0.839286
vn -0.179511 0.87714 -0.445422
v 1 0.02 -0.355364
vt 0.677734 0.806697
vn -0.44259 0.877245 -0.185893
v 1.644636 0.02 -1
vt 0.648952 0.806697
vn -0.185893 0.877245 -0.44259
v 1.05 0.05 -0.332843
vt 0.675502 0.839286
vn -0.445422 0.87714 -0.179511
v 1.575736 0.05 -1
vt 0.652027 0.854911
vn 0.399195 0.916866 0
v 1.644636 0.02 -1
vt 0.648952 0.837947
vn 0.399195 0.916866 0
v 1.05 0.05 -2
vt 0.675502 0.854241
vn -0.514491 0.857496 0
v 1 0.02 -1.644636
vt 0.677734 0.822322
vn -0.44259 0.877245 0.185893
v 1 0.02 -2
vt 0.677734 0.854241
vn -0.514491 0.857496 0
v 1.05 0.05 -1.667157
vt 0.675502 0.854911
vn -0.445422 0.87714 0.179511
v 0.95 0.05 -1.667157
vt 0.679966 0.886161
vn 0.445422 0.87714 0.179511
v 1 0.02 -2
vt 0.677734 0.854241
vn 0.514491 0.857496 0
v 1 0.02 -1.644636
vt 0.677734 0.853572
vn 0.44259 0.877245 0.185893
v 0.95 0.05 -2
vt 0.679966 0.854241
vn 0.514491 0.857496 0
v -0.332843 0.05 -1.05
vt 0.647947 0.901786
vn -0.179511 0.87714 0.445422
v 0.355364 0.02 -1
vt 0.706517 0.869197
vn 0.185893 0.877245 0.44259
v -0.355364 0.02 -1
vt 0.648952 0.869197
vn -0.185893 0.877245 0.44259
v 0.332843 0.05 -1.05
vt 0.707522 0.901786
vn 0.179511 0.87714 0.445422
v 0.332843 0.05 1.05
vt 0.707522 0.839286
vn 0.179511 0.87714 -0.445422
v -0.355364 0.02 1
vt 0.648952 0.806697
vn -0.185893 0.877245 -0.44259
v 0.355364 0.02 1
vt 0.706517 0.806697
vn 0.185893 0.877245 -0.44259
v -0.332843 0.05 1.05
vt 0.647947 0.839286
vn -0.179511 0.87714 -0.445422
v 2 0.05 -0.95
vt 0.633084 0.854241
vn 0 0.857496 -0.514491
v 2 0.02 -1
vt 0.633084 0.854241
vn 0 0.857496 -0.514491
v 2 0.02 -1
vt 0.633084 0.854241
vn 0 0.857496 0.514491
v 2 0.05 -1.05
vt 0.633084 0.854241
vn 0 0.857496 0.514491
v 0.95 0.05 -1.667157
vt 0.679966 0.870536
vn 0 1 0
v -0.95 0.05 -2
vt 0.675502 0.870536
vn 0 1 0
v 0.95 0.05 -2
vt 0.679966 0.870536
vn 0 1 0
v -0.95 0.05 -1.667157
vt 0.675502 0.870536
vn 0 1 0
v 2 -0.1 -2
vt 0.633084 0.838616
vn 1 0 0
v 2 0.05 -2
vt 0.633084 0.838616
vn 0 0 -1
v 1 0.02 -2
vt 0.677734 0.838616
vn 0 0 -1
v 2 -0.1 -2
vt 0.633084 0.838616
vn 0 0 -1
v 1.05 0.05 -2
vt 0.675502 0.838616
vn 0 0 -1
v 2 0.05 -2
vt 0.633084 0.838616
vn 1 0 0
v 2 0.05 -1.05
vt 0.633084 0.838616
vn 1 0 0
v 0.332843 0.05 -1.05
vt 0.707522 0.870536
vn 0 1 0
v -0.332843 0.05 -1.05
vt 0.647947 0.870536
vn 0 1 0
v 2 0.05 0.95
vt 0.633084 0.870536
vn 0 1 0
v 2 0.05 -0.95
vt 0.633084 0.870536
vn 0 1 0
v 1.05 0.05 -1.667157
vt 0.675502 0.870536
vn 0 1 0
v 1.667157 0.05 -1.05
vt 0.647947 0.870536
vn 0 1 0
v -2 -0.1 -2
vt 0.722385 0.838616
vn 0 0 -1
v -1 0.02 -2
vt 0.677734 0.838616
vn 0 0 -1
v 0.95 0.05 -2
vt 0.679966 0.838616
vn 0 0 -1
v -0.95 0.05 -2
vt 0.675502 0.838616
vn 0 0 -1
v -0.424264 0.05 -1
vt 0.652027 0.870536
vn 0 1 0
v -1.575736 0.05 -1
vt 0.703442 0.870536
vn 0 1 0
v -1 0.05 -1.575736
vt 0.677734 0.870536
vn 0 1 0
v -1 0.05 -0.424264
vt 0.677734 0.870536
vn 0 1 0
v -1 0.05 -1.575736
vt 0.677734 0.854911
vn 0 0.916866 -0.399195
v -1.644636 0.02 -1
vt 0.706517 0.837947
vn -0.399195 0.916866 0
v -1 0.02 -1.644636
vt 0.677734 0.837947
vn 0 0.916866 -0.399195
v -1.575736 0.05 -1
vt 0.703442 0.854911
vn -0.399195 0.916866 0
v -1.667157 0.05 -1.05
vt 0.707522 0.901786
vn 0.179511 0.87714 0.445422
v -1 0.02 -1.644636
vt 0.677734 0.869197
vn 0.44259 0.877245 0.185893
v -1.644636 0.02 -1
vt 0.706517 0.869197
vn 0.185893 0.877245 0.44259
v -1.05 0.05 -1.667157
vt 0.679966 0.901786
vn 0.445422 0.87714 0.179511
v -1.05 0.05 -0.332843
vt 0.679966 0.839286
vn 0.445422 0.87714 -0.179511
v -1.644636 0.02 -1
vt 0.706517 0.806697
vn 0.185893 0.877245 -0.44259
v -1 0.02 -0.355364
vt 0.677734 0.806697
vn 0.44259 0.877245 -0.185893
v -1.667157 0.05 -0.95
vt 0.707522 0.839286
vn 0.179511 0.87714 -0.445422
v -1.575736 0.05 -1
vt 0.703442 0.854911
vn -0.399195 0.916866 0
v -1 0.02 -0.355364
vt 0.677734 0.837947
vn 0 0.916866 0.399195
v -1.644636 0.02 -1
vt 0.706517 0.837947
vn -0.399195 0.916866 0
v -1 0.05 -0.424264
vt 0.677734 0.854911
vn 0 0.916866 0.399195
v -0.424264 0.05 -1
vt 0.652027 0.854911
vn 0.399195 0.916866 0
v -0.355364 0.02 -1
vt 0.648952 0.837947
vn 0.399195 0.916866 0
v -0.95 0.05 -1.667157
vt 0.675502 0.901786
vn -0.445422 0.87714 0.179511
v -0.355364 0.02 -1
vt 0.648952 0.869197
vn -0.185893 0.877245 0.44259
v -1 0.02 -1.644636
vt 0.677734 0.869197
vn -0.44259 0.877245 0.185893
v -0.332843 0.05 -1.05
vt 0.647947 0.901786
vn -0.179511 0.87714 0.445422
v -0.332843 0.05 -0.95
vt 0.647947 0.839286
vn -0.179511 0.87714 -0.445422
v -1 0.02 -0.355364
vt 0.677734 0.806697
vn -0.44259 0.877245 -0.185893
v -0.355364 0.02 -1
vt 0.648952 0.806697
vn -0.185893 0.877245 -0.44259
v -0.95 0.05 -0.332843
vt 0.675502 0.839286
vn -0.445422 0.87714 -0.179511
v -0.355364 0.02 -1
vt 0.648952 0.837947
vn 0.399195 0.916866 0
v -0.424264 0.05 -1
vt 0.652027 0.854911
vn 0.399195 0.916866 0
v -0.95 0.05 -2
vt 0.675502 0.854241
vn -0.514491 0.857496 0
v -1 0.02 -1.644636
vt 0.677734 0.822322
vn -0.44259 0.877245 0.185893
v -1 0.02 -2
vt 0.677734 0.854241
vn -0.514491 0.857496 0
v -0.95 0.05 -1.667157
vt 0.675502 0.854911
vn -0.445422 0.87714 0.179511
v -1.05 0.05 -1.667157
vt 0.679966 0.886161
vn 0.445422 0.87714 0.179511
v -1 0.02 -2
vt 0.677734 0.854241
vn 0.514491 0.857496 0
v -1 0.02 -1.644636
vt 0.677734 0.853572
vn 0.44259 0.877245 0.185893
v -1.05 0.05 -2
vt 0.679966 0.854241
vn 0.514491 0.857496 0
v -2 0.02 -1
vt 0.722385 0.854241
vn 0 0.857496 -0.514491
v -2 0.05 -0.95
vt 0.722385 0.854241
vn 0 0.857496 -0.514491
v -2 0.05 -1.05
vt 0.722385 0.854241
vn 0 0.857496 0.514491
v -2 0.02 -1
vt 0.722385 0.854241
vn 0 0.857496 0.514491
v 0.332843 0.05 -0.95
vt 0.707522 0.839286
vn 0.179511 0.87714 -0.445422
v -0.355364 0.02 -1
vt 0.648952 0.806697
vn -0.185893 0.877245 -0.44259
v 0.355364 0.02 -1
vt 0.706517 0.806697
vn 0.185893 0.877245 -0.44259
v -0.332843 0.05 -0.95
vt 0.647947 0.839286
vn -0.179511 0.87714 -0.445422
v -1.05 0.05 -2
vt 0.679966 0.870536
vn 0 1 0
v -2 0.05 -1.05
vt 0.722385 0.870536
vn 0 1 0
v -2 0.05 -2
vt 0.722385 0.870536
vn 0 1 0
v -2 0.05 -2
vt 0.722385 0.838616
vn -1 0 0
v -2 -0.1 -2
vt 0.722385 0.838616
vn -1 0 0
v -2 0.05 -1.05
vt 0.722385 0.838616
vn -1 0 0
v 0.95 0.05 1.667157
vt 0.679966 0.870536
vn 0 1 0
v -0.332843 0.05 1.05
vt 0.647947 0.870536
vn 0 1 0
v 0.332843 0.05 1.05
vt 0.707522 0.870536
vn 0 1 0
v -0.95 0.05 1.667157
vt 0.675502 0.870536
vn 0 1 0
v -2 -0.1 2
vt 0.722385 0.838616
vn -1 0 0
v -2 0.05 -2
vt 0.722385 0.838616
vn 0 0 -1
v -1.05 0.05 -2
vt 0.679966 0.838616
vn 0 0 -1
v -1.05 0.05 -1.667157
vt 0.679966 0.870536
vn 0 1 0
v -1.667157 0.05 -1.05
vt 0.707522 0.870536
vn 0 1 0
v 0.95 0.05 2
vt 0.679966 0.870536
vn 0 1 0
v -0.95 0.05 2
vt 0.675502 0.870536
vn 0 1 0
v -2 0.05 1.05
vt 0.722385 0.870536
vn 0 1 0
v -1.05 0.05 2
vt 0.679966 0.870536
vn 0 1 0
v -2 0.05 2
vt 0.722385 0.870536
vn 0 1 0
v -0.95 0.05 2
vt 0.675502 0.838616
vn 0 0 1
v 0.95 0.05 2
vt 0.679966 0.838616
vn 0 0 1
v -0.424264 0.05 1
vt 0.652027 0.870536
vn 0 1 0
v -1.575736 0.05 1
vt 0.703442 0.870536
vn 0 1 0
v -1 0.05 0.424264
vt 0.677734 0.870536
vn 0 1 0
v -1 0.05 1.575736
vt 0.677734 0.870536
vn 0 1 0
v -1 0.05 0.424264
vt 0.677734 0.854911
vn 0 0.916866 -0.399195
v -1.644636 0.02 1
vt 0.706517 0.837947
vn -0.399195 0.916866 0
v -1 0.02 0.355364
vt 0.677734 0.837947
vn 0 0.916866 -0.399195
v -1.575736 0.05 1
vt 0.703442 0.854911
vn -0.399195 0.916866 0
v -1.667157 0.05 0.95
vt 0.707522 0.901786
vn 0.179511 0.87714 0.445422
v -1 0.02 0.355364
vt 0.677734 0.869197
vn 0.44259 0.877245 0.185893
v -1.644636 0.02 1
vt 0.706517 0.869197
vn 0.185893 0.877245 0.44259
v -1.05 0.05 0.332843
vt 0.679966 0.901786
vn 0.445422 0.87714 0.179511
v -1.05 0.05 1.667157
vt 0.679966 0.839286
vn 0.445422 0.87714 -0.179511
v -1.644636 0.02 1
vt 0.706517 0.806697
vn 0.185893 0.877245 -0.44259
v -1 0.02 1.644636
vt 0.677734 0.806697
vn 0.44259 0.877245 -0.185893
v -1.667157 0.05 1.05
vt 0.707522 0.839286
vn 0.179511 0.87714 -0.445422
v -1.575736 0.05 1
vt 0.703442 0.854911
vn -0.399195 0.916866 0
v -1 0.02 1.644636
vt 0.677734 0.837947
vn 0 0.916866 0.399195
v -1.644636 0.02 1
vt 0.706517 0.837947
vn -0.399195 0.916866 0
v -1 0.05 1.575736
vt 0.677734 0.854911
vn 0 0.916866 0.399195
v -0.424264 0.05 1
vt 0.652027 0.854911
vn 0.399195 0.916866 0
v -0.355364 0.02 1
vt 0.648952 0.837947
vn 0.399195 0.916866 0
v -0.95 0.05 0.332843
vt 0.675502 0.901786
vn -0.445422 0.87714 0.179511
v -0.355364 0.02 1
vt 0.648952 0.869197
vn -0.185893 0.877245 0.44259
v -1 0.02 0.355364
vt 0.677734 0.869197
vn -0.44259 0.877245 0.185893
v -0.332843 0.05 0.95
vt 0.647947 0.901786
vn -0.179511 0.87714 0.445422
v -0.332843 0.05 1.05
vt 0.647947 0.839286
vn -0.179511 0.87714 -0.445422
v -1 0.02 1.644636
vt 0.677734 0.806697
vn -0.44259 0.877245 -0.185893
v -0.355364 0.02 1
vt 0.648952 0.806697
vn -0.185893 0.877245 -0.44259
v -0.95 0.05 1.667157
vt 0.675502 0.839286
vn -0.445422 0.87714 -0.179511
v -0.355364 0.02 1
vt 0.648952 0.837947
vn 0.399195 0.916866 0
v -0.424264 0.05 1
vt 0.652027 0.854911
vn 0.399195 0.916866 0
v -2 0.02 1
vt 0.722385 0.854241
vn 0 0.857496 -0.514491
v -2 0.05 1.05
vt 0.722385 0.854241
vn 0 0.857496 -0.514491
v -2 0.05 0.95
vt 0.722385 0.854241
vn 0 0.857496 0.514491
v -2 0.02 1
vt 0.722385 0.854241
vn 0 0.857496 0.514491
v -0.95 0.05 1.667157
vt 0.675502 0.854911
vn -0.445422 0.87714 -0.179511
v -1 0.02 2
vt 0.677734 0.854241
vn -0.514491 0.857496 0
v -1 0.02 1.644636
vt 0.677734 0.822322
vn -0.44259 0.877245 -0.185893
v -0.95 0.05 2
vt 0.675502 0.854241
vn -0.514491 0.857496 0
v -1.05 0.05 2
vt 0.679966 0.854241
vn 0.514491 0.857496 0
v -1 0.02 1.644636
vt 0.677734 0.853572
vn 0.44259 0.877245 -0.185893
v -1 0.02 2
vt 0.677734 0.854241
vn 0.514491 0.857496 0
v -1.05 0.05 1.667157
vt 0.679966 0.886161
vn 0.445422 0.87714 -0.179511
v -2 0.05 2
vt 0.722385 0.838616
vn 0 0 1
v -1.05 0.05 2
vt 0.679966 0.838616
vn 0 0 1
v -2 0.05 -0.95
vt 0.722385 0.870536
vn 0 1 0
v -2 0.05 0.95
vt 0.722385 0.870536
vn 0 1 0
v -2 0.05 2
vt 0.722385 0.838616
vn -1 0 0
v -2 0.05 1.05
vt 0.722385 0.838616
vn -1 0 0
v -1.05 0.05 1.667157
vt 0.679966 0.870536
vn 0 1 0
v -1.667157 0.05 1.05
vt 0.707522 0.870536
vn 0 1 0
v 1.05 0.05 -0.332843
vt 0.675502 0.854911
vn -0.445422 0.87714 -0.179511
v 1 0.02 0.355364
vt 0.677734 0.822322
vn -0.44259 0.877245 0.185893
v 1 0.02 -0.355364
vt 0.677734 0.822322
vn -0.44259 0.877245 -0.185893
v 1.05 0.05 0.332843
vt 0.675502 0.854911
vn -0.445422 0.87714 0.179511
v 0 0.05 0
vt 0.68167 0.870536
vn 0 1 0
v 0.95 0.05 0.332843
vt 0.679966 0.870536
vn 0 1 0
v 0.332843 0.05 0.95
vt 0.707522 0.870536
vn 0 1 0
v 0 0.05 0
vt 0.696823 0.870536
vn 0 1 0
v 0.332843 0.05 -0.95
vt 0.707522 0.870536
vn 0 1 0
v 0.95 0.05 -0.332843
vt 0.679966 0.870536
vn 0 1 0
v 0 0.05 0
vt 0.673799 0.870536
vn 0 1 0
v -0.95 0.05 -0.332843
vt 0.675502 0.870536
vn 0 1 0
v -0.332843 0.05 -0.95
vt 0.647947 0.870536
vn 0 1 0
v 0 0.05 0
vt 0.658646 0.870536
vn 0 1 0
v -0.332843 0.05 0.95
vt 0.647947 0.870536
vn 0 1 0
v -0.95 0.05 0.332843
vt 0.675502 0.870536
vn 0 1 0
v 0 0.05 0
vt 0.696823 0.870536
vn 0 1 0
v 0.332843 0.05 0.95
vt 0.707522 0.870536
vn 0 1 0
v -0.332843 0.05 0.95
vt 0.647947 0.870536
vn 0 1 0
v 0 0.05 0
vt 0.658646 0.870536
vn 0 1 0
v -0.332843 0.05 -0.95
vt 0.647947 0.870536
vn 0 1 0
v 0.332843 0.05 -0.95
vt 0.707522 0.870536
vn 0 1 0
v 0 0.05 0
vt 0.673799 0.870536
vn 0 1 0
f 1/1/1 3/3/3 2/2/2
f 4/4/4 6/6/6 5/5/5
f 7/7/7 4/4/4 5/5/5
f 8/8/8 10/10/10 9/9/9
f 8/8/8 9/9/9 11/11/11
f 12/12/12 14/14/14 13/13/13
f 12/12/12 13/13/13 15/15/15
f 16/16/16 18/18/18 17/17/17
f 19/19/19 16/16/16 17/17/17
f 20/20/20 22/22/22 21/21/21
f 23/23/23 20/20/20 21/21/21
f 24/24/24 25/25/25 10/10/10
f 24/24/24 10/10/10 8/8/8
f 26/26/26 28/28/28 27/27/27
f 26/26/26 27/27/27 29/29/29
f 30/30/30 32/32/32 31/31/31
f 30/30/30 31/31/31 33/33/33
f 21/21/21 22/22/22 34/34/34
f 21/21/21 34/34/34 35/35/35
f 36/36/36 38/38/38 37/37/37
f 36/36/36 37/37/37 39/39/39
f 40/40/40 42/42/42 41/41/41
f 40/40/40 41/41/41 43/43/43
f 44/44/44 46/46/46 45/45/45
f 44/44/44 45/45/45 47/47/47
f 48/48/48 50/50/50 49/49/49
f 48/48/48 49/49/49 51/51/51
f 52/52/52 54/54/54 53/53/53
f 52/52/52 53/53/53 55/55/55
f 56/56/56 58/58/58 57/57/57
f 56/56/56 57/57/57 59/59/59
f 60/60/60 61/61/61 32/32/32
f 60/60/60 32/32/32 30/30/30
f 29/29/29 27/27/27 62/62/62
f 29/29/29 62/62/62 63/63/63
f 64/64/64 66/66/66 65/65/65
f 64/64/64 65/65/65 67/67/67
f 68/68/68 70/70/70 69/69/69
f 71/71/71 68/68/68 69/69/69
f 72/72/72 73/73/73 70/70/70
f 72/72/72 70/70/70 68/68/68
f 74/74/74 76/76/76 75/75/75
f 74/74/74 75/75/75 77/77/77
f 1/1/1 2/2/2 78/78/78
f 1/1/1 78/78/78 79/79/79
f 80/80/80 82/82/82 81/81/81
f 83/83/83 80/80/80 81/81/81
f 84/84/84 86/86/86 85/85/85
f 84/84/84 85/85/85 87/87/87
f 88/88/88 65/65/65 89/89/89
f 88/88/88 89/89/89 90/90/90
f 91/91/91 93/93/93 92/92/92
f 94/94/94 96/96/96 95/95/95
f 97/97/97 94/94/94 95/95/95
f 98/98/98 100/100/100 99/99/99
f 98/98/98 99/99/99 101/101/101
f 102/102/102 104/104/104 103/103/103
f 102/102/102 103/103/103 105/105/105
f 106/106/106 108/108/108 107/107/107
f 109/109/109 106/106/106 107/107/107
f 110/110/110 112/112/112 111/111/111
f 113/113/113 110/110/110 111/111/111
f 114/114/114 115/115/115 100/100/100
f 114/114/114 100/100/100 98/98/98
f 116/116/116 118/118/118 117/117/117
f 116/116/116 117/117/117 119/119/119
f 120/120/120 122/122/122 121/121/121
f 120/120/120 121/121/121 123/123/123
f 112/112/112 125/125/125 124/124/124
f 111/111/111 112/112/112 124/124/124
f 126/126/126 128/128/128 127/127/127
f 126/126/126 127/127/127 129/129/129
f 130/130/130 132/132/132 131/131/131
f 130/130/130 131/131/131 133/133/133
f 134/134/134 136/136/136 135/135/135
f 134/134/134 135/135/135 137/137/137
f 138/138/138 140/140/140 139/139/139
f 138/138/138 139/139/139 141/141/141
f 142/142/142 143/143/143 122/122/122
f 142/142/142 122/122/122 120/120/120
f 119/119/119 117/117/117 144/144/144
f 119/119/119 144/144/144 145/145/145
f 146/146/146 148/148/148 147/147/147
f 146/146/146 147/147/147 149/149/149
f 65/65/65 66/66/66 150/150/150
f 65/65/65 150/150/150 89/89/89
f 151/151/151 153/153/153 152/152/152
f 151/151/151 152/152/152 154/154/154
f 89/89/89 150/150/150 155/155/155
f 156/156/156 89/89/89 155/155/155
f 157/157/157 146/146/146 149/149/149
f 157/157/157 149/149/149 158/158/158
f 159/159/159 160/160/160 76/76/76
f 159/159/159 76/76/76 74/74/74
f 91/91/91 92/92/92 161/161/161
f 91/91/91 161/161/161 162/162/162
f 152/152/152 153/153/153 163/163/163
f 152/152/152 163/163/163 164/164/164
f 165/165/165 152/152/152 164/164/164
f 165/165/165 164/164/164 166/166/166
f 167/167/167 169/169/169 168/168/168
f 170/170/170 167/167/167 168/168/168
f 171/171/171 173/173/173 172/172/172
f 171/171/171 172/172/172 174/174/174
f 175/175/175 177/177/177 176/176/176
f 175/175/175 176/176/176 178/178/178
f 179/179/179 181/181/181 180/180/180
f 179/179/179 180/180/180 182/182/182
f 183/183/183 185/185/185 184/184/184
f 183/183/183 184/184/184 186/186/186
f 187/187/187 188/188/188 173/173/173
f 187/187/187 173/173/173 171/171/171
f 189/189/189 191/191/191 190/190/190
f 189/189/189 190/190/190 192/192/192
f 193/193/193 195/195/195 194/194/194
f 193/193/193 194/194/194 196/196/196
f 186/186/186 184/184/184 197/197/197
f 186/186/186 197/197/197 198/198/198
f 199/199/199 201/201/201 200/200/200
f 199/199/199 200/200/200 202/202/202
f 203/203/203 205/205/205 204/204/204
f 203/203/203 204/204/204 206/206/206
f 182/182/182 180/180/180 207/207/207
f 182/182/182 207/207/207 208/208/208
f 209/209/209 210/210/210 177/177/177
f 209/209/209 177/177/177 175/175/175
f 211/211/211 213/213/213 212/212/212
f 211/211/211 212/212/212 214/214/214
f 215/215/215 217/217/217 216/216/216
f 218/218/218 219/219/219 86/86/86
f 218/218/218 86/86/86 220/220/220
f 221/221/221 223/223/223 222/222/222
f 221/221/221 222/222/222 224/224/224
f 86/86/86 219/219/219 225/225/225
f 86/86/86 225/225/225 85/85/85
f 164/164/164 163/163/163 226/226/226
f 227/227/227 164/164/164 226/226/226
f 228/228/228 215/215/215 216/216/216
f 229/229/229 228/228/228 216/216/216
f 230/230/230 221/221/221 224/224/224
f 230/230/230 224/224/224 231/231/231
f 232/232/232 234/234/234 233/233/233
f 235/235/235 72/72/72 68/68/68
f 235/235/235 68/68/68 236/236/236
f 237/237/237 239/239/239 238/238/238
f 240/240/240 237/237/237 238/238/238
f 241/241/241 243/243/243 242/242/242
f 241/241/241 242/242/242 244/244/244
f 245/245/245 247/247/247 246/246/246
f 245/245/245 246/246/246 248/248/248
f 249/249/249 251/251/251 250/250/250
f 249/249/249 250/250/250 252/252/252
f 253/253/253 255/255/255 254/254/254
f 253/253/253 254/254/254 256/256/256
f 257/257/257 258/258/258 243/243/243
f 257/257/257 243/243/243 241/241/241
f 259/259/259 261/261/261 260/260/260
f 259/259/259 260/260/260 262/262/262
f 263/263/263 265/265/265 264/264/264
f 263/263/263 264/264/264 266/266/266
f 256/256/256 254/254/254 267/267/267
f 256/256/256 267/267/267 268/268/268
f 252/252/252 250/250/250 269/269/269
f 252/252/252 269/269/269 270/270/270
f 271/271/271 272/272/272 247/247/247
f 271/271/271 247/247/247 245/245/245
f 273/273/273 275/275/275 274/274/274
f 273/273/273 274/274/274 276/276/276
f 277/277/277 279/279/279 278/278/278
f 277/277/277 278/278/278 280/280/280
f 281/281/281 73/73/73 72/72/72
f 281/281/281 72/72/72 282/282/282
f 81/81/81 82/82/82 283/283/283
f 81/81/81 283/283/283 284/284/284
f 85/85/85 225/225/225 285/285/285
f 286/286/286 85/85/85 285/285/285
f 287/287/287 288/288/288 232/232/232
f 287/287/287 232/232/232 233/233/233
f 289/289/289 291/291/291 290/290/290
f 289/289/289 290/290/290 292/292/292
f 293/293/293 295/295/295 294/294/294
f 296/296/296 298/298/298 297/297/297
f 299/299/299 301/301/301 300/300/300
f 302/302/302 304/304/304 303/303/303
f 293/293/293 294/294/294 298/298/298
f 305/305/305 307/307/307 306/306/306
f 308/308/308 310/310/310 309/309/309
f 311/311/311 300/300/300 304/304/304
