mtllib pillar.mtl
usemtl mat0
v 0.276316 1.75 -0.552632
vt 0.193812 0.863501
vn 0 0 -1
v -0.276316 0.5 -0.552632
vt 0.202207 0.84851
vn 0 0 -1
v 0.276316 0.5 -0.552632
vt 0.193812 0.84851
vn 0 0 -1
v -0.276316 1.75 -0.552632
vt 0.202207 0.863501
vn 0 0 -1
v -0.276316 3.2 0.552632
vt 0.202207 0.880891
vn 0 0 1
v 0.276316 1.95 0.552632
vt 0.193812 0.8659
vn 0 0 1
v -0.276316 1.95 0.552632
vt 0.202207 0.8659
vn 0 0 1
v 0.276316 3.2 0.552632
vt 0.193812 0.880891
vn 0 0 1
v 0.276316 3.2 -0.552632
vt 0.193812 0.880891
vn 0 0 -1
v -0.276316 1.95 -0.552632
vt 0.202207 0.8659
vn 0 0 -1
v 0.276316 1.95 -0.552632
vt 0.193812 0.8659
vn 0 0 -1
v -0.276316 3.2 -0.552632
vt 0.202207 0.880891
vn 0 0 -1
v -0.33214 1.85 0.496807
vt 0.203055 0.880325
vn 0 0.487427 0.873164
v 0.276316 1.75 0.552632
vt 0.193812 0.879126
vn 0 0.487427 0.873164
v -0.276316 1.75 0.552632
vt 0.202207 0.879126
vn 0 0.487427 0.873164
v 0.33214 1.85 0.496807
vt 0.192964 0.880325
vn 0 0.487427 0.873164
v -0.276316 1.95 0.552632
vt 0.202207 0.83465
vn 0 -0.487427 0.873164
v 0.33214 1.85 0.496807
vt 0.192964 0.83345
vn 0 -0.487427 0.873164
v -0.33214 1.85 0.496807
vt 0.203055 0.83345
vn 0 -0.487427 0.873164
v 0.276316 1.95 0.552632
vt 0.193812 0.83465
vn 0 -0.487427 0.873164
v 0.276316 1.95 -0.552632
vt 0.193812 0.83465
vn 0 -0.487427 -0.873164
v -0.33214 1.85 -0.496807
vt 0.203055 0.83345
vn 0 -0.487427 -0.873164
v 0.33214 1.85 -0.496807
vt 0.192964 0.83345
vn 0 -0.487427 -0.873164
v -0.276316 1.95 -0.552632
vt 0.202207 0.83465
vn 0 -0.487427 -0.873164
v 0.33214 1.85 -0.496807
vt 0.192964 0.880325
vn 0 0.487427 -0.873164
v -0.276316 1.75 -0.552632
vt 0.202207 0.879126
vn 0 0.487427 -0.873164
v 0.276316 1.75 -0.552632
vt 0.193812 0.879126
vn 0 0.487427 -0.873164
v -0.33214 1.85 -0.496807
vt 0.203055 0.880325
vn 0 0.487427 -0.873164
v -0.276316 1.75 0.552632
vt 0.202207 0.863501
vn 0 0 1
v 0.276316 0.5 0.552632
vt 0.193812 0.84851
vn 0 0 1
v -0.276316 0.5 0.552632
vt 0.202207 0.84851
vn 0 0 1
v 0.276316 1.75 0.552632
vt 0.193812 0.863501
vn 0 0 1
v -0.55262 1.95 -0.276328
vt 0.206404 0.83465
vn -0.873164 -0.487427 0
v -0.496795 1.85 0.332128
vt 0.205556 0.83345
vn -0.873164 -0.487427 0
v -0.496795 1.85 -0.332152
vt 0.205556 0.83345
vn -0.873164 -0.487427 0
v -0.55262 1.95 0.276304
vt 0.206404 0.83465
vn -0.873164 -0.487427 0
v 0.552644 1.95 0.276304
vt 0.189615 0.83465
vn 0.873164 -0.487427 0
v 0.496819 1.85 -0.332152
vt 0.190462 0.83345
vn 0.873164 -0.487427 0
v 0.496819 1.85 0.332128
vt 0.190462 0.83345
vn 0.873164 -0.487427 0
v 0.552644 1.95 -0.276328
vt 0.189615 0.83465
vn 0.873164 -0.487427 0
v -0.55262 3.2 -0.276328
vt 0.206404 0.880891
vn -1 0 0
v -0.55262 1.95 0.276304
vt 0.206404 0.8659
vn -1 0 0
v -0.55262 1.95 -0.276328
vt 0.206404 0.8659
vn -1 0 0
v -0.55262 3.2 0.276304
vt 0.206404 0.880891
vn -1 0 0
v 0.552644 3.2 0.276304
vt 0.189615 0.880891
vn 1 0 0
v 0.552644 1.95 -0.276328
vt 0.189615 0.8659
vn 1 0 0
v 0.552644 1.95 0.276304
vt 0.189615 0.8659
vn 1 0 0
v 0.552644 3.2 -0.276328
vt 0.189615 0.880891
vn 1 0 0
v 0.496819 1.85 0.332128
vt 0.190462 0.880325
vn 0.873164 0.487427 0
v 0.552644 1.75 -0.276328
vt 0.189615 0.879126
vn 0.873164 0.487427 0
v 0.552644 1.75 0.276304
vt 0.189615 0.879126
vn 0.873164 0.487427 0
v 0.496819 1.85 -0.332152
vt 0.190462 0.880325
vn 0.873164 0.487427 0
v -0.55262 1.75 -0.276328
vt 0.206404 0.863501
vn -1 0 0
v -0.55262 0.5 0.276304
vt 0.206404 0.84851
vn -1 0 0
v -0.55262 0.5 -0.276328
vt 0.206404 0.84851
vn -1 0 0
v -0.55262 1.75 0.276304
vt 0.206404 0.863501
vn -1 0 0
v -0.496795 1.85 -0.332152
vt 0.205556 0.880325
vn -0.873164 0.487427 0
v -0.55262 1.75 0.276304
vt 0.206404 0.879126
vn -0.873164 0.487427 0
v -0.55262 1.75 -0.276328
vt 0.206404 0.879126
vn -0.873164 0.487427 0
v -0.496795 1.85 0.332128
vt 0.205556 0.880325
vn -0.873164 0.487427 0
v 0.552644 1.75 0.276304
vt 0.189615 0.863501
vn 1 0 0
v 0.552644 0.5 -0.276328
vt 0.189615 0.84851
vn 1 0 0
v 0.552644 0.5 0.276304
vt 0.189615 0.84851
vn 1 0 0
v 0.552644 1.75 -0.276328
vt 0.189615 0.863501
vn 1 0 0
v 0.276316 1.75 0.552632
vt 0.193812 0.847876
vn 0.707107 0 0.707107
v 0.552644 0.5 0.276304
vt 0.189615 0.832885
vn 0.707107 0 0.707107
v 0.276316 0.5 0.552632
vt 0.193812 0.832885
vn 0.707107 0 0.707107
v 0.552644 1.75 0.276304
vt 0.189615 0.847876
vn 0.707107 0 0.707107
v 0.33214 1.85 0.496807
vt 0.192964 0.849075
vn 0.707107 0 0.707107
v 0.496819 1.85 0.332128
vt 0.190462 0.849075
vn 0.707107 0 0.707107
v 0.276316 1.95 0.552632
vt 0.193812 0.850275
vn 0.707107 0 0.707107
v 0.552644 1.95 0.276304
vt 0.189615 0.850275
vn 0.707107 0 0.707107
v 0.276316 3.2 0.552632
vt 0.193812 0.865266
vn 0.707107 0 0.707107
v 0.552644 3.2 0.276304
vt 0.189615 0.865266
vn 0.707107 0 0.707107
v -0.55262 0.5 0.276304
vt 0.206404 0.832885
vn -0.707137 0 0.707076
v -0.276316 1.75 0.552632
vt 0.202207 0.847876
vn -0.707137 0 0.707076
v -0.276316 0.5 0.552632
vt 0.202207 0.832885
vn -0.707137 0 0.707076
v -0.55262 1.75 0.276304
vt 0.206404 0.847876
vn -0.707137 0 0.707076
v -0.496795 1.85 0.332128
vt 0.205556 0.849075
vn -0.707153 0 0.707061
v -0.33214 1.85 0.496807
vt 0.203055 0.849075
vn -0.707153 0 0.707061
v -0.55262 1.95 0.276304
vt 0.206404 0.850275
vn -0.707137 0 0.707076
v -0.276316 1.95 0.552632
vt 0.202207 0.850275
vn -0.707137 0 0.707076
v -0.55262 3.2 0.276304
vt 0.206404 0.865266
vn -0.707137 0 0.707076
v -0.276316 3.2 0.552632
vt 0.202207 0.865266
vn -0.707137 0 0.707076
v -0.276316 1.75 -0.552632
vt 0.202207 0.847876
vn -0.707107 0 -0.707107
v -0.55262 0.5 -0.276328
vt 0.206404 0.832885
vn -0.707107 0 -0.707107
v -0.276316 0.5 -0.552632
vt 0.202207 0.832885
vn -0.707107 0 -0.707107
v -0.55262 1.75 -0.276328
vt 0.206404 0.847876
vn -0.707107 0 -0.707107
v -0.33214 1.85 -0.496807
vt 0.203055 0.849075
vn -0.707107 0 -0.707107
v -0.496795 1.85 -0.332152
vt 0.205556 0.849075
vn -0.707107 0 -0.707107
v -0.276316 1.95 -0.552632
vt 0.202207 0.850275
vn -0.707107 0 -0.707107
v -0.55262 1.95 -0.276328
vt 0.206404 0.850275
vn -0.707107 0 -0.707107
v -0.276316 3.2 -0.552632
vt 0.202207 0.865266
vn -0.707107 0 -0.707107
v -0.55262 3.2 -0.276328
vt 0.206404 0.865266
vn -0.707107 0 -0.707107
v 0.552644 0.5 -0.276328
vt 0.189615 0.832885
vn 0.707076 0 -0.707137
v 0.276316 1.75 -0.552632
vt 0.193812 0.847876
vn 0.707076 0 -0.707137
v 0.276316 0.5 -0.552632
vt 0.193812 0.832885
vn 0.707076 0 -0.707137
v 0.552644 1.75 -0.276328
vt 0.189615 0.847876
vn 0.707076 0 -0.707137
v 0.496819 1.85 -0.332152
vt 0.190462 0.849075
vn 0.707061 0 -0.707153
v 0.33214 1.85 -0.496807
vt 0.192964 0.849075
vn 0.707061 0 -0.707153
v 0.552644 1.95 -0.276328
vt 0.189615 0.850275
vn 0.707076 0 -0.707137
v 0.276316 1.95 -0.552632
vt 0.193812 0.850275
vn 0.707076 0 -0.707137
v 0.552644 3.2 -0.276328
vt 0.189615 0.865266
vn 0.707076 0 -0.707137
v 0.276316 3.2 -0.552632
vt 0.193812 0.865266
vn 0.707076 0 -0.707137
v 0.750012 4 -0.276328
vt 0.017394 0.884413
vn 0.707092 0 -0.707122
v 0.276316 3.45 -0.75
vt 0.018684 0.866689
vn 0.707092 0 -0.707122
v 0.750012 3.45 -0.276328
vt 0.017394 0.866689
vn 0.707092 0 -0.707122
v 0.276316 4 -0.75
vt 0.018684 0.884413
vn 0.707092 0 -0.707122
v 0.276316 0.5 -0.552632
vt 0.018684 0.954968
vn 0 0.619631 -0.784893
v -0.276316 0.25 -0.75
vt 0.02019 0.946911
vn 0 0.619631 -0.784893
v 0.276316 0.25 -0.75
vt 0.018684 0.946911
vn 0 0.619631 -0.784893
v -0.276316 0.5 -0.552632
vt 0.02019 0.954968
vn 0 0.619631 -0.784893
v -0.276316 0.25 0.75
vt 0.02019 0.884411
vn 0 0 1
v 0.276316 0 0.75
vt 0.018684 0.876354
vn 0 0 1
v -0.276316 0 0.75
vt 0.02019 0.876354
vn 0 0 1
v 0.276316 0.25 0.75
vt 0.018684 0.884411
vn 0 0 1
v 0.276316 4 -0.75
vt 0.018684 0.884413
vn 0 0 -1
v -0.276316 3.45 -0.75
vt 0.02019 0.866689
vn 0 0 -1
v 0.276316 3.45 -0.75
vt 0.018684 0.866689
vn 0 0 -1
v -0.276316 4 -0.75
vt 0.02019 0.884413
vn 0 0 -1
v -0.276316 0.5 0.552632
vt 0.02019 0.954968
vn 0 0.619631 0.784893
v 0.276316 0.25 0.75
vt 0.018684 0.946911
vn 0 0.619631 0.784893
v -0.276316 0.25 0.75
vt 0.02019 0.946911
vn 0 0.619631 0.784893
v 0.276316 0.5 0.552632
vt 0.018684 0.954968
vn 0 0.619631 0.784893
v 0.276316 3.45 -0.75
vt 0.018684 0.804189
vn 0 -0.619631 -0.784893
v -0.276316 3.2 -0.552632
vt 0.02019 0.796132
vn 0 -0.619631 -0.784893
v 0.276316 3.2 -0.552632
vt 0.018684 0.796132
vn 0 -0.619631 -0.784893
v -0.276316 3.45 -0.75
vt 0.02019 0.804189
vn 0 -0.619631 -0.784893
v -0.276316 4 0.75
vt 0.02019 0.884413
vn 0 0 1
v 0.276316 3.45 0.75
vt 0.018684 0.866689
vn 0 0 1
v -0.276316 3.45 0.75
vt 0.02019 0.866689
vn 0 0 1
v 0.276316 4 0.75
vt 0.018684 0.884413
vn 0 0 1
v -0.276316 3.45 0.75
vt 0.02019 0.804189
vn 0 -0.619631 0.784893
v 0.276316 3.2 0.552632
vt 0.018684 0.796132
vn 0 -0.619631 0.784893
v -0.276316 3.2 0.552632
vt 0.02019 0.796132
vn 0 -0.619631 0.784893
v 0.276316 3.45 0.75
vt 0.018684 0.804189
vn 0 -0.619631 0.784893
v 0.276316 0.25 -0.75
vt 0.018684 0.884411
vn 0 0 -1
v -0.276316 0 -0.75
vt 0.02019 0.876354
vn 0 0 -1
v 0.276316 0 -0.75
vt 0.018684 0.876354
vn 0 0 -1
v -0.276316 0.25 -0.75
vt 0.02019 0.884411
vn 0 0 -1
v 0.750012 0 -0.276328
vt 0.017394 0.876354
vn 0.707092 0 -0.707122
v 0.276316 0.25 -0.75
vt 0.018684 0.884411
vn 0.707092 0 -0.707122
v 0.276316 0 -0.75
vt 0.018684 0.876354
vn 0.707092 0 -0.707122
v 0.750012 0.25 -0.276328
vt 0.017394 0.884411
vn 0.707092 0 -0.707122
v 0.750012 0.25 0.276304
vt 0.017394 0.884411
vn 1 0 0
v 0.750012 0 -0.276328
vt 0.017394 0.876354
vn 1 0 0
v 0.750012 0 0.276304
vt 0.017394 0.876354
vn 1 0 0
v 0.750012 0.25 -0.276328
vt 0.017394 0.884411
vn 1 0 0
v -0.55262 0.5 -0.276328
vt 0.020942 0.954968
vn -0.784893 0.619631 0
v -0.749988 0.25 0.276304
vt 0.02148 0.946911
vn -0.784893 0.619631 0
v -0.749988 0.25 -0.276328
vt 0.02148 0.946911
vn -0.784893 0.619631 0
v -0.55262 0.5 0.276304
vt 0.020942 0.954968
vn -0.784893 0.619631 0
v -0.749988 4 -0.276328
vt 0.02148 0.884413
vn -1 0 0
v -0.749988 3.45 0.276304
vt 0.02148 0.866689
vn -1 0 0
v -0.749988 3.45 -0.276328
vt 0.02148 0.866689
vn -1 0 0
v -0.749988 4 0.276304
vt 0.02148 0.884413
vn -1 0 0
v 0.276316 0.25 0.75
vt 0.018684 0.884411
vn 0.707107 0 0.707107
v 0.750012 0 0.276304
vt 0.017394 0.876354
vn 0.707107 0 0.707107
v 0.276316 0 0.75
vt 0.018684 0.876354
vn 0.707107 0 0.707107
v 0.750012 0.25 0.276304
vt 0.017394 0.884411
vn 0.707107 0 0.707107
v -0.749988 0 0.276304
vt 0.02148 0.876354
vn -0.707122 0 0.707092
v -0.276316 0.25 0.75
vt 0.02019 0.884411
vn -0.707122 0 0.707092
v -0.276316 0 0.75
vt 0.02019 0.876354
vn -0.707122 0 0.707092
v -0.749988 0.25 0.276304
vt 0.02148 0.884411
vn -0.707122 0 0.707092
v 0.276316 3.45 0.75
vt 0.018684 0.866689
vn 0.707107 0 0.707107
v 0.750012 4 0.276304
vt 0.017394 0.884413
vn 0.707107 0 0.707107
v 0.750012 3.45 0.276304
vt 0.017394 0.866689
vn 0.707107 0 0.707107
v 0.276316 4 0.75
vt 0.018684 0.884413
vn 0.707107 0 0.707107
v 0.750012 3.45 0.276304
vt 0.017394 0.804189
vn 0.784893 -0.619631 0
v 0.552644 3.2 -0.276328
vt 0.017932 0.796132
vn 0.784893 -0.619631 0
v 0.552644 3.2 0.276304
vt 0.017932 0.796132
vn 0.784893 -0.619631 0
v 0.750012 3.45 -0.276328
vt 0.017394 0.804189
vn 0.784893 -0.619631 0
v -0.749988 3.45 -0.276328
vt 0.02148 0.804189
vn -0.784893 -0.619631 0
v -0.55262 3.2 0.276304
vt 0.020942 0.796132
vn -0.784893 -0.619631 0
v -0.55262 3.2 -0.276328
vt 0.020942 0.796132
vn -0.784893 -0.619631 0
v -0.749988 3.45 0.276304
vt 0.02148 0.804189
vn -0.784893 -0.619631 0
v 0.750012 0.25 0.276304
vt 0.017394 0.946911
vn 0.784893 0.619631 0
v 0.552644 0.5 -0.276328
vt 0.017932 0.954968
vn 0.784893 0.619631 0
v 0.750012 0.25 -0.276328
vt 0.017394 0.946911
vn 0.784893 0.619631 0
v 0.552644 0.5 0.276304
vt 0.017932 0.954968
vn 0.784893 0.619631 0
v -0.276316 0.25 -0.75
vt 0.02019 0.884411
vn -0.707107 0 -0.707107
v -0.749988 0 -0.276328
vt 0.02148 0.876354
vn -0.707107 0 -0.707107
v -0.276316 0 -0.75
vt 0.02019 0.876354
vn -0.707107 0 -0.707107
v -0.749988 0.25 -0.276328
vt 0.02148 0.884411
vn -0.707107 0 -0.707107
v 0.750012 4 0.276304
vt 0.017394 0.884413
vn 1 0 0
v 0.750012 3.45 -0.276328
vt 0.017394 0.866689
vn 1 0 0
v 0.750012 3.45 0.276304
vt 0.017394 0.866689
vn 1 0 0
v 0.750012 4 -0.276328
vt 0.017394 0.884413
vn 1 0 0
v -0.749988 0.25 -0.276328
vt 0.02148 0.884411
vn -1 0 0
v -0.749988 0 0.276304
vt 0.02148 0.876354
vn -1 0 0
v -0.749988 0 -0.276328
vt 0.02148 0.876354
vn -1 0 0
v -0.749988 0.25 0.276304
vt 0.02148 0.884411
vn -1 0 0
v -0.276316 3.45 -0.75
vt 0.02019 0.866689
vn -0.707107 0 -0.707107
v -0.749988 4 -0.276328
vt 0.02148 0.884413
vn -0.707107 0 -0.707107
v -0.749988 3.45 -0.276328
vt 0.02148 0.866689
vn -0.707107 0 -0.707107
v -0.276316 4 -0.75
vt 0.02019 0.884413
vn -0.707107 0 -0.707107
v -0.749988 4 0.276304
vt 0.02148 0.884413
vn -0.707122 0 0.707092
v -0.276316 3.45 0.75
vt 0.02019 0.866689
vn -0.707122 0 0.707092
v -0.749988 3.45 0.276304
vt 0.02148 0.866689
vn -0.707122 0 0.707092
v -0.276316 4 0.75
vt 0.02019 0.884413
vn -0.707122 0 0.707092
v 0.276316 0.5 0.552632
vt 0.018684 0.954968
vn 0.617418 0.487433 0.617418
v 0.750012 0.25 0.276304
vt 0.017394 0.946911
vn 0.617418 0.487433 0.617418
v 0.276316 0.25 0.75
vt 0.018684 0.946911
vn 0.617418 0.487433 0.617418
v 0.552644 0.5 0.276304
vt 0.017932 0.954968
vn 0.617418 0.487433 0.617418
v 0.276316 3.2 0.552632
vt 0.018684 0.796132
vn 0.617418 -0.487433 0.617418
v 0.750012 3.45 0.276304
vt 0.017394 0.804189
vn 0.617418 -0.487433 0.617418
v 0.552644 3.2 0.276304
vt 0.017932 0.796132
vn 0.617418 -0.487433 0.617418
v 0.276316 3.45 0.75
vt 0.018684 0.804189
vn 0.617418 -0.487433 0.617418
v -0.55262 0.5 0.276304
vt 0.020942 0.954968
vn -0.617436 0.487424 0.617406
v -0.276316 0.25 0.75
vt 0.02019 0.946911
vn -0.617436 0.487424 0.617406
v -0.749988 0.25 0.276304
vt 0.02148 0.946911
vn -0.617436 0.487424 0.617406
v -0.276316 0.5 0.552632
vt 0.02019 0.954968
vn -0.617436 0.487424 0.617406
v -0.749988 3.45 0.276304
vt 0.02148 0.804189
vn -0.617436 -0.487424 0.617406
v -0.276316 3.2 0.552632
vt 0.02019 0.796132
vn -0.617436 -0.487424 0.617406
v -0.55262 3.2 0.276304
vt 0.020942 0.796132
vn -0.617436 -0.487424 0.617406
v -0.276316 3.45 0.75
vt 0.02019 0.804189
vn -0.617436 -0.487424 0.617406
v -0.276316 0.5 -0.552632
vt 0.02019 0.954968
vn -0.617418 0.487433 -0.617418
v -0.749988 0.25 -0.276328
vt 0.02148 0.946911
vn -0.617418 0.487433 -0.617418
v -0.276316 0.25 -0.75
vt 0.02019 0.946911
vn -0.617418 0.487433 -0.617418
v -0.55262 0.5 -0.276328
vt 0.020942 0.954968
vn -0.617418 0.487433 -0.617418
v -0.276316 3.2 -0.552632
vt 0.02019 0.796132
vn -0.617418 -0.487433 -0.617418
v -0.749988 3.45 -0.276328
vt 0.02148 0.804189
vn -0.617418 -0.487433 -0.617418
v -0.55262 3.2 -0.276328
vt 0.020942 0.796132
vn -0.617418 -0.487433 -0.617418
v -0.276316 3.45 -0.75
vt 0.02019 0.804189
vn -0.617418 -0.487433 -0.617418
v 0.750012 0.25 -0.276328
vt 0.017394 0.946911
vn 0.617406 0.487424 -0.617436
v 0.276316 0.5 -0.552632
vt 0.018684 0.954968
vn 0.617406 0.487424 -0.617436
v 0.276316 0.25 -0.75
vt 0.018684 0.946911
vn 0.617406 0.487424 -0.617436
v 0.552644 0.5 -0.276328
vt 0.017932 0.954968
vn 0.617406 0.487424 -0.617436
v 0.552644 3.2 -0.276328
vt 0.017932 0.796132
vn 0.617406 -0.487424 -0.617436
v 0.276316 3.45 -0.75
vt 0.018684 0.804189
vn 0.617406 -0.487424 -0.617436
v 0.276316 3.2 -0.552632
vt 0.018684 0.796132
vn 0.617406 -0.487424 -0.617436
v 0.750012 3.45 -0.276328
vt 0.017394 0.804189
vn 0.617406 -0.487424 -0.617436
v 0.000007 4 -0.000005
vt 0.019437 0.993788
vn 0 1 0
v -0.276316 4 -0.75
vt 0.02019 0.993788
vn 0 1 0
v 0.276316 4 -0.75
vt 0.018684 0.993788
vn 0 1 0
v 0.276316 4 0.75
vt 0.018684 0.993788
vn 0 1 0
v -0.276316 4 0.75
vt 0.02019 0.993788
vn 0 1 0
v -0.749988 4 0.276304
vt 0.02148 0.993788
vn 0 1 0
v -0.749988 4 -0.276328
vt 0.02148 0.993788
vn 0 1 0
v 0.750012 4 -0.276328
vt 0.017394 0.993788
vn 0 1 0
v 0.750012 4 0.276304
vt 0.017394 0.993788
vn 0 1 0
f 1/1/1 3/3/3 2/2/2
f 1/1/1 2/2/2 4/4/4
f 5/5/5 7/7/7 6/6/6
f 5/5/5 6/6/6 8/8/8
f 9/9/9 11/11/11 10/10/10
f 9/9/9 10/10/10 12/12/12
f 13/13/13 15/15/15 14/14/14
f 13/13/13 14/14/14 16/16/16
f 17/17/17 19/19/19 18/18/18
f 17/17/17 18/18/18 20/20/20
f 21/21/21 23/23/23 22/22/22
f 21/21/21 22/22/22 24/24/24
f 25/25/25 27/27/27 26/26/26
f 25/25/25 26/26/26 28/28/28
f 29/29/29 31/31/31 30/30/30
f 29/29/29 30/30/30 32/32/32
f 33/33/33 35/35/35 34/34/34
f 33/33/33 34/34/34 36/36/36
f 37/37/37 39/39/39 38/38/38
f 37/37/37 38/38/38 40/40/40
f 41/41/41 43/43/43 42/42/42
f 41/41/41 42/42/42 44/44/44
f 45/45/45 47/47/47 46/46/46
f 45/45/45 46/46/46 48/48/48
f 49/49/49 51/51/51 50/50/50
f 49/49/49 50/50/50 52/52/52
f 53/53/53 55/55/55 54/54/54
f 53/53/53 54/54/54 56/56/56
f 57/57/57 59/59/59 58/58/58
f 57/57/57 58/58/58 60/60/60
f 61/61/61 63/63/63 62/62/62
f 61/61/61 62/62/62 64/64/64
f 65/65/65 67/67/67 66/66/66
f 65/65/65 66/66/66 68/68/68
f 69/69/69 65/65/65 68/68/68
f 69/69/69 68/68/68 70/70/70
f 71/71/71 69/69/69 70/70/70
f 71/71/71 70/70/70 72/72/72
f 73/73/73 71/71/71 72/72/72
f 73/73/73 72/72/72 74/74/74
f 75/75/75 77/77/77 76/76/76
f 78/78/78 75/75/75 76/76/76
f 79/79/79 78/78/78 76/76/76
f 79/79/79 76/76/76 80/80/80
f 81/81/81 79/79/79 80/80/80
f 81/81/81 80/80/80 82/82/82
f 83/83/83 81/81/81 82/82/82
f 83/83/83 82/82/82 84/84/84
f 85/85/85 87/87/87 86/86/86
f 85/85/85 86/86/86 88/88/88
f 89/89/89 85/85/85 88/88/88
f 89/89/89 88/88/88 90/90/90
f 91/91/91 89/89/89 90/90/90
f 91/91/91 90/90/90 92/92/92
f 93/93/93 91/91/91 92/92/92
f 93/93/93 92/92/92 94/94/94
f 95/95/95 97/97/97 96/96/96
f 98/98/98 95/95/95 96/96/96
f 99/99/99 98/98/98 96/96/96
f 99/99/99 96/96/96 100/100/100
f 101/101/101 99/99/99 100/100/100
f 101/101/101 100/100/100 102/102/102
f 103/103/103 101/101/101 102/102/102
f 103/103/103 102/102/102 104/104/104
f 105/105/105 107/107/107 106/106/106
f 105/105/105 106/106/106 108/108/108
f 109/109/109 111/111/111 110/110/110
f 109/109/109 110/110/110 112/112/112
f 113/113/113 115/115/115 114/114/114
f 113/113/113 114/114/114 116/116/116
f 117/117/117 119/119/119 118/118/118
f 117/117/117 118/118/118 120/120/120
f 121/121/121 123/123/123 122/122/122
f 121/121/121 122/122/122 124/124/124
f 125/125/125 127/127/127 126/126/126
f 125/125/125 126/126/126 128/128/128
f 129/129/129 131/131/131 130/130/130
f 129/129/129 130/130/130 132/132/132
f 133/133/133 135/135/135 134/134/134
f 133/133/133 134/134/134 136/136/136
f 137/137/137 139/139/139 138/138/138
f 137/137/137 138/138/138 140/140/140
f 141/141/141 143/143/143 142/142/142
f 144/144/144 141/141/141 142/142/142
f 145/145/145 147/147/147 146/146/146
f 145/145/145 146/146/146 148/148/148
f 149/149/149 151/151/151 150/150/150
f 149/149/149 150/150/150 152/152/152
f 153/153/153 155/155/155 154/154/154
f 153/153/153 154/154/154 156/156/156
f 157/157/157 159/159/159 158/158/158
f 157/157/157 158/158/158 160/160/160
f 161/161/161 163/163/163 162/162/162
f 164/164/164 161/161/161 162/162/162
f 165/165/165 167/167/167 166/166/166
f 168/168/168 165/165/165 166/166/166
f 169/169/169 171/171/171 170/170/170
f 169/169/169 170/170/170 172/172/172
f 173/173/173 175/175/175 174/174/174
f 173/173/173 174/174/174 176/176/176
f 177/177/177 179/179/179 178/178/178
f 180/180/180 177/177/177 178/178/178
f 181/181/181 183/183/183 182/182/182
f 181/181/181 182/182/182 184/184/184
f 185/185/185 187/187/187 186/186/186
f 185/185/185 186/186/186 188/188/188
f 189/189/189 191/191/191 190/190/190
f 189/189/189 190/190/190 192/192/192
f 193/193/193 195/195/195 194/194/194
f 196/196/196 193/193/193 194/194/194
f 197/197/197 199/199/199 198/198/198
f 197/197/197 198/198/198 200/200/200
f 201/201/201 203/203/203 202/202/202
f 201/201/201 202/202/202 204/204/204
f 205/205/205 207/207/207 206/206/206
f 208/208/208 205/205/205 206/206/206
f 209/209/209 211/211/211 210/210/210
f 209/209/209 210/210/210 212/212/212
f 213/213/213 215/215/215 214/214/214
f 213/213/213 214/214/214 216/216/216
f 217/217/217 219/219/219 218/218/218
f 217/217/217 218/218/218 220/220/220
f 221/221/221 223/223/223 222/222/222
f 224/224/224 221/221/221 222/222/222
f 225/225/225 227/227/227 226/226/226
f 228/228/228 225/225/225 226/226/226
f 229/229/229 231/231/231 230/230/230
f 232/232/232 229/229/229 230/230/230
f 233/233/233 235/235/235 234/234/234
f 233/233/233 237/237/237 236/236/236
f 233/233/233 239/239/239 238/238/238
f 233/233/233 241/241/241 240/240/240
f 233/233/233 236/236/236 241/241/241
f 233/233/233 234/234/234 239/239/239
f 233/233/233 238/238/238 237/237/237
f 233/233/233 240/240/240 235/235/235
