mtllib wall.mtl
usemtl mat0
v -2 3.2 0.25
vt 0.195982 0.880891
vn 0 0 1
v 2 0.5 0.25
vt 0.148012 0.84851
vn 0 0 1
v -2 0.5 0.25
vt 0.195982 0.84851
vn 0 0 1
v 2 3.2 0.25
vt 0.148012 0.880891
vn 0 0 1
v 2 3.2 -0.25
vt 0.148012 0.880891
vn 0 0 -1
v -2 0.5 -0.25
vt 0.195982 0.84851
vn 0 0 -1
v 2 0.5 -0.25
vt 0.148012 0.84851
vn 0 0 -1
v -2 3.2 -0.25
vt 0.195982 0.880891
vn 0 0 -1
v -2 3.2 -0.25
vt 0.195982 0.880891
vn -1 0 0
v -2 0.5 0.25
vt 0.195982 0.84851
vn -1 0 0
v -2 0.5 -0.25
vt 0.195982 0.84851
vn -1 0 0
v -2 3.2 0.25
vt 0.195982 0.880891
vn -1 0 0
v 2 3.2 0.25
vt 0.148012 0.880891
vn 1 0 0
v 2 0.5 -0.25
vt 0.148012 0.84851
vn 1 0 0
v 2 0.5 0.25
vt 0.148012 0.84851
vn 1 0 0
v 2 3.2 -0.25
vt 0.148012 0.880891
vn 1 0 0
v -0.9 0.25 0.5
vt 0.061381 0.884411
vn 0 0 1
v 0.9 0 0.5
vt 0.057511 0.876354
vn 0 0 1
v -0.9 0 0.5
vt 0.061381 0.876354
vn 0 0 1
v 0.9 0.25 0.5
vt 0.057511 0.884411
vn 0 0 1
v -1 0.320711 0.429289
vt 0.061596 0.94919
vn 0 0.707107 0.707107
v 0.9 0.25 0.5
vt 0.057511 0.946911
vn 0 0.707107 0.707107
v -0.9 0.25 0.5
vt 0.061381 0.946911
vn 0 0.707107 0.707107
v 1 0.320711 0.429289
vt 0.057295 0.94919
vn 0 0.707107 0.707107
v 1 0.320711 -0.429289
vt 0.057295 0.94919
vn 0 0.707107 -0.707107
v -0.9 0.25 -0.5
vt 0.061381 0.946911
vn 0 0.707107 -0.707107
v 0.9 0.25 -0.5
vt 0.057511 0.946911
vn 0 0.707107 -0.707107
v -1 0.320711 -0.429289
vt 0.061596 0.94919
vn 0 0.707107 -0.707107
v 0.9 0.25 -0.5
vt 0.057511 0.884411
vn 0 0 -1
v -0.9 0 -0.5
vt 0.061381 0.876354
vn 0 0 -1
v 0.9 0 -0.5
vt 0.057511 0.876354
vn 0 0 -1
v -0.9 0.25 -0.5
vt 0.061381 0.884411
vn 0 0 -1
v 2 0.25 -0.5
vt 0.055145 0.884411
vn 0 0 -1
v 1.1 0 -0.5
vt 0.05708 0.876354
vn 0 0 -1
v 2 0 -0.5
vt 0.055145 0.876354
vn 0 0 -1
v 1.1 0.25 -0.5
vt 0.05708 0.884411
vn 0 0 -1
v 1.1 0.25 0.5
vt 0.05708 0.884411
vn 0 0 1
v 2 0 0.5
vt 0.055145 0.876354
vn 0 0 1
v 1.1 0 0.5
vt 0.05708 0.876354
vn 0 0 1
v 2 0.25 0.5
vt 0.055145 0.884411
vn 0 0 1
v 1.1 0.25 0.5
vt 0.05708 0.946911
vn 0 0.707107 0.707107
v 2 0.5 0.25
vt 0.055145 0.954968
vn 0 0.707107 0.707107
v 2 0.25 0.5
vt 0.055145 0.946911
vn 0 0.707107 0.707107
v -2 0.25 0.5
vt 0.063746 0.884411
vn 0 0 1
v -1.1 0 0.5
vt 0.061811 0.876354
vn 0 0 1
v -2 0 0.5
vt 0.063746 0.876354
vn 0 0 1
v -1.1 0.25 0.5
vt 0.061811 0.884411
vn 0 0 1
v -1.1 0.25 -0.5
vt 0.061811 0.946911
vn 0 0.707107 -0.707107
v -2 0.5 -0.25
vt 0.063746 0.954968
vn 0 0.707107 -0.707107
v -2 0.25 -0.5
vt 0.063746 0.946911
vn 0 0.707107 -0.707107
v 1 0.320711 -0.429289
vt 0.057295 0.88669
vn 0.577352 0 -0.816496
v 0.9 0 -0.5
vt 0.057511 0.876354
vn 0.577352 0 -0.816496
v 1 0 -0.429289
vt 0.057295 0.876354
vn 0.577352 0 -0.816496
v 0.9 0.25 -0.5
vt 0.057511 0.884411
vn 0.577352 0 -0.816496
v 1.1 0.25 -0.5
vt 0.05708 0.884411
vn -0.577352 0 -0.816496
v 1 0 -0.429289
vt 0.057295 0.876354
vn -0.577352 0 -0.816496
v 1.1 0 -0.5
vt 0.05708 0.876354
vn -0.577352 0 -0.816496
v 1 0.320711 -0.429289
vt 0.057295 0.88669
vn -0.577352 0 -0.816496
v -1 0.320711 -0.429289
vt 0.061596 0.88669
vn 0.577352 0 -0.816496
v -1.1 0 -0.5
vt 0.061811 0.876354
vn 0.577352 0 -0.816496
v -1 0 -0.429289
vt 0.061596 0.876354
vn 0.577352 0 -0.816496
v -1.1 0.25 -0.5
vt 0.061811 0.884411
vn 0.577352 0 -0.816496
v -0.9 0.25 -0.5
vt 0.061381 0.884411
vn -0.577352 0 -0.816496
v -1 0 -0.429289
vt 0.061596 0.876354
vn -0.577352 0 -0.816496
v -0.9 0 -0.5
vt 0.061381 0.876354
vn -0.577352 0 -0.816496
v -1 0.320711 -0.429289
vt 0.061596 0.88669
vn -0.577352 0 -0.816496
v -1 0.320711 0.429289
vt 0.061596 0.88669
vn -0.577352 0 0.816496
v -0.9 0 0.5
vt 0.061381 0.876354
vn -0.577352 0 0.816496
v -1 0 0.429289
vt 0.061596 0.876354
vn -0.577352 0 0.816496
v -0.9 0.25 0.5
vt 0.061381 0.884411
vn -0.577352 0 0.816496
v -1.1 0.25 0.5
vt 0.061811 0.884411
vn 0.577352 0 0.816496
v -1 0 0.429289
vt 0.061596 0.876354
vn 0.577352 0 0.816496
v -1.1 0 0.5
vt 0.061811 0.876354
vn 0.577352 0 0.816496
v -1 0.320711 0.429289
vt 0.061596 0.88669
vn 0.577352 0 0.816496
v 1 0.320711 0.429289
vt 0.057295 0.88669
vn -0.577352 0 0.816496
v 1.1 0 0.5
vt 0.05708 0.876354
vn -0.577352 0 0.816496
v 1 0 0.429289
vt 0.057295 0.876354
vn -0.577352 0 0.816496
v 1.1 0.25 0.5
vt 0.05708 0.884411
vn -0.577352 0 0.816496
v 0.9 0.25 0.5
vt 0.057511 0.884411
vn 0.577352 0 0.816496
v 1 0 0.429289
vt 0.057295 0.876354
vn 0.577352 0 0.816496
v 0.9 0 0.5
vt 0.057511 0.876354
vn 0.577352 0 0.816496
v 1 0.320711 0.429289
vt 0.057295 0.88669
vn 0.577352 0 0.816496
v -1.1 0.25 -0.5
vt 0.061811 0.884411
vn 0 0 -1
v -2 0 -0.5
vt 0.063746 0.876354
vn 0 0 -1
v -1.1 0 -0.5
vt 0.061811 0.876354
vn 0 0 -1
v -2 0.25 -0.5
vt 0.063746 0.884411
vn 0 0 -1
v -2 0.5 0.25
vt 0.063746 0.954968
vn 0 0.707107 0.707107
v -1.1 0.25 0.5
vt 0.061811 0.946911
vn 0 0.707107 0.707107
v -2 0.25 0.5
vt 0.063746 0.946911
vn 0 0.707107 0.707107
v 2 0.5 -0.25
vt 0.055145 0.954968
vn 0 0.707107 -0.707107
v 1.1 0.25 -0.5
vt 0.05708 0.946911
vn 0 0.707107 -0.707107
v 2 0.25 -0.5
vt 0.055145 0.946911
vn 0 0.707107 -0.707107
v -2 0.5 -0.25
vt 0.063746 0.954968
vn -1 0 0
v -2 0.25 0.5
vt 0.063746 0.946911
vn -1 0 0
v -2 0.25 -0.5
vt 0.063746 0.946911
vn -1 0 0
v -2 0.5 0.25
vt 0.063746 0.954968
vn -1 0 0
v -2 0.25 -0.5
vt 0.063746 0.884411
vn -1 0 0
v -2 0 0.5
vt 0.063746 0.876354
vn -1 0 0
v -2 0 -0.5
vt 0.063746 0.876354
vn -1 0 0
v -2 0.25 0.5
vt 0.063746 0.884411
vn -1 0 0
v 2 0.5 0.25
vt 0.055145 0.954968
vn 1 0 0
v 2 0.25 -0.5
vt 0.055145 0.946911
vn 1 0 0
v 2 0.25 0.5
vt 0.055145 0.946911
vn 1 0 0
v 2 0.5 -0.25
vt 0.055145 0.954968
vn 1 0 0
v 2 0.25 0.5
vt 0.055145 0.884411
vn 1 0 0
v 2 0 -0.5
vt 0.055145 0.876354
vn 1 0 0
v 2 0 0.5
vt 0.055145 0.876354
vn 1 0 0
v 2 0.25 -0.5
vt 0.055145 0.884411
vn 1 0 0
v 0.506446 2.649919 0.329804
vt 0.206849 0.888066
vn 0 0 1
v 0.989473 2.445192 0.329804
vt 0.142984 0.840435
vn 0 0 1
v 0.506446 2.445192 0.329804
vt 0.206849 0.840435
vn 0 0 1
v 0.989473 2.649919 0.329804
vt 0.142984 0.888066
vn 0 0 1
v 0.989473 2.649919 0.329804
vt 0.142984 0.872441
vn 0.595927 0.595927 0.538276
v 1.039387 2.454244 0.238803
vt 0.136384 0.826824
vn 0.84939 -0.296894 0.436338
v 0.989473 2.445192 0.329804
vt 0.142984 0.82481
vn 0.595927 -0.595927 0.538276
v 1.039387 2.640867 0.238803
vt 0.136384 0.870426
vn 0.84939 0.296894 0.436338
v 0.506446 2.445192 0.329804
vt 0.208695 0.820584
vn -0.595927 -0.595927 0.538276
v 0.980421 2.395278 0.238803
vt 0.146025 0.813984
vn 0.296894 -0.84939 0.436338
v 0.515498 2.395278 0.238803
vt 0.207497 0.813984
vn -0.296894 -0.84939 0.436338
v 0.989473 2.445192 0.329804
vt 0.144829 0.820584
vn 0.595927 -0.595927 0.538276
v 0.456531 2.454244 0.238803
vt 0.213449 0.858074
vn -0.84939 -0.296894 0.436338
v 0.506446 2.649919 0.329804
vt 0.206849 0.903691
vn -0.595927 0.595927 0.538276
v 0.506446 2.445192 0.329804
vt 0.206849 0.85606
vn -0.595927 -0.595927 0.538276
v 0.456531 2.640867 0.238803
vt 0.213449 0.901676
vn -0.84939 0.296894 0.436338
v 0.515498 2.699834 0.238803
vt 0.205652 0.914466
vn -0.296894 0.84939 0.436338
v 0.989473 2.649919 0.329804
vt 0.142984 0.907866
vn 0.595927 0.595927 0.538276
v 0.506446 2.649919 0.329804
vt 0.206849 0.907866
vn -0.595927 0.595927 0.538276
v 0.980421 2.699834 0.238803
vt 0.14418 0.914466
vn 0.296894 0.84939 0.436338
v 0.980421 2.395278 0.238803
vt 0.146025 0.798359
vn 0.296894 -0.84939 0.436338
v 0.989473 2.445192 0.329804
vt 0.144829 0.804959
vn 0.595927 -0.595927 0.538276
v 1.039387 2.454244 0.238803
vt 0.13823 0.806156
vn 0.84939 -0.296894 0.436338
v 0.989473 2.649919 0.329804
vt 0.142984 0.892241
vn 0.595927 0.595927 0.538276
v 0.980421 2.699834 0.238803
vt 0.14418 0.898841
vn 0.296894 0.84939 0.436338
v 1.039387 2.640867 0.238803
vt 0.136384 0.891044
vn 0.84939 0.296894 0.436338
v 0.456531 2.454244 0.238803
vt 0.215294 0.837406
vn -0.84939 -0.296894 0.436338
v 0.506446 2.445192 0.329804
vt 0.208695 0.836209
vn -0.595927 -0.595927 0.538276
v 0.515498 2.395278 0.238803
vt 0.207497 0.829609
vn -0.296894 -0.84939 0.436338
v 0.506446 2.649919 0.329804
vt 0.206849 0.923491
vn -0.595927 0.595927 0.538276
v 0.456531 2.640867 0.238803
vt 0.213449 0.922294
vn -0.84939 0.296894 0.436338
v 0.515498 2.699834 0.238803
vt 0.205652 0.930091
vn -0.296894 0.84939 0.436338
v -0.669971 2.413594 0.329805
vt 0.152222 0.860868
vn -0.447626 0.447626 0.77412
v -0.743297 2.340269 0.329805
vt 0.161917 0.825367
vn -0.447626 0.447626 0.77412
v -0.745839 2.448836 0.265554
vt 0.162253 0.849527
vn -0.447626 0.447626 0.77412
v -1.080862 2.413594 0.329805
vt 0.206549 0.92345
vn -0.595927 0.595927 0.538276
v -1.130776 2.404542 0.238804
vt 0.213149 0.922253
vn -0.849378 0.29689 0.436363
v -1.07181 2.463509 0.238804
vt 0.205353 0.93005
vn -0.296894 0.84939 0.436338
v -1.130776 2.21792 0.238804
vt 0.213149 0.858005
vn -0.849378 -0.29689 0.436363
v -1.080862 2.413594 0.329805
vt 0.206549 0.903622
vn -0.595927 0.595927 0.538276
v -1.080862 2.208868 0.329805
vt 0.206549 0.855991
vn -0.595927 -0.595927 0.538276
v -1.130776 2.404542 0.238804
vt 0.213149 0.901607
vn -0.849378 0.29689 0.436363
v -0.597835 2.413594 0.329805
vt 0.142684 0.872372
vn 0.595927 0.595927 0.538276
v -0.54792 2.21792 0.238804
vt 0.136084 0.826755
vn 0.84939 -0.296894 0.436338
v -0.597835 2.208868 0.329805
vt 0.142684 0.824741
vn 0.595927 -0.595927 0.538276
v -0.54792 2.404542 0.238804
vt 0.136084 0.870357
vn 0.84939 0.296894 0.436338
v -0.597835 2.413594 0.329805
vt 0.142684 0.8922
vn 0.595927 0.595927 0.538276
v -0.606887 2.463509 0.238804
vt 0.143883 0.8988
vn 0.296894 0.84939 0.436338
v -0.54792 2.404542 0.238804
vt 0.136084 0.891003
vn 0.84939 0.296894 0.436338
v -1.07181 2.158953 0.238804
vt 0.207199 0.829568
vn -0.296894 -0.84939 0.436338
v -1.130776 2.21792 0.238804
vt 0.214994 0.837365
vn -0.849378 -0.29689 0.436363
v -1.080862 2.208868 0.329805
vt 0.208395 0.836168
vn -0.595927 -0.595927 0.538276
v -0.54792 2.21792 0.238804
vt 0.13793 0.806115
vn 0.84939 -0.296894 0.436338
v -0.606887 2.158953 0.238804
vt 0.145729 0.798318
vn 0.296894 -0.84939 0.436338
v -0.597835 2.208868 0.329805
vt 0.144529 0.804918
vn 0.595927 -0.595927 0.538276
v -1.080862 2.208868 0.329805
vt 0.206549 0.840366
vn 0 0 1
v -0.743297 2.340269 0.329805
vt 0.161917 0.852495
vn 0 0 1
v -0.597835 2.208868 0.329805
vt 0.142684 0.840366
vn 0 0 1
v -1.080862 2.413594 0.329805
vt 0.206549 0.887997
vn 0 0 1
v -0.816622 2.413594 0.329805
vt 0.171612 0.887997
vn 0 0 1
v -0.745839 2.448836 0.265554
vt 0.162253 0.893301
vn 0 0.876782 0.480889
v -0.746897 2.463509 0.238804
vt 0.162392 0.914425
vn 0 0.876782 0.480889
v -0.606887 2.463509 0.238804
vt 0.143883 0.914425
vn 0.296894 0.84939 0.436338
v -1.07181 2.463509 0.238804
vt 0.205353 0.914425
vn -0.296894 0.84939 0.436338
v -0.743297 2.340269 0.329805
vt 0.161917 0.844744
vn 0.460134 0.460134 0.759311
v -0.816622 2.413594 0.329805
vt 0.171612 0.880246
vn 0.460134 0.460134 0.759311
v -0.745839 2.448836 0.265554
vt 0.162253 0.868905
vn 0.460134 0.460134 0.759311
v -0.597835 2.413594 0.329805
vt 0.142684 0.887997
vn 0 0 1
v -0.669971 2.413594 0.329805
vt 0.152222 0.887997
vn 0 0 1
v -1.07181 2.463509 0.238804
vt 0.205353 0.914425
vn -0.296894 0.84939 0.436338
v -0.816622 2.413594 0.329805
vt 0.171612 0.907825
vn 0 0.876769 0.480912
v -1.080862 2.413594 0.329805
vt 0.206549 0.907825
vn -0.595927 0.595927 0.538276
v -0.745839 2.448836 0.265554
vt 0.162253 0.893301
vn 0 0.876782 0.480889
v -0.669971 2.413594 0.329805
vt 0.152222 0.907825
vn 0 0.876782 0.480889
v -0.597835 2.413594 0.329805
vt 0.142684 0.907825
vn 0.595927 0.595927 0.538276
v -0.745839 2.448836 0.265554
vt 0.162253 0.893301
vn 0 0.876782 0.480889
v 1.002169 1.261414 0.329804
vt 0.196776 0.832815
vn 0.447626 -0.447626 0.77412
v 1.075495 1.33474 0.329804
vt 0.187079 0.83202
vn 0.447626 -0.447626 0.77412
v 1.078037 1.226173 0.265553
vt 0.186745 0.805788
vn 0.447626 -0.447626 0.77412
v 1.413059 1.261414 0.329804
vt 0.144294 0.805037
vn 0.595927 -0.595927 0.538276
v 1.462974 1.270466 0.238803
vt 0.137695 0.806234
vn 0.849378 -0.29689 0.436363
v 1.404007 1.2115 0.238803
vt 0.14549 0.798437
vn 0.296894 -0.84939 0.436338
v 1.413059 1.466141 0.329804
vt 0.142449 0.872572
vn 0.595927 0.595927 0.538276
v 1.462974 1.270466 0.238803
vt 0.135849 0.826955
vn 0.849378 -0.29689 0.436363
v 1.413059 1.261414 0.329804
vt 0.142449 0.824941
vn 0.595927 -0.595927 0.538276
v 1.462974 1.457089 0.238803
vt 0.135849 0.870558
vn 0.849378 0.29689 0.436363
v 0.880118 1.270466 0.238803
vt 0.212914 0.858205
vn -0.84939 -0.296894 0.436338
v 0.930032 1.466141 0.329804
vt 0.206312 0.903822
vn -0.595927 0.595927 0.538276
v 0.930032 1.261414 0.329804
vt 0.206312 0.856191
vn -0.595927 -0.595927 0.538276
v 0.880118 1.457089 0.238803
vt 0.212914 0.901808
vn -0.84939 0.296894 0.436338
v 0.930032 1.261414 0.329804
vt 0.208158 0.836287
vn -0.595927 -0.595927 0.538276
v 0.939085 1.2115 0.238803
vt 0.206962 0.829687
vn -0.296894 -0.84939 0.436338
v 0.880118 1.270466 0.238803
vt 0.214759 0.837484
vn -0.84939 -0.296894 0.436338
v 1.404007 1.516055 0.238803
vt 0.143645 0.898919
vn 0.296894 0.84939 0.436338
v 1.462974 1.457089 0.238803
vt 0.135849 0.891122
vn 0.849378 0.29689 0.436363
v 1.413059 1.466141 0.329804
vt 0.142449 0.892319
vn 0.595927 0.595927 0.538276
v 0.880118 1.457089 0.238803
vt 0.212914 0.922372
vn -0.84939 0.296894 0.436338
v 0.939085 1.516055 0.238803
vt 0.205116 0.930169
vn -0.296894 0.84939 0.436338
v 0.930032 1.466141 0.329804
vt 0.206312 0.923569
vn -0.595927 0.595927 0.538276
v -1.07181 2.158953 0.238804
vt 0.207199 0.813943
vn -0.296894 -0.84939 0.436338
v -0.597835 2.208868 0.329805
vt 0.144529 0.820543
vn 0.595927 -0.595927 0.538276
v -0.606887 2.158953 0.238804
vt 0.145729 0.813943
vn 0.296894 -0.84939 0.436338
v -1.080862 2.208868 0.329805
vt 0.208395 0.820543
vn -0.595927 -0.595927 0.538276
v 1.075495 1.33474 0.329804
vt 0.187079 0.839771
vn 0 0 1
v 1.413059 1.261414 0.329804
vt 0.142449 0.840566
vn 0 0 1
v 1.14882 1.261414 0.329804
vt 0.177386 0.840566
vn 0 0 1
v 1.413059 1.466141 0.329804
vt 0.142449 0.888197
vn 0 0 1
v 1.078037 1.226173 0.265553
vt 0.18859 0.796818
vn 0 -0.876782 0.480889
v 1.079095 1.2115 0.238803
vt 0.188449 0.814062
vn 0 -0.876782 0.480889
v 0.939085 1.2115 0.238803
vt 0.206962 0.814062
vn -0.296894 -0.84939 0.436338
v 1.404007 1.2115 0.238803
vt 0.14549 0.814062
vn 0.296894 -0.84939 0.436338
v 1.075495 1.33474 0.329804
vt 0.187079 0.812643
vn -0.460134 -0.460134 0.759311
v 1.14882 1.261414 0.329804
vt 0.177386 0.813437
vn -0.460134 -0.460134 0.759311
v 1.078037 1.226173 0.265553
vt 0.186745 0.786411
vn -0.460134 -0.460134 0.759311
v 0.939085 1.516055 0.238803
vt 0.205116 0.914544
vn -0.296894 0.84939 0.436338
v 1.413059 1.466141 0.329804
vt 0.142449 0.907944
vn 0.595927 0.595927 0.538276
v 0.930032 1.466141 0.329804
vt 0.206312 0.907944
vn -0.595927 0.595927 0.538276
v 1.404007 1.516055 0.238803
vt 0.143645 0.914544
vn 0.296894 0.84939 0.436338
v 0.930032 1.466141 0.329804
vt 0.206312 0.888197
vn 0 0 1
v 1.002169 1.261414 0.329804
vt 0.196776 0.840566
vn 0 0 1
v 0.930032 1.261414 0.329804
vt 0.206312 0.840566
vn 0 0 1
v 1.075495 1.33474 0.329804
vt 0.187079 0.839771
vn 0 0 1
v 1.078037 1.226173 0.265553
vt 0.18859 0.796818
vn 0 -0.876782 0.480889
v 1.413059 1.261414 0.329804
vt 0.144294 0.820662
vn 0.595927 -0.595927 0.538276
v 1.404007 1.2115 0.238803
vt 0.14549 0.814062
vn 0.296894 -0.84939 0.436338
v 1.14882 1.261414 0.329804
vt 0.179231 0.820662
vn 0 -0.876782 0.480889
v 0.930032 1.261414 0.329804
vt 0.208158 0.820662
vn -0.595927 -0.595927 0.538276
v 1.078037 1.226173 0.265553
vt 0.18859 0.796818
vn 0 -0.876782 0.480889
v 0.939085 1.2115 0.238803
vt 0.206962 0.814062
vn -0.296894 -0.84939 0.436338
v 1.002169 1.261414 0.329804
vt 0.198621 0.820662
vn 0 -0.876782 0.480889
v 1.075495 1.33474 0.329804
vt 0.187079 0.839771
vn 0 0 1
v 0.875488 2.967467 0.329804
vt 0.206849 0.888066
vn 0 0 1
v 1.358515 2.76274 0.329804
vt 0.142984 0.840435
vn 0 0 1
v 0.875488 2.76274 0.329804
vt 0.206849 0.840435
vn 0 0 1
v 1.358515 2.967467 0.329804
vt 0.142984 0.888066
vn 0 0 1
v 1.358515 2.967467 0.329804
vt 0.142984 0.872441
vn 0.595927 0.595927 0.538276
v 1.408429 2.771792 0.238803
vt 0.136384 0.826824
vn 0.84939 -0.296894 0.436338
v 1.358515 2.76274 0.329804
vt 0.142984 0.82481
vn 0.595927 -0.595927 0.538276
v 1.408429 2.958415 0.238803
vt 0.136384 0.870426
vn 0.84939 0.296894 0.436338
v 0.875488 2.76274 0.329804
vt 0.208695 0.820584
vn -0.595927 -0.595927 0.538276
v 1.349463 2.712826 0.238803
vt 0.146025 0.813984
vn 0.296894 -0.84939 0.436338
v 0.88454 2.712826 0.238803
vt 0.207497 0.813984
vn -0.296894 -0.84939 0.436338
v 1.358515 2.76274 0.329804
vt 0.144829 0.820584
vn 0.595927 -0.595927 0.538276
v 0.825573 2.771792 0.238803
vt 0.213449 0.858074
vn -0.84939 -0.296894 0.436338
v 0.875488 2.967467 0.329804
vt 0.206849 0.903691
vn -0.595927 0.595927 0.538276
v 0.875488 2.76274 0.329804
vt 0.206849 0.85606
vn -0.595927 -0.595927 0.538276
v 0.825573 2.958415 0.238803
vt 0.213449 0.901676
vn -0.84939 0.296894 0.436338
v 0.88454 3.017381 0.238803
vt 0.205652 0.914466
vn -0.296894 0.84939 0.436338
v 1.358515 2.967467 0.329804
vt 0.142984 0.907866
vn 0.595927 0.595927 0.538276
v 0.875488 2.967467 0.329804
vt 0.206849 0.907866
vn -0.595927 0.595927 0.538276
v 1.349463 3.017381 0.238803
vt 0.14418 0.914466
vn 0.296894 0.84939 0.436338
v 1.349463 2.712826 0.238803
vt 0.146025 0.798359
vn 0.296894 -0.84939 0.436338
v 1.358515 2.76274 0.329804
vt 0.144829 0.804959
vn 0.595927 -0.595927 0.538276
v 1.408429 2.771792 0.238803
vt 0.13823 0.806156
vn 0.84939 -0.296894 0.436338
v 1.358515 2.967467 0.329804
vt 0.142984 0.892241
vn 0.595927 0.595927 0.538276
v 1.349463 3.017381 0.238803
vt 0.14418 0.898841
vn 0.296894 0.84939 0.436338
v 1.408429 2.958415 0.238803
vt 0.136384 0.891044
vn 0.84939 0.296894 0.436338
v 0.825573 2.771792 0.238803
vt 0.215294 0.837406
vn -0.84939 -0.296894 0.436338
v 0.875488 2.76274 0.329804
vt 0.208695 0.836209
vn -0.595927 -0.595927 0.538276
v 0.88454 2.712826 0.238803
vt 0.207497 0.829609
vn -0.296894 -0.84939 0.436338
v 0.875488 2.967467 0.329804
vt 0.206849 0.923491
vn -0.595927 0.595927 0.538276
v 0.825573 2.958415 0.238803
vt 0.213449 0.922294
vn -0.84939 0.296894 0.436338
v 0.88454 3.017381 0.238803
vt 0.205652 0.930091
vn -0.296894 0.84939 0.436338
v -1.587653 2.915973 0.329805
vt 0.206849 0.888066
vn 0 0 1
v -1.104626 2.711246 0.329805
vt 0.142984 0.840435
vn 0 0 1
v -1.587653 2.711246 0.329805
vt 0.206849 0.840435
vn 0 0 1
v -1.104626 2.915973 0.329805
vt 0.142984 0.888066
vn 0 0 1
v -1.104626 2.915973 0.329805
vt 0.142984 0.872441
vn 0.595927 0.595927 0.538276
v -1.054712 2.720298 0.238804
vt 0.136384 0.826824
vn 0.84939 -0.296894 0.436338
v -1.104626 2.711246 0.329805
vt 0.142984 0.82481
vn 0.595927 -0.595927 0.538276
v -1.054712 2.906921 0.238804
vt 0.136384 0.870426
vn 0.84939 0.296894 0.436338
v -1.587653 2.711246 0.329805
vt 0.208695 0.820584
vn -0.595927 -0.595927 0.538276
v -1.113678 2.661332 0.238804
vt 0.146025 0.813984
vn 0.296894 -0.84939 0.436338
v -1.578601 2.661332 0.238804
vt 0.207497 0.813984
vn -0.296894 -0.84939 0.436338
v -1.104626 2.711246 0.329805
vt 0.144829 0.820584
vn 0.595927 -0.595927 0.538276
v -1.637568 2.720298 0.238804
vt 0.213449 0.858074
vn -0.84939 -0.296894 0.436338
v -1.587653 2.915973 0.329805
vt 0.206849 0.903691
vn -0.595927 0.595927 0.538276
v -1.587653 2.711246 0.329805
vt 0.206849 0.85606
vn -0.595927 -0.595927 0.538276
v -1.637568 2.906921 0.238804
vt 0.213449 0.901676
vn -0.84939 0.296894 0.436338
v -1.578601 2.965887 0.238804
vt 0.205652 0.914466
vn -0.296894 0.84939 0.436338
v -1.104626 2.915973 0.329805
vt 0.142984 0.907866
vn 0.595927 0.595927 0.538276
v -1.587653 2.915973 0.329805
vt 0.206849 0.907866
vn -0.595927 0.595927 0.538276
v -1.113678 2.965887 0.238804
vt 0.14418 0.914466
vn 0.29689 0.849378 0.436363
v -1.113678 2.661332 0.238804
vt 0.146025 0.798359
vn 0.296894 -0.84939 0.436338
v -1.104626 2.711246 0.329805
vt 0.144829 0.804959
vn 0.595927 -0.595927 0.538276
v -1.054712 2.720298 0.238804
vt 0.13823 0.806156
vn 0.84939 -0.296894 0.436338
v -1.104626 2.915973 0.329805
vt 0.142984 0.892241
vn 0.595927 0.595927 0.538276
v -1.113678 2.965887 0.238804
vt 0.14418 0.898841
vn 0.29689 0.849378 0.436363
v -1.054712 2.906921 0.238804
vt 0.136384 0.891044
vn 0.84939 0.296894 0.436338
v -1.637568 2.720298 0.238804
vt 0.215294 0.837406
vn -0.84939 -0.296894 0.436338
v -1.587653 2.711246 0.329805
vt 0.208695 0.836209
vn -0.595927 -0.595927 0.538276
v -1.578601 2.661332 0.238804
vt 0.207497 0.829609
vn -0.296894 -0.84939 0.436338
v -1.587653 2.915973 0.329805
vt 0.206849 0.923491
vn -0.595927 0.595927 0.538276
v -1.637568 2.906921 0.238804
vt 0.213449 0.922294
vn -0.84939 0.296894 0.436338
v -1.578601 2.965887 0.238804
vt 0.205652 0.930091
vn -0.296894 0.84939 0.436338
v -1.324593 2.092065 0.329805
vt 0.206849 0.888066
vn 0 0 1
v -0.841566 1.887338 0.329805
vt 0.142984 0.840435
vn 0 0 1
v -1.324593 1.887338 0.329805
vt 0.206849 0.840435
vn 0 0 1
v -0.841566 2.092065 0.329805
vt 0.142984 0.888066
vn 0 0 1
v -0.841566 2.092065 0.329805
vt 0.142984 0.872441
vn 0.595927 0.595927 0.538276
v -0.791652 1.89639 0.238804
vt 0.136384 0.826824
vn 0.84939 -0.296894 0.436338
v -0.841566 1.887338 0.329805
vt 0.142984 0.82481
vn 0.595927 -0.595927 0.538276
v -0.791652 2.083013 0.238804
vt 0.136384 0.870426
vn 0.84939 0.296894 0.436338
v -1.324593 1.887338 0.329805
vt 0.208695 0.820584
vn -0.595927 -0.595927 0.538276
v -0.850618 1.837424 0.238804
vt 0.146025 0.813984
vn 0.296894 -0.84939 0.436338
v -1.315541 1.837424 0.238804
vt 0.207497 0.813984
vn -0.296894 -0.84939 0.436338
v -0.841566 1.887338 0.329805
vt 0.144829 0.820584
vn 0.595927 -0.595927 0.538276
v -1.374508 1.89639 0.238804
vt 0.213449 0.858074
vn -0.84939 -0.296894 0.436338
v -1.324593 2.092065 0.329805
vt 0.206849 0.903691
vn -0.595927 0.595927 0.538276
v -1.324593 1.887338 0.329805
vt 0.206849 0.85606
vn -0.595927 -0.595927 0.538276
v -1.374508 2.083013 0.238804
vt 0.213449 0.901676
vn -0.84939 0.296894 0.436338
v -1.315541 2.141979 0.238804
vt 0.205652 0.914466
vn -0.296894 0.84939 0.436338
v -0.841566 2.092065 0.329805
vt 0.142984 0.907866
vn 0.595927 0.595927 0.538276
v -1.324593 2.092065 0.329805
vt 0.206849 0.907866
vn -0.595927 0.595927 0.538276
v -0.850618 2.141979 0.238804
vt 0.14418 0.914466
vn 0.296894 0.84939 0.436338
v -0.850618 1.837424 0.238804
vt 0.146025 0.798359
vn 0.296894 -0.84939 0.436338
v -0.841566 1.887338 0.329805
vt 0.144829 0.804959
vn 0.595927 -0.595927 0.538276
v -0.791652 1.89639 0.238804
vt 0.13823 0.806156
vn 0.84939 -0.296894 0.436338
v -0.841566 2.092065 0.329805
vt 0.142984 0.892241
vn 0.595927 0.595927 0.538276
v -0.850618 2.141979 0.238804
vt 0.14418 0.898841
vn 0.296894 0.84939 0.436338
v -0.791652 2.083013 0.238804
vt 0.136384 0.891044
vn 0.84939 0.296894 0.436338
v -1.374508 1.89639 0.238804
vt 0.215294 0.837406
vn -0.84939 -0.296894 0.436338
v -1.324593 1.887338 0.329805
vt 0.208695 0.836209
vn -0.595927 -0.595927 0.538276
v -1.315541 1.837424 0.238804
vt 0.207497 0.829609
vn -0.296894 -0.84939 0.436338
v -1.324593 2.092065 0.329805
vt 0.206849 0.923491
vn -0.595927 0.595927 0.538276
v -1.374508 2.083013 0.238804
vt 0.213449 0.922294
vn -0.84939 0.296894 0.436338
v -1.315541 2.141979 0.238804
vt 0.205652 0.930091
vn -0.296894 0.84939 0.436338
v -0.703667 2.092065 0.329805
vt 0.206849 0.888066
vn 0 0 1
v -0.357222 1.887338 0.329805
vt 0.142984 0.840435
vn 0 0 1
v -0.703667 1.887338 0.329805
vt 0.206849 0.840435
vn 0 0 1
v -0.357222 2.092065 0.329805
vt 0.142984 0.888066
vn 0 0 1
v -0.357222 2.092065 0.329805
vt 0.142984 0.872441
vn 0.595927 0.595927 0.538276
v -0.307307 1.89639 0.238804
vt 0.136384 0.826824
vn 0.84939 -0.296894 0.436338
v -0.357222 1.887338 0.329805
vt 0.142984 0.82481
vn 0.595927 -0.595927 0.538276
v -0.307307 2.083013 0.238804
vt 0.136384 0.870426
vn 0.84939 0.296894 0.436338
v -0.703667 1.887338 0.329805
vt 0.208695 0.820584
vn -0.595927 -0.595927 0.538276
v -0.366274 1.837424 0.238804
vt 0.146025 0.813984
vn 0.296894 -0.84939 0.436338
v -0.694615 1.837424 0.238804
vt 0.207497 0.813984
vn -0.296894 -0.84939 0.436338
v -0.357222 1.887338 0.329805
vt 0.144829 0.820584
vn 0.595927 -0.595927 0.538276
v -0.753582 1.89639 0.238804
vt 0.213449 0.858074
vn -0.84939 -0.296894 0.436338
v -0.703667 2.092065 0.329805
vt 0.206849 0.903691
vn -0.595927 0.595927 0.538276
v -0.703667 1.887338 0.329805
vt 0.206849 0.85606
vn -0.595927 -0.595927 0.538276
v -0.753582 2.083013 0.238804
vt 0.213449 0.901676
vn -0.84939 0.296894 0.436338
v -0.703667 2.092065 0.329805
vt 0.206849 0.907866
vn -0.595927 0.595927 0.538276
v -0.366274 2.141979 0.238804
vt 0.14418 0.914466
vn 0.296894 0.84939 0.436338
v -0.357222 2.092065 0.329805
vt 0.142984 0.907866
vn 0.595927 0.595927 0.538276
v -0.694615 2.141979 0.238804
vt 0.205652 0.914466
vn -0.296894 0.84939 0.436338
v -0.366274 1.837424 0.238804
vt 0.146025 0.798359
vn 0.296894 -0.84939 0.436338
v -0.357222 1.887338 0.329805
vt 0.144829 0.804959
vn 0.595927 -0.595927 0.538276
v -0.307307 1.89639 0.238804
vt 0.13823 0.806156
vn 0.84939 -0.296894 0.436338
v -0.357222 2.092065 0.329805
vt 0.142984 0.892241
vn 0.595927 0.595927 0.538276
v -0.366274 2.141979 0.238804
vt 0.14418 0.898841
vn 0.296894 0.84939 0.436338
v -0.307307 2.083013 0.238804
vt 0.136384 0.891044
vn 0.84939 0.296894 0.436338
v -0.753582 1.89639 0.238804
vt 0.215294 0.837406
vn -0.84939 -0.296894 0.436338
v -0.703667 1.887338 0.329805
vt 0.208695 0.836209
vn -0.595927 -0.595927 0.538276
v -0.694615 1.837424 0.238804
vt 0.207497 0.829609
vn -0.296894 -0.84939 0.436338
v -0.703667 2.092065 0.329805
vt 0.206849 0.923491
vn -0.595927 0.595927 0.538276
v -0.753582 2.083013 0.238804
vt 0.213449 0.922294
vn -0.84939 0.296894 0.436338
v -0.694615 2.141979 0.238804
vt 0.205652 0.930091
vn -0.296894 0.84939 0.436338
v -1.295851 1.328234 0.329805
vt 0.206849 0.888066
vn 0 0 1
v -0.812824 1.123507 0.329805
vt 0.142984 0.840435
vn 0 0 1
v -1.295851 1.123507 0.329805
vt 0.206849 0.840435
vn 0 0 1
v -0.812824 1.328234 0.329805
vt 0.142984 0.888066
vn 0 0 1
v -0.812824 1.328234 0.329805
vt 0.142984 0.872441
vn 0.595927 0.595927 0.538276
v -0.76291 1.132559 0.238804
vt 0.136384 0.826824
vn 0.84939 -0.296894 0.436338
v -0.812824 1.123507 0.329805
vt 0.142984 0.82481
vn 0.595927 -0.595927 0.538276
v -0.76291 1.319182 0.238804
vt 0.136384 0.870426
vn 0.84939 0.296894 0.436338
v -1.295851 1.123507 0.329805
vt 0.208695 0.820584
vn -0.595927 -0.595927 0.538276
v -0.821876 1.073593 0.238804
vt 0.146025 0.813984
vn 0.296894 -0.84939 0.436338
v -1.286799 1.073593 0.238804
vt 0.207497 0.813984
vn -0.296894 -0.84939 0.436338
v -0.812824 1.123507 0.329805
vt 0.144829 0.820584
vn 0.595927 -0.595927 0.538276
v -1.345765 1.132559 0.238804
vt 0.213449 0.858074
vn -0.84939 -0.296894 0.436338
v -1.295851 1.328234 0.329805
vt 0.206849 0.903691
vn -0.595927 0.595927 0.538276
v -1.295851 1.123507 0.329805
vt 0.206849 0.85606
vn -0.595927 -0.595927 0.538276
v -1.345765 1.319182 0.238804
vt 0.213449 0.901676
vn -0.84939 0.296894 0.436338
v -1.286799 1.378148 0.238804
vt 0.205652 0.914466
vn -0.296894 0.84939 0.436338
v -0.812824 1.328234 0.329805
vt 0.142984 0.907866
vn 0.595927 0.595927 0.538276
v -1.295851 1.328234 0.329805
vt 0.206849 0.907866
vn -0.595927 0.595927 0.538276
v -0.821876 1.378148 0.238804
vt 0.14418 0.914466
vn 0.29689 0.849378 0.436363
v -0.821876 1.073593 0.238804
vt 0.146025 0.798359
vn 0.296894 -0.84939 0.436338
v -0.812824 1.123507 0.329805
vt 0.144829 0.804959
vn 0.595927 -0.595927 0.538276
v -0.76291 1.132559 0.238804
vt 0.13823 0.806156
vn 0.84939 -0.296894 0.436338
v -0.812824 1.328234 0.329805
vt 0.142984 0.892241
vn 0.595927 0.595927 0.538276
v -0.821876 1.378148 0.238804
vt 0.14418 0.898841
vn 0.29689 0.849378 0.436363
v -0.76291 1.319182 0.238804
vt 0.136384 0.891044
vn 0.84939 0.296894 0.436338
v -1.345765 1.132559 0.238804
vt 0.215294 0.837406
vn -0.84939 -0.296894 0.436338
v -1.295851 1.123507 0.329805
vt 0.208695 0.836209
vn -0.595927 -0.595927 0.538276
v -1.286799 1.073593 0.238804
vt 0.207497 0.829609
vn -0.296894 -0.84939 0.436338
v -1.295851 1.328234 0.329805
vt 0.206849 0.923491
vn -0.595927 0.595927 0.538276
v -1.345765 1.319182 0.238804
vt 0.213449 0.922294
vn -0.84939 0.296894 0.436338
v -1.286799 1.378148 0.238804
vt 0.205652 0.930091
vn -0.296894 0.84939 0.436338
v -0.918227 0.984939 0.329805
vt 0.206849 0.888066
vn 0 0 1
v -0.4352 0.780212 0.329805
vt 0.142984 0.840435
vn 0 0 1
v -0.918227 0.780212 0.329805
vt 0.206849 0.840435
vn 0 0 1
v -0.4352 0.984939 0.329805
vt 0.142984 0.888066
vn 0 0 1
v -0.4352 0.984939 0.329805
vt 0.142984 0.872441
vn 0.595927 0.595927 0.538276
v -0.385285 0.789264 0.238803
vt 0.136384 0.826824
vn 0.84939 -0.296894 0.436338
v -0.4352 0.780212 0.329805
vt 0.142984 0.82481
vn 0.595927 -0.595927 0.538276
v -0.385285 0.975887 0.238803
vt 0.136384 0.870426
vn 0.84939 0.296894 0.436338
v -0.918227 0.780212 0.329805
vt 0.208695 0.820584
vn -0.595927 -0.595927 0.538276
v -0.444252 0.730298 0.238803
vt 0.146025 0.813984
vn 0.296894 -0.84939 0.436338
v -0.909175 0.730298 0.238803
vt 0.207497 0.813984
vn -0.296894 -0.84939 0.436338
v -0.4352 0.780212 0.329805
vt 0.144829 0.820584
vn 0.595927 -0.595927 0.538276
v -0.968141 0.789264 0.238803
vt 0.213449 0.858074
vn -0.84939 -0.296894 0.436338
v -0.918227 0.984939 0.329805
vt 0.206849 0.903691
vn -0.595927 0.595927 0.538276
v -0.918227 0.780212 0.329805
vt 0.206849 0.85606
vn -0.595927 -0.595927 0.538276
v -0.968141 0.975887 0.238803
vt 0.213449 0.901676
vn -0.84939 0.296894 0.436338
v -0.909175 1.034853 0.238803
vt 0.205652 0.914466
vn -0.29689 0.849378 0.436363
v -0.4352 0.984939 0.329805
vt 0.142984 0.907866
vn 0.595927 0.595927 0.538276
v -0.918227 0.984939 0.329805
vt 0.206849 0.907866
vn -0.595927 0.595927 0.538276
v -0.444252 1.034853 0.238803
vt 0.14418 0.914466
vn 0.29689 0.849378 0.436363
v -0.444252 0.730298 0.238803
vt 0.146025 0.798359
vn 0.296894 -0.84939 0.436338
v -0.4352 0.780212 0.329805
vt 0.144829 0.804959
vn 0.595927 -0.595927 0.538276
v -0.385285 0.789264 0.238803
vt 0.13823 0.806156
vn 0.84939 -0.296894 0.436338
v -0.4352 0.984939 0.329805
vt 0.142984 0.892241
vn 0.595927 0.595927 0.538276
v -0.444252 1.034853 0.238803
vt 0.14418 0.898841
vn 0.29689 0.849378 0.436363
v -0.385285 0.975887 0.238803
vt 0.136384 0.891044
vn 0.84939 0.296894 0.436338
v -0.968141 0.789264 0.238803
vt 0.215294 0.837406
vn -0.84939 -0.296894 0.436338
v -0.918227 0.780212 0.329805
vt 0.208695 0.836209
vn -0.595927 -0.595927 0.538276
v -0.909175 0.730298 0.238803
vt 0.207497 0.829609
vn -0.296894 -0.84939 0.436338
v -0.918227 0.984939 0.329805
vt 0.206849 0.923491
vn -0.595927 0.595927 0.538276
v -0.968141 0.975887 0.238803
vt 0.213449 0.922294
vn -0.84939 0.296894 0.436338
v -0.909175 1.034853 0.238803
vt 0.205652 0.930091
vn -0.29689 0.849378 0.436363
v 0.304761 1.465552 0.329804
vt 0.206849 0.888066
vn 0 0 1
v 0.787788 1.260825 0.329804
vt 0.142984 0.840435
vn 0 0 1
v 0.304761 1.260825 0.329804
vt 0.206849 0.840435
vn 0 0 1
v 0.787788 1.465552 0.329804
vt 0.142984 0.888066
vn 0 0 1
v 0.787788 1.465552 0.329804
vt 0.142984 0.872441
vn 0.595927 0.595927 0.538276
v 0.837703 1.269877 0.238803
vt 0.136384 0.826824
vn 0.84939 -0.296894 0.436338
v 0.787788 1.260825 0.329804
vt 0.142984 0.82481
vn 0.595927 -0.595927 0.538276
v 0.837703 1.4565 0.238803
vt 0.136384 0.870426
vn 0.84939 0.296894 0.436338
v 0.304761 1.260825 0.329804
vt 0.208695 0.820584
vn -0.595927 -0.595927 0.538276
v 0.778736 1.210911 0.238803
vt 0.146025 0.813984
vn 0.296894 -0.84939 0.436338
v 0.313813 1.210911 0.238803
vt 0.207497 0.813984
vn -0.296894 -0.84939 0.436338
v 0.787788 1.260825 0.329804
vt 0.144829 0.820584
vn 0.595927 -0.595927 0.538276
v 0.254847 1.269877 0.238803
vt 0.213449 0.858074
vn -0.84939 -0.296894 0.436338
v 0.304761 1.465552 0.329804
vt 0.206849 0.903691
vn -0.595927 0.595927 0.538276
v 0.304761 1.260825 0.329804
vt 0.206849 0.85606
vn -0.595927 -0.595927 0.538276
v 0.254847 1.4565 0.238803
vt 0.213449 0.901676
vn -0.84939 0.296894 0.436338
v 0.313813 1.515466 0.238803
vt 0.205652 0.914466
vn -0.29689 0.849378 0.436363
v 0.787788 1.465552 0.329804
vt 0.142984 0.907866
vn 0.595927 0.595927 0.538276
v 0.304761 1.465552 0.329804
vt 0.206849 0.907866
vn -0.595927 0.595927 0.538276
v 0.778736 1.515466 0.238803
vt 0.14418 0.914466
vn 0.29689 0.849378 0.436363
v 0.778736 1.210911 0.238803
vt 0.146025 0.798359
vn 0.296894 -0.84939 0.436338
v 0.787788 1.260825 0.329804
vt 0.144829 0.804959
vn 0.595927 -0.595927 0.538276
v 0.837703 1.269877 0.238803
vt 0.13823 0.806156
vn 0.84939 -0.296894 0.436338
v 0.787788 1.465552 0.329804
vt 0.142984 0.892241
vn 0.595927 0.595927 0.538276
v 0.778736 1.515466 0.238803
vt 0.14418 0.898841
vn 0.29689 0.849378 0.436363
v 0.837703 1.4565 0.238803
vt 0.136384 0.891044
vn 0.84939 0.296894 0.436338
v 0.254847 1.269877 0.238803
vt 0.215294 0.837406
vn -0.84939 -0.296894 0.436338
v 0.304761 1.260825 0.329804
vt 0.208695 0.836209
vn -0.595927 -0.595927 0.538276
v 0.313813 1.210911 0.238803
vt 0.207497 0.829609
vn -0.296894 -0.84939 0.436338
v 0.304761 1.465552 0.329804
vt 0.206849 0.923491
vn -0.595927 0.595927 0.538276
v 0.254847 1.4565 0.238803
vt 0.213449 0.922294
vn -0.84939 0.296894 0.436338
v 0.313813 1.515466 0.238803
vt 0.205652 0.930091
vn -0.29689 0.849378 0.436363
v 0.678095 1.143713 0.329804
vt 0.206849 0.888066
vn 0 0 1
v 1.161121 0.938986 0.329804
vt 0.142984 0.840435
vn 0 0 1
v 0.678095 0.938986 0.329804
vt 0.206849 0.840435
vn 0 0 1
v 1.161121 1.143713 0.329804
vt 0.142984 0.888066
vn 0 0 1
v 1.161121 1.143713 0.329804
vt 0.142984 0.872441
vn 0.595927 0.595927 0.538276
v 1.211036 0.948038 0.238803
vt 0.136384 0.826824
vn 0.84939 -0.296894 0.436338
v 1.161121 0.938986 0.329804
vt 0.142984 0.82481
vn 0.595927 -0.595927 0.538276
v 1.211036 1.134661 0.238803
vt 0.136384 0.870426
vn 0.84939 0.296894 0.436338
v 0.678095 0.938986 0.329804
vt 0.208695 0.820584
vn -0.595927 -0.595927 0.538276
v 1.15207 0.889072 0.238803
vt 0.146025 0.813984
vn 0.296894 -0.84939 0.436338
v 0.687147 0.889072 0.238803
vt 0.207497 0.813984
vn -0.296894 -0.84939 0.436338
v 1.161121 0.938986 0.329804
vt 0.144829 0.820584
vn 0.595927 -0.595927 0.538276
v 0.62818 0.948038 0.238803
vt 0.213449 0.858074
vn -0.84939 -0.296894 0.436338
v 0.678095 1.143713 0.329804
vt 0.206849 0.903691
vn -0.595927 0.595927 0.538276
v 0.678095 0.938986 0.329804
vt 0.206849 0.85606
vn -0.595927 -0.595927 0.538276
v 0.62818 1.134661 0.238803
vt 0.213449 0.901676
vn -0.84939 0.296894 0.436338
v 0.687147 1.193627 0.238803
vt 0.205652 0.914466
vn -0.29689 0.849378 0.436363
v 1.161121 1.143713 0.329804
vt 0.142984 0.907866
vn 0.595927 0.595927 0.538276
v 0.678095 1.143713 0.329804
vt 0.206849 0.907866
vn -0.595927 0.595927 0.538276
v 1.15207 1.193627 0.238803
vt 0.14418 0.914466
vn 0.29689 0.849378 0.436363
v 1.15207 0.889072 0.238803
vt 0.146025 0.798359
vn 0.296894 -0.84939 0.436338
v 1.161121 0.938986 0.329804
vt 0.144829 0.804959
vn 0.595927 -0.595927 0.538276
v 1.211036 0.948038 0.238803
vt 0.13823 0.806156
vn 0.84939 -0.296894 0.436338
v 1.161121 1.143713 0.329804
vt 0.142984 0.892241
vn 0.595927 0.595927 0.538276
v 1.15207 1.193627 0.238803
vt 0.14418 0.898841
vn 0.29689 0.849378 0.436363
v 1.211036 1.134661 0.238803
vt 0.136384 0.891044
vn 0.84939 0.296894 0.436338
v 0.62818 0.948038 0.238803
vt 0.215294 0.837406
vn -0.84939 -0.296894 0.436338
v 0.678095 0.938986 0.329804
vt 0.208695 0.836209
vn -0.595927 -0.595927 0.538276
v 0.687147 0.889072 0.238803
vt 0.207497 0.829609
vn -0.296894 -0.84939 0.436338
v 0.678095 1.143713 0.329804
vt 0.206849 0.923491
vn -0.595927 0.595927 0.538276
v 0.62818 1.134661 0.238803
vt 0.213449 0.922294
vn -0.84939 0.296894 0.436338
v 0.687147 1.193627 0.238803
vt 0.205652 0.930091
vn -0.29689 0.849378 0.436363
v -0.506446 2.649919 -0.329804
vt 0.206849 0.888066
vn 0 0 -1
v -0.989473 2.445192 -0.329804
vt 0.142984 0.840435
vn 0 0 -1
v -0.506446 2.445192 -0.329804
vt 0.206849 0.840435
vn 0 0 -1
v -0.989473 2.649919 -0.329804
vt 0.142984 0.888066
vn 0 0 -1
v -0.989473 2.649919 -0.329804
vt 0.142984 0.872441
vn -0.595927 0.595927 -0.538276
v -1.039387 2.454244 -0.238803
vt 0.136384 0.826824
vn -0.84939 -0.296894 -0.436338
v -0.989473 2.445192 -0.329804
vt 0.142984 0.82481
vn -0.595927 -0.595927 -0.538276
v -1.039387 2.640867 -0.238803
vt 0.136384 0.870426
vn -0.84939 0.296894 -0.436338
v -0.506446 2.445192 -0.329804
vt 0.208695 0.820584
vn 0.595927 -0.595927 -0.538276
v -0.980421 2.395278 -0.238803
vt 0.146025 0.813984
vn -0.296894 -0.84939 -0.436338
v -0.515498 2.395278 -0.238803
vt 0.207497 0.813984
vn 0.296894 -0.84939 -0.436338
v -0.989473 2.445192 -0.329804
vt 0.144829 0.820584
vn -0.595927 -0.595927 -0.538276
v -0.456531 2.454244 -0.238803
vt 0.213449 0.858074
vn 0.84939 -0.296894 -0.436338
v -0.506446 2.649919 -0.329804
vt 0.206849 0.903691
vn 0.595927 0.595927 -0.538276
v -0.506446 2.445192 -0.329804
vt 0.206849 0.85606
vn 0.595927 -0.595927 -0.538276
v -0.456531 2.640867 -0.238803
vt 0.213449 0.901676
vn 0.84939 0.296894 -0.436338
v -0.515498 2.699834 -0.238803
vt 0.205652 0.914466
vn 0.296894 0.84939 -0.436338
v -0.989473 2.649919 -0.329804
vt 0.142984 0.907866
vn -0.595927 0.595927 -0.538276
v -0.506446 2.649919 -0.329804
vt 0.206849 0.907866
vn 0.595927 0.595927 -0.538276
v -0.980421 2.699834 -0.238803
vt 0.14418 0.914466
vn -0.296894 0.84939 -0.436338
v -0.980421 2.395278 -0.238803
vt 0.146025 0.798359
vn -0.296894 -0.84939 -0.436338
v -0.989473 2.445192 -0.329804
vt 0.144829 0.804959
vn -0.595927 -0.595927 -0.538276
v -1.039387 2.454244 -0.238803
vt 0.13823 0.806156
vn -0.84939 -0.296894 -0.436338
v -0.989473 2.649919 -0.329804
vt 0.142984 0.892241
vn -0.595927 0.595927 -0.538276
v -0.980421 2.699834 -0.238803
vt 0.14418 0.898841
vn -0.296894 0.84939 -0.436338
v -1.039387 2.640867 -0.238803
vt 0.136384 0.891044
vn -0.84939 0.296894 -0.436338
v -0.456531 2.454244 -0.238803
vt 0.215294 0.837406
vn 0.84939 -0.296894 -0.436338
v -0.506446 2.445192 -0.329804
vt 0.208695 0.836209
vn 0.595927 -0.595927 -0.538276
v -0.515498 2.395278 -0.238803
vt 0.207497 0.829609
vn 0.296894 -0.84939 -0.436338
v -0.506446 2.649919 -0.329804
vt 0.206849 0.923491
vn 0.595927 0.595927 -0.538276
v -0.456531 2.640867 -0.238803
vt 0.213449 0.922294
vn 0.84939 0.296894 -0.436338
v -0.515498 2.699834 -0.238803
vt 0.205652 0.930091
vn 0.296894 0.84939 -0.436338
v 0.669971 2.413594 -0.329805
vt 0.152222 0.860868
vn 0.447626 0.447626 -0.77412
v 0.743297 2.340269 -0.329805
vt 0.161917 0.825367
vn 0.447626 0.447626 -0.77412
v 0.745839 2.448836 -0.265554
vt 0.162253 0.849527
vn 0.447626 0.447626 -0.77412
v 1.080861 2.413594 -0.329805
vt 0.206549 0.92345
vn 0.595927 0.595927 -0.538276
v 1.130776 2.404542 -0.238804
vt 0.213149 0.922253
vn 0.84939 0.296894 -0.436338
v 1.07181 2.463509 -0.238804
vt 0.205353 0.93005
vn 0.296894 0.84939 -0.436338
v 1.130776 2.21792 -0.238804
vt 0.213149 0.858005
vn 0.84939 -0.296894 -0.436338
v 1.080861 2.413594 -0.329805
vt 0.206549 0.903622
vn 0.595927 0.595927 -0.538276
v 1.080861 2.208868 -0.329805
vt 0.206549 0.855991
vn 0.595927 -0.595927 -0.538276
v 1.130776 2.404542 -0.238804
vt 0.213149 0.901607
vn 0.84939 0.296894 -0.436338
v 0.597835 2.413594 -0.329805
vt 0.142684 0.872372
vn -0.595927 0.595927 -0.538276
v 0.54792 2.21792 -0.238804
vt 0.136084 0.826755
vn -0.84939 -0.296894 -0.436338
v 0.597835 2.208868 -0.329805
vt 0.142684 0.824741
vn -0.595927 -0.595927 -0.538276
v 0.54792 2.404542 -0.238804
vt 0.136084 0.870357
vn -0.84939 0.296894 -0.436338
v 0.597835 2.413594 -0.329805
vt 0.142684 0.8922
vn -0.595927 0.595927 -0.538276
v 0.606887 2.463509 -0.238804
vt 0.143883 0.8988
vn -0.296894 0.84939 -0.436338
v 0.54792 2.404542 -0.238804
vt 0.136084 0.891003
vn -0.84939 0.296894 -0.436338
v 1.07181 2.158953 -0.238804
vt 0.207199 0.829568
vn 0.296894 -0.84939 -0.436338
v 1.130776 2.21792 -0.238804
vt 0.214994 0.837365
vn 0.84939 -0.296894 -0.436338
v 1.080861 2.208868 -0.329805
vt 0.208395 0.836168
vn 0.595927 -0.595927 -0.538276
v 0.54792 2.21792 -0.238804
vt 0.13793 0.806115
vn -0.84939 -0.296894 -0.436338
v 0.606887 2.158953 -0.238804
vt 0.145729 0.798318
vn -0.296894 -0.84939 -0.436338
v 0.597835 2.208868 -0.329805
vt 0.144529 0.804918
vn -0.595927 -0.595927 -0.538276
v 1.080861 2.208868 -0.329805
vt 0.206549 0.840366
vn 0 0 -1
v 0.743297 2.340269 -0.329805
vt 0.161917 0.852495
vn 0 0 -1
v 0.597835 2.208868 -0.329805
vt 0.142684 0.840366
vn 0 0 -1
v 1.080861 2.413594 -0.329805
vt 0.206549 0.887997
vn 0 0 -1
v 0.816622 2.413594 -0.329805
vt 0.171612 0.887997
vn 0 0 -1
v 0.745839 2.448836 -0.265554
vt 0.162253 0.893301
vn 0 0.876782 -0.480889
v 0.746897 2.463509 -0.238804
vt 0.162392 0.914425
vn 0 0.876782 -0.480889
v 0.606887 2.463509 -0.238804
vt 0.143883 0.914425
vn -0.296894 0.84939 -0.436338
v 1.07181 2.463509 -0.238804
vt 0.205353 0.914425
vn 0.296894 0.84939 -0.436338
v 0.743297 2.340269 -0.329805
vt 0.161917 0.844744
vn -0.460134 0.460134 -0.759311
v 0.816622 2.413594 -0.329805
vt 0.171612 0.880246
vn -0.460134 0.460134 -0.759311
v 0.745839 2.448836 -0.265554
vt 0.162253 0.868905
vn -0.460134 0.460134 -0.759311
v 0.597835 2.413594 -0.329805
vt 0.142684 0.887997
vn 0 0 -1
v 0.669971 2.413594 -0.329805
vt 0.152222 0.887997
vn 0 0 -1
v 1.07181 2.463509 -0.238804
vt 0.205353 0.914425
vn 0.296894 0.84939 -0.436338
v 0.816622 2.413594 -0.329805
vt 0.171612 0.907825
vn 0 0.876782 -0.480889
v 1.080861 2.413594 -0.329805
vt 0.206549 0.907825
vn 0.595927 0.595927 -0.538276
v 0.745839 2.448836 -0.265554
vt 0.162253 0.893301
vn 0 0.876782 -0.480889
v 0.669971 2.413594 -0.329805
vt 0.152222 0.907825
vn 0 0.876782 -0.480889
v 0.606887 2.463509 -0.238804
vt 0.143883 0.914425
vn -0.296894 0.84939 -0.436338
v 0.597835 2.413594 -0.329805
vt 0.142684 0.907825
vn -0.595927 0.595927 -0.538276
v 0.745839 2.448836 -0.265554
vt 0.162253 0.893301
vn 0 0.876782 -0.480889
v -1.002169 1.261414 -0.329804
vt 0.196776 0.832815
vn -0.447626 -0.447626 -0.77412
v -1.075495 1.33474 -0.329804
vt 0.187079 0.83202
vn -0.447626 -0.447626 -0.77412
v -1.078037 1.226173 -0.265553
vt 0.186745 0.805788
vn -0.447626 -0.447626 -0.77412
v -1.413059 1.261414 -0.329804
vt 0.144294 0.805037
vn -0.595927 -0.595927 -0.538276
v -1.462974 1.270466 -0.238803
vt 0.137695 0.806234
vn -0.84939 -0.296894 -0.436338
v -1.404008 1.2115 -0.238803
vt 0.14549 0.798437
vn -0.296894 -0.84939 -0.436338
v -1.413059 1.466141 -0.329804
vt 0.142449 0.872572
vn -0.595927 0.595927 -0.538276
v -1.462974 1.270466 -0.238803
vt 0.135849 0.826955
vn -0.84939 -0.296894 -0.436338
v -1.413059 1.261414 -0.329804
vt 0.142449 0.824941
vn -0.595927 -0.595927 -0.538276
v -1.462974 1.457089 -0.238803
vt 0.135849 0.870558
vn -0.84939 0.296894 -0.436338
v -0.880118 1.270466 -0.238803
vt 0.212914 0.858205
vn 0.84939 -0.296894 -0.436338
v -0.930033 1.466141 -0.329804
vt 0.206312 0.903822
vn 0.595927 0.595927 -0.538276
v -0.930033 1.261414 -0.329804
vt 0.206312 0.856191
vn 0.595927 -0.595927 -0.538276
v -0.880118 1.457089 -0.238803
vt 0.212914 0.901808
vn 0.84939 0.296894 -0.436338
v -0.930033 1.261414 -0.329804
vt 0.208158 0.836287
vn 0.595927 -0.595927 -0.538276
v -0.939085 1.2115 -0.238803
vt 0.206962 0.829687
vn 0.296894 -0.84939 -0.436338
v -0.880118 1.270466 -0.238803
vt 0.214759 0.837484
vn 0.84939 -0.296894 -0.436338
v -1.404008 1.516055 -0.238803
vt 0.143645 0.898919
vn -0.296894 0.84939 -0.436338
v -1.462974 1.457089 -0.238803
vt 0.135849 0.891122
vn -0.84939 0.296894 -0.436338
v -1.413059 1.466141 -0.329804
vt 0.142449 0.892319
vn -0.595927 0.595927 -0.538276
v -0.880118 1.457089 -0.238803
vt 0.212914 0.922372
vn 0.84939 0.296894 -0.436338
v -0.939085 1.516055 -0.238803
vt 0.205116 0.930169
vn 0.296894 0.84939 -0.436338
v -0.930033 1.466141 -0.329804
vt 0.206312 0.923569
vn 0.595927 0.595927 -0.538276
v 1.080861 2.208868 -0.329805
vt 0.208395 0.820543
vn 0.595927 -0.595927 -0.538276
v 0.606887 2.158953 -0.238804
vt 0.145729 0.813943
vn -0.296894 -0.84939 -0.436338
v 1.07181 2.158953 -0.238804
vt 0.207199 0.813943
vn 0.296894 -0.84939 -0.436338
v 0.597835 2.208868 -0.329805
vt 0.144529 0.820543
vn -0.595927 -0.595927 -0.538276
v -1.075495 1.33474 -0.329804
vt 0.187079 0.839771
vn 0 0 -1
v -1.413059 1.261414 -0.329804
vt 0.142449 0.840566
vn 0 0 -1
v -1.14882 1.261414 -0.329804
vt 0.177386 0.840566
vn 0 0 -1
v -1.413059 1.466141 -0.329804
vt 0.142449 0.888197
vn 0 0 -1
v -1.078037 1.226173 -0.265553
vt 0.18859 0.796818
vn 0 -0.876782 -0.480889
v -1.079095 1.2115 -0.238803
vt 0.188449 0.814062
vn 0 -0.876782 -0.480889
v -0.939085 1.2115 -0.238803
vt 0.206962 0.814062
vn 0.296894 -0.84939 -0.436338
v -1.404008 1.2115 -0.238803
vt 0.14549 0.814062
vn -0.296894 -0.84939 -0.436338
v -1.075495 1.33474 -0.329804
vt 0.187079 0.812643
vn 0.460134 -0.460134 -0.759311
v -1.14882 1.261414 -0.329804
vt 0.177386 0.813437
vn 0.460134 -0.460134 -0.759311
v -1.078037 1.226173 -0.265553
vt 0.186745 0.786411
vn 0.460134 -0.460134 -0.759311
v -0.939085 1.516055 -0.238803
vt 0.205116 0.914544
vn 0.296894 0.84939 -0.436338
v -1.413059 1.466141 -0.329804
vt 0.142449 0.907944
vn -0.595927 0.595927 -0.538276
v -0.930033 1.466141 -0.329804
vt 0.206312 0.907944
vn 0.595927 0.595927 -0.538276
v -1.404008 1.516055 -0.238803
vt 0.143645 0.914544
vn -0.296894 0.84939 -0.436338
v -0.930033 1.466141 -0.329804
vt 0.206312 0.888197
vn 0 0 -1
v -1.002169 1.261414 -0.329804
vt 0.196776 0.840566
vn 0 0 -1
v -0.930033 1.261414 -0.329804
vt 0.206312 0.840566
vn 0 0 -1
v -1.075495 1.33474 -0.329804
vt 0.187079 0.839771
vn 0 0 -1
v -1.078037 1.226173 -0.265553
vt 0.18859 0.796818
vn 0 -0.876782 -0.480889
v -1.413059 1.261414 -0.329804
vt 0.144294 0.820662
vn -0.595927 -0.595927 -0.538276
v -1.404008 1.2115 -0.238803
vt 0.14549 0.814062
vn -0.296894 -0.84939 -0.436338
v -1.14882 1.261414 -0.329804
vt 0.179231 0.820662
vn 0 -0.876769 -0.480912
v -0.930033 1.261414 -0.329804
vt 0.208158 0.820662
vn 0.595927 -0.595927 -0.538276
v -1.078037 1.226173 -0.265553
vt 0.18859 0.796818
vn 0 -0.876782 -0.480889
v -0.939085 1.2115 -0.238803
vt 0.206962 0.814062
vn 0.296894 -0.84939 -0.436338
v -1.002169 1.261414 -0.329804
vt 0.198621 0.820662
vn 0 -0.876769 -0.480912
v -1.075495 1.33474 -0.329804
vt 0.187079 0.839771
vn 0 0 -1
v -0.875488 2.967467 -0.329804
vt 0.206849 0.888066
vn 0 0 -1
v -1.358515 2.76274 -0.329804
vt 0.142984 0.840435
vn 0 0 -1
v -0.875488 2.76274 -0.329804
vt 0.206849 0.840435
vn 0 0 -1
v -1.358515 2.967467 -0.329804
vt 0.142984 0.888066
vn 0 0 -1
v -1.358515 2.967467 -0.329804
vt 0.142984 0.872441
vn -0.595927 0.595927 -0.538276
v -1.408429 2.771792 -0.238803
vt 0.136384 0.826824
vn -0.84939 -0.296894 -0.436338
v -1.358515 2.76274 -0.329804
vt 0.142984 0.82481
vn -0.595927 -0.595927 -0.538276
v -1.408429 2.958415 -0.238803
vt 0.136384 0.870426
vn -0.84939 0.296894 -0.436338
v -0.88454 2.712826 -0.238803
vt 0.207497 0.813984
vn 0.296894 -0.84939 -0.436338
v -1.358515 2.76274 -0.329804
vt 0.144829 0.820584
vn -0.595927 -0.595927 -0.538276
v -1.349463 2.712826 -0.238803
vt 0.146025 0.813984
vn -0.296894 -0.84939 -0.436338
v -0.875488 2.76274 -0.329804
vt 0.208695 0.820584
vn 0.595927 -0.595927 -0.538276
v -0.825573 2.771792 -0.238803
vt 0.213449 0.858074
vn 0.84939 -0.296894 -0.436338
v -0.875488 2.967467 -0.329804
vt 0.206849 0.903691
vn 0.595927 0.595927 -0.538276
v -0.875488 2.76274 -0.329804
vt 0.206849 0.85606
vn 0.595927 -0.595927 -0.538276
v -0.825573 2.958415 -0.238803
vt 0.213449 0.901676
vn 0.84939 0.296894 -0.436338
v -0.88454 3.017381 -0.238803
vt 0.205652 0.914466
vn 0.296894 0.84939 -0.436338
v -1.358515 2.967467 -0.329804
vt 0.142984 0.907866
vn -0.595927 0.595927 -0.538276
v -0.875488 2.967467 -0.329804
vt 0.206849 0.907866
vn 0.595927 0.595927 -0.538276
v -1.349463 3.017381 -0.238803
vt 0.14418 0.914466
vn -0.296894 0.84939 -0.436338
v -1.349463 2.712826 -0.238803
vt 0.146025 0.798359
vn -0.296894 -0.84939 -0.436338
v -1.358515 2.76274 -0.329804
vt 0.144829 0.804959
vn -0.595927 -0.595927 -0.538276
v -1.408429 2.771792 -0.238803
vt 0.13823 0.806156
vn -0.84939 -0.296894 -0.436338
v -1.358515 2.967467 -0.329804
vt 0.142984 0.892241
vn -0.595927 0.595927 -0.538276
v -1.349463 3.017381 -0.238803
vt 0.14418 0.898841
vn -0.296894 0.84939 -0.436338
v -1.408429 2.958415 -0.238803
vt 0.136384 0.891044
vn -0.84939 0.296894 -0.436338
v -0.825573 2.771792 -0.238803
vt 0.215294 0.837406
vn 0.84939 -0.296894 -0.436338
v -0.875488 2.76274 -0.329804
vt 0.208695 0.836209
vn 0.595927 -0.595927 -0.538276
v -0.88454 2.712826 -0.238803
vt 0.207497 0.829609
vn 0.296894 -0.84939 -0.436338
v -0.875488 2.967467 -0.329804
vt 0.206849 0.923491
vn 0.595927 0.595927 -0.538276
v -0.825573 2.958415 -0.238803
vt 0.213449 0.922294
vn 0.84939 0.296894 -0.436338
v -0.88454 3.017381 -0.238803
vt 0.205652 0.930091
vn 0.296894 0.84939 -0.436338
v 1.587653 2.915973 -0.329806
vt 0.206849 0.888066
vn 0 0 -1
v 1.104626 2.711246 -0.329805
vt 0.142984 0.840435
vn 0 0 -1
v 1.587653 2.711246 -0.329806
vt 0.206849 0.840435
vn 0 0 -1
v 1.104626 2.915973 -0.329805
vt 0.142984 0.888066
vn 0 0 -1
v 1.104626 2.915973 -0.329805
vt 0.142984 0.872441
vn -0.595927 0.595927 -0.538276
v 1.054712 2.720298 -0.238804
vt 0.136384 0.826824
vn -0.84939 -0.296894 -0.436338
v 1.104626 2.711246 -0.329805
vt 0.142984 0.82481
vn -0.595927 -0.595927 -0.538276
v 1.054712 2.906921 -0.238804
vt 0.136384 0.870426
vn -0.84939 0.296894 -0.436338
v 1.587653 2.711246 -0.329806
vt 0.208695 0.820584
vn 0.595927 -0.595927 -0.538276
v 1.113678 2.661332 -0.238804
vt 0.146025 0.813984
vn -0.296894 -0.84939 -0.436338
v 1.578601 2.661332 -0.238804
vt 0.207497 0.813984
vn 0.296894 -0.84939 -0.436338
v 1.104626 2.711246 -0.329805
vt 0.144829 0.820584
vn -0.595927 -0.595927 -0.538276
v 1.637568 2.720298 -0.238805
vt 0.213449 0.858074
vn 0.84939 -0.296894 -0.436338
v 1.587653 2.915973 -0.329806
vt 0.206849 0.903691
vn 0.595927 0.595927 -0.538276
v 1.587653 2.711246 -0.329806
vt 0.206849 0.85606
vn 0.595927 -0.595927 -0.538276
v 1.637568 2.906921 -0.238805
vt 0.213449 0.901676
vn 0.84939 0.296894 -0.436338
v 1.587653 2.915973 -0.329806
vt 0.206849 0.907866
vn 0.595927 0.595927 -0.538276
v 1.113678 2.965887 -0.238804
vt 0.14418 0.914466
vn -0.296894 0.84939 -0.436338
v 1.104626 2.915973 -0.329805
vt 0.142984 0.907866
vn -0.595927 0.595927 -0.538276
v 1.578601 2.965887 -0.238804
vt 0.205652 0.914466
vn 0.296894 0.84939 -0.436338
v 1.113678 2.661332 -0.238804
vt 0.146025 0.798359
vn -0.296894 -0.84939 -0.436338
v 1.104626 2.711246 -0.329805
vt 0.144829 0.804959
vn -0.595927 -0.595927 -0.538276
v 1.054712 2.720298 -0.238804
vt 0.13823 0.806156
vn -0.84939 -0.296894 -0.436338
v 1.104626 2.915973 -0.329805
vt 0.142984 0.892241
vn -0.595927 0.595927 -0.538276
v 1.113678 2.965887 -0.238804
vt 0.14418 0.898841
vn -0.296894 0.84939 -0.436338
v 1.054712 2.906921 -0.238804
vt 0.136384 0.891044
vn -0.84939 0.296894 -0.436338
v 1.637568 2.720298 -0.238805
vt 0.215294 0.837406
vn 0.84939 -0.296894 -0.436338
v 1.587653 2.711246 -0.329806
vt 0.208695 0.836209
vn 0.595927 -0.595927 -0.538276
v 1.578601 2.661332 -0.238804
vt 0.207497 0.829609
vn 0.296894 -0.84939 -0.436338
v 1.587653 2.915973 -0.329806
vt 0.206849 0.923491
vn 0.595927 0.595927 -0.538276
v 1.637568 2.906921 -0.238805
vt 0.213449 0.922294
vn 0.84939 0.296894 -0.436338
v 1.578601 2.965887 -0.238804
vt 0.205652 0.930091
vn 0.296894 0.84939 -0.436338
v 1.324593 2.092065 -0.329805
vt 0.206849 0.888066
vn 0 0 -1
v 0.841566 1.887338 -0.329805
vt 0.142984 0.840435
vn 0 0 -1
v 1.324593 1.887338 -0.329805
vt 0.206849 0.840435
vn 0 0 -1
v 0.841566 2.092065 -0.329805
vt 0.142984 0.888066
vn 0 0 -1
v 0.841566 2.092065 -0.329805
vt 0.142984 0.872441
vn -0.595927 0.595927 -0.538276
v 0.791652 1.89639 -0.238804
vt 0.136384 0.826824
vn -0.84939 -0.296894 -0.436338
v 0.841566 1.887338 -0.329805
vt 0.142984 0.82481
vn -0.595927 -0.595927 -0.538276
v 0.791652 2.083013 -0.238804
vt 0.136384 0.870426
vn -0.84939 0.296894 -0.436338
v 1.324593 1.887338 -0.329805
vt 0.208695 0.820584
vn 0.595927 -0.595927 -0.538276
v 0.850618 1.837424 -0.238804
vt 0.146025 0.813984
vn -0.296894 -0.84939 -0.436338
v 1.315541 1.837424 -0.238804
vt 0.207497 0.813984
vn 0.296894 -0.84939 -0.436338
v 0.841566 1.887338 -0.329805
vt 0.144829 0.820584
vn -0.595927 -0.595927 -0.538276
v 1.374507 1.89639 -0.238804
vt 0.213449 0.858074
vn 0.84939 -0.296894 -0.436338
v 1.324593 2.092065 -0.329805
vt 0.206849 0.903691
vn 0.595927 0.595927 -0.538276
v 1.324593 1.887338 -0.329805
vt 0.206849 0.85606
vn 0.595927 -0.595927 -0.538276
v 1.374507 2.083013 -0.238804
vt 0.213449 0.901676
vn 0.84939 0.296894 -0.436338
v 1.324593 2.092065 -0.329805
vt 0.206849 0.907866
vn 0.595927 0.595927 -0.538276
v 0.850618 2.141979 -0.238804
vt 0.14418 0.914466
vn -0.296894 0.84939 -0.436338
v 0.841566 2.092065 -0.329805
vt 0.142984 0.907866
vn -0.595927 0.595927 -0.538276
v 1.315541 2.141979 -0.238804
vt 0.205652 0.914466
vn 0.296894 0.84939 -0.436338
v 0.850618 1.837424 -0.238804
vt 0.146025 0.798359
vn -0.296894 -0.84939 -0.436338
v 0.841566 1.887338 -0.329805
vt 0.144829 0.804959
vn -0.595927 -0.595927 -0.538276
v 0.791652 1.89639 -0.238804
vt 0.13823 0.806156
vn -0.84939 -0.296894 -0.436338
v 0.841566 2.092065 -0.329805
vt 0.142984 0.892241
vn -0.595927 0.595927 -0.538276
v 0.850618 2.141979 -0.238804
vt 0.14418 0.898841
vn -0.296894 0.84939 -0.436338
v 0.791652 2.083013 -0.238804
vt 0.136384 0.891044
vn -0.84939 0.296894 -0.436338
v 1.374507 1.89639 -0.238804
vt 0.215294 0.837406
vn 0.84939 -0.296894 -0.436338
v 1.324593 1.887338 -0.329805
vt 0.208695 0.836209
vn 0.595927 -0.595927 -0.538276
v 1.315541 1.837424 -0.238804
vt 0.207497 0.829609
vn 0.296894 -0.84939 -0.436338
v 1.324593 2.092065 -0.329805
vt 0.206849 0.923491
vn 0.595927 0.595927 -0.538276
v 1.374507 2.083013 -0.238804
vt 0.213449 0.922294
vn 0.84939 0.296894 -0.436338
v 1.315541 2.141979 -0.238804
vt 0.205652 0.930091
vn 0.296894 0.84939 -0.436338
v 0.703667 2.092065 -0.329805
vt 0.206849 0.888066
vn 0 0 -1
v 0.357222 1.887338 -0.329805
vt 0.142984 0.840435
vn 0 0 -1
v 0.703667 1.887338 -0.329805
vt 0.206849 0.840435
vn 0 0 -1
v 0.357222 2.092065 -0.329805
vt 0.142984 0.888066
vn 0 0 -1
v 0.357222 2.092065 -0.329805
vt 0.142984 0.872441
vn -0.595927 0.595927 -0.538276
v 0.307307 1.89639 -0.238804
vt 0.136384 0.826824
vn -0.84939 -0.296894 -0.436338
v 0.357222 1.887338 -0.329805
vt 0.142984 0.82481
vn -0.595927 -0.595927 -0.538276
v 0.307307 2.083013 -0.238804
vt 0.136384 0.870426
vn -0.84939 0.296894 -0.436338
v 0.694615 1.837424 -0.238804
vt 0.207497 0.813984
vn 0.296894 -0.84939 -0.436338
v 0.357222 1.887338 -0.329805
vt 0.144829 0.820584
vn -0.595927 -0.595927 -0.538276
v 0.366274 1.837424 -0.238804
vt 0.146025 0.813984
vn -0.296894 -0.84939 -0.436338
v 0.703667 1.887338 -0.329805
vt 0.208695 0.820584
vn 0.595927 -0.595927 -0.538276
v 0.753582 1.89639 -0.238804
vt 0.213449 0.858074
vn 0.84939 -0.296894 -0.436338
v 0.703667 2.092065 -0.329805
vt 0.206849 0.903691
vn 0.595927 0.595927 -0.538276
v 0.703667 1.887338 -0.329805
vt 0.206849 0.85606
vn 0.595927 -0.595927 -0.538276
v 0.753582 2.083013 -0.238804
vt 0.213449 0.901676
vn 0.84939 0.296894 -0.436338
v 0.703667 2.092065 -0.329805
vt 0.206849 0.907866
vn 0.595927 0.595927 -0.538276
v 0.366274 2.141979 -0.238804
vt 0.14418 0.914466
vn -0.296894 0.84939 -0.436338
v 0.357222 2.092065 -0.329805
vt 0.142984 0.907866
vn -0.595927 0.595927 -0.538276
v 0.694615 2.141979 -0.238804
vt 0.205652 0.914466
vn 0.296894 0.84939 -0.436338
v 0.366274 1.837424 -0.238804
vt 0.146025 0.798359
vn -0.296894 -0.84939 -0.436338
v 0.357222 1.887338 -0.329805
vt 0.144829 0.804959
vn -0.595927 -0.595927 -0.538276
v 0.307307 1.89639 -0.238804
vt 0.13823 0.806156
vn -0.84939 -0.296894 -0.436338
v 0.357222 2.092065 -0.329805
vt 0.142984 0.892241
vn -0.595927 0.595927 -0.538276
v 0.366274 2.141979 -0.238804
vt 0.14418 0.898841
vn -0.296894 0.84939 -0.436338
v 0.307307 2.083013 -0.238804
vt 0.136384 0.891044
vn -0.84939 0.296894 -0.436338
v 0.753582 1.89639 -0.238804
vt 0.215294 0.837406
vn 0.84939 -0.296894 -0.436338
v 0.703667 1.887338 -0.329805
vt 0.208695 0.836209
vn 0.595927 -0.595927 -0.538276
v 0.694615 1.837424 -0.238804
vt 0.207497 0.829609
vn 0.296894 -0.84939 -0.436338
v 0.703667 2.092065 -0.329805
vt 0.206849 0.923491
vn 0.595927 0.595927 -0.538276
v 0.753582 2.083013 -0.238804
vt 0.213449 0.922294
vn 0.84939 0.296894 -0.436338
v 0.694615 2.141979 -0.238804
vt 0.205652 0.930091
vn 0.296894 0.84939 -0.436338
v 1.295851 1.328234 -0.329805
vt 0.206849 0.888066
vn 0 0 -1
v 0.812824 1.123507 -0.329805
vt 0.142984 0.840435
vn 0 0 -1
v 1.295851 1.123507 -0.329805
vt 0.206849 0.840435
vn 0 0 -1
v 0.812824 1.328234 -0.329805
vt 0.142984 0.888066
vn 0 0 -1
v 0.812824 1.328234 -0.329805
vt 0.142984 0.872441
vn -0.595927 0.595927 -0.538276
v 0.76291 1.132559 -0.238804
vt 0.136384 0.826824
vn -0.84939 -0.296894 -0.436338
v 0.812824 1.123507 -0.329805
vt 0.142984 0.82481
vn -0.595927 -0.595927 -0.538276
v 0.76291 1.319182 -0.238804
vt 0.136384 0.870426
vn -0.84939 0.296894 -0.436338
v 1.286799 1.073593 -0.238804
vt 0.207497 0.813984
vn 0.296894 -0.84939 -0.436338
v 0.812824 1.123507 -0.329805
vt 0.144829 0.820584
vn -0.595927 -0.595927 -0.538276
v 0.821876 1.073593 -0.238804
vt 0.146025 0.813984
vn -0.296894 -0.84939 -0.436338
v 1.295851 1.123507 -0.329805
vt 0.208695 0.820584
vn 0.595927 -0.595927 -0.538276
v 1.345765 1.132559 -0.238804
vt 0.213449 0.858074
vn 0.84939 -0.296894 -0.436338
v 1.295851 1.328234 -0.329805
vt 0.206849 0.903691
vn 0.595927 0.595927 -0.538276
v 1.295851 1.123507 -0.329805
vt 0.206849 0.85606
vn 0.595927 -0.595927 -0.538276
v 1.345765 1.319182 -0.238804
vt 0.213449 0.901676
vn 0.84939 0.296894 -0.436338
v 1.295851 1.328234 -0.329805
vt 0.206849 0.907866
vn 0.595927 0.595927 -0.538276
v 0.821876 1.378148 -0.238804
vt 0.14418 0.914466
vn -0.296894 0.84939 -0.436338
v 0.812824 1.328234 -0.329805
vt 0.142984 0.907866
vn -0.595927 0.595927 -0.538276
v 1.286799 1.378148 -0.238804
vt 0.205652 0.914466
vn 0.296894 0.84939 -0.436338
v 0.821876 1.073593 -0.238804
vt 0.146025 0.798359
vn -0.296894 -0.84939 -0.436338
v 0.812824 1.123507 -0.329805
vt 0.144829 0.804959
vn -0.595927 -0.595927 -0.538276
v 0.76291 1.132559 -0.238804
vt 0.13823 0.806156
vn -0.84939 -0.296894 -0.436338
v 0.812824 1.328234 -0.329805
vt 0.142984 0.892241
vn -0.595927 0.595927 -0.538276
v 0.821876 1.378148 -0.238804
vt 0.14418 0.898841
vn -0.296894 0.84939 -0.436338
v 0.76291 1.319182 -0.238804
vt 0.136384 0.891044
vn -0.84939 0.296894 -0.436338
v 1.345765 1.132559 -0.238804
vt 0.215294 0.837406
vn 0.84939 -0.296894 -0.436338
v 1.295851 1.123507 -0.329805
vt 0.208695 0.836209
vn 0.595927 -0.595927 -0.538276
v 1.286799 1.073593 -0.238804
vt 0.207497 0.829609
vn 0.296894 -0.84939 -0.436338
v 1.295851 1.328234 -0.329805
vt 0.206849 0.923491
vn 0.595927 0.595927 -0.538276
v 1.345765 1.319182 -0.238804
vt 0.213449 0.922294
vn 0.84939 0.296894 -0.436338
v 1.286799 1.378148 -0.238804
vt 0.205652 0.930091
vn 0.296894 0.84939 -0.436338
v 0.918226 0.984939 -0.329805
vt 0.206849 0.888066
vn 0 0 -1
v 0.4352 0.780212 -0.329805
vt 0.142984 0.840435
vn 0 0 -1
v 0.918226 0.780212 -0.329805
vt 0.206849 0.840435
vn 0 0 -1
v 0.4352 0.984939 -0.329805
vt 0.142984 0.888066
vn 0 0 -1
v 0.4352 0.984939 -0.329805
vt 0.142984 0.872441
vn -0.595927 0.595927 -0.538276
v 0.385285 0.789264 -0.238804
vt 0.136384 0.826824
vn -0.84939 -0.296894 -0.436338
v 0.4352 0.780212 -0.329805
vt 0.142984 0.82481
vn -0.595927 -0.595927 -0.538276
v 0.385285 0.975887 -0.238804
vt 0.136384 0.870426
vn -0.84939 0.296894 -0.436338
v 0.909174 0.730298 -0.238804
vt 0.207497 0.813984
vn 0.296894 -0.84939 -0.436338
v 0.4352 0.780212 -0.329805
vt 0.144829 0.820584
vn -0.595927 -0.595927 -0.538276
v 0.444252 0.730298 -0.238804
vt 0.146025 0.813984
vn -0.296894 -0.84939 -0.436338
v 0.918226 0.780212 -0.329805
vt 0.208695 0.820584
vn 0.595927 -0.595927 -0.538276
v 0.968141 0.789264 -0.238804
vt 0.213449 0.858074
vn 0.84939 -0.296894 -0.436338
v 0.918226 0.984939 -0.329805
vt 0.206849 0.903691
vn 0.595927 0.595927 -0.538276
v 0.918226 0.780212 -0.329805
vt 0.206849 0.85606
vn 0.595927 -0.595927 -0.538276
v 0.968141 0.975887 -0.238804
vt 0.213449 0.901676
vn 0.84939 0.296894 -0.436338
v 0.909174 1.034853 -0.238804
vt 0.205652 0.914466
vn 0.29689 0.849378 -0.436363
v 0.4352 0.984939 -0.329805
vt 0.142984 0.907866
vn -0.595927 0.595927 -0.538276
v 0.918226 0.984939 -0.329805
vt 0.206849 0.907866
vn 0.595927 0.595927 -0.538276
v 0.444252 1.034853 -0.238804
vt 0.14418 0.914466
vn -0.29689 0.849378 -0.436363
v 0.444252 0.730298 -0.238804
vt 0.146025 0.798359
vn -0.296894 -0.84939 -0.436338
v 0.4352 0.780212 -0.329805
vt 0.144829 0.804959
vn -0.595927 -0.595927 -0.538276
v 0.385285 0.789264 -0.238804
vt 0.13823 0.806156
vn -0.84939 -0.296894 -0.436338
v 0.4352 0.984939 -0.329805
vt 0.142984 0.892241
vn -0.595927 0.595927 -0.538276
v 0.444252 1.034853 -0.238804
vt 0.14418 0.898841
vn -0.29689 0.849378 -0.436363
v 0.385285 0.975887 -0.238804
vt 0.136384 0.891044
vn -0.84939 0.296894 -0.436338
v 0.968141 0.789264 -0.238804
vt 0.215294 0.837406
vn 0.84939 -0.296894 -0.436338
v 0.918226 0.780212 -0.329805
vt 0.208695 0.836209
vn 0.595927 -0.595927 -0.538276
v 0.909174 0.730298 -0.238804
vt 0.207497 0.829609
vn 0.296894 -0.84939 -0.436338
v 0.918226 0.984939 -0.329805
vt 0.206849 0.923491
vn 0.595927 0.595927 -0.538276
v 0.968141 0.975887 -0.238804
vt 0.213449 0.922294
vn 0.84939 0.296894 -0.436338
v 0.909174 1.034853 -0.238804
vt 0.205652 0.930091
vn 0.29689 0.849378 -0.436363
v -0.304762 1.465552 -0.329804
vt 0.206849 0.888066
vn 0 0 -1
v -0.787788 1.260825 -0.329804
vt 0.142984 0.840435
vn 0 0 -1
v -0.304762 1.260825 -0.329804
vt 0.206849 0.840435
vn 0 0 -1
v -0.787788 1.465552 -0.329804
vt 0.142984 0.888066
vn 0 0 -1
v -0.787788 1.465552 -0.329804
vt 0.142984 0.872441
vn -0.595927 0.595927 -0.538276
v -0.837703 1.269877 -0.238803
vt 0.136384 0.826824
vn -0.84939 -0.296894 -0.436338
v -0.787788 1.260825 -0.329804
vt 0.142984 0.82481
vn -0.595927 -0.595927 -0.538276
v -0.837703 1.4565 -0.238803
vt 0.136384 0.870426
vn -0.84939 0.296894 -0.436338
v -0.304762 1.260825 -0.329804
vt 0.208695 0.820584
vn 0.595927 -0.595927 -0.538276
v -0.778736 1.210911 -0.238803
vt 0.146025 0.813984
vn -0.296894 -0.84939 -0.436338
v -0.313814 1.210911 -0.238803
vt 0.207497 0.813984
vn 0.296894 -0.84939 -0.436338
v -0.787788 1.260825 -0.329804
vt 0.144829 0.820584
vn -0.595927 -0.595927 -0.538276
v -0.254847 1.269877 -0.238803
vt 0.213449 0.858074
vn 0.84939 -0.296894 -0.436338
v -0.304762 1.465552 -0.329804
vt 0.206849 0.903691
vn 0.595927 0.595927 -0.538276
v -0.304762 1.260825 -0.329804
vt 0.206849 0.85606
vn 0.595927 -0.595927 -0.538276
v -0.254847 1.4565 -0.238803
vt 0.213449 0.901676
vn 0.84939 0.296894 -0.436338
v -0.313814 1.515466 -0.238803
vt 0.205652 0.914466
vn 0.29689 0.849378 -0.436363
v -0.787788 1.465552 -0.329804
vt 0.142984 0.907866
vn -0.595927 0.595927 -0.538276
v -0.304762 1.465552 -0.329804
vt 0.206849 0.907866
vn 0.595927 0.595927 -0.538276
v -0.778736 1.515466 -0.238803
vt 0.14418 0.914466
vn -0.29689 0.849378 -0.436363
v -0.778736 1.210911 -0.238803
vt 0.146025 0.798359
vn -0.296894 -0.84939 -0.436338
v -0.787788 1.260825 -0.329804
vt 0.144829 0.804959
vn -0.595927 -0.595927 -0.538276
v -0.837703 1.269877 -0.238803
vt 0.13823 0.806156
vn -0.84939 -0.296894 -0.436338
v -0.787788 1.465552 -0.329804
vt 0.142984 0.892241
vn -0.595927 0.595927 -0.538276
v -0.778736 1.515466 -0.238803
vt 0.14418 0.898841
vn -0.29689 0.849378 -0.436363
v -0.837703 1.4565 -0.238803
vt 0.136384 0.891044
vn -0.84939 0.296894 -0.436338
v -0.254847 1.269877 -0.238803
vt 0.215294 0.837406
vn 0.84939 -0.296894 -0.436338
v -0.304762 1.260825 -0.329804
vt 0.208695 0.836209
vn 0.595927 -0.595927 -0.538276
v -0.313814 1.210911 -0.238803
vt 0.207497 0.829609
vn 0.296894 -0.84939 -0.436338
v -0.304762 1.465552 -0.329804
vt 0.206849 0.923491
vn 0.595927 0.595927 -0.538276
v -0.254847 1.4565 -0.238803
vt 0.213449 0.922294
vn 0.84939 0.296894 -0.436338
v -0.313814 1.515466 -0.238803
vt 0.205652 0.930091
vn 0.29689 0.849378 -0.436363
v -0.678095 1.143713 -0.329804
vt 0.206849 0.888066
vn 0 0 -1
v -1.161122 0.938986 -0.329804
vt 0.142984 0.840435
vn 0 0 -1
v -0.678095 0.938986 -0.329804
vt 0.206849 0.840435
vn 0 0 -1
v -1.161122 1.143713 -0.329804
vt 0.142984 0.888066
vn 0 0 -1
v -1.161122 1.143713 -0.329804
vt 0.142984 0.872441
vn -0.595927 0.595927 -0.538276
v -1.211036 0.948038 -0.238803
vt 0.136384 0.826824
vn -0.84939 -0.296894 -0.436338
v -1.161122 0.938986 -0.329804
vt 0.142984 0.82481
vn -0.595927 -0.595927 -0.538276
v -1.211036 1.134661 -0.238803
vt 0.136384 0.870426
vn -0.84939 0.296894 -0.436338
v -0.678095 0.938986 -0.329804
vt 0.208695 0.820584
vn 0.595927 -0.595927 -0.538276
v -1.15207 0.889072 -0.238803
vt 0.146025 0.813984
vn -0.296894 -0.84939 -0.436338
v -0.687147 0.889072 -0.238803
vt 0.207497 0.813984
vn 0.296894 -0.84939 -0.436338
v -1.161122 0.938986 -0.329804
vt 0.144829 0.820584
vn -0.595927 -0.595927 -0.538276
v -0.62818 0.948038 -0.238803
vt 0.213449 0.858074
vn 0.84939 -0.296894 -0.436338
v -0.678095 1.143713 -0.329804
vt 0.206849 0.903691
vn 0.595927 0.595927 -0.538276
v -0.678095 0.938986 -0.329804
vt 0.206849 0.85606
vn 0.595927 -0.595927 -0.538276
v -0.62818 1.134661 -0.238803
vt 0.213449 0.901676
vn 0.84939 0.296894 -0.436338
v -0.678095 1.143713 -0.329804
vt 0.206849 0.907866
vn 0.595927 0.595927 -0.538276
v -1.15207 1.193627 -0.238803
vt 0.14418 0.914466
vn -0.29689 0.849378 -0.436363
v -1.161122 1.143713 -0.329804
vt 0.142984 0.907866
vn -0.595927 0.595927 -0.538276
v -0.687147 1.193627 -0.238803
vt 0.205652 0.914466
vn 0.29689 0.849378 -0.436363
v -1.15207 0.889072 -0.238803
vt 0.146025 0.798359
vn -0.296894 -0.84939 -0.436338
v -1.161122 0.938986 -0.329804
vt 0.144829 0.804959
vn -0.595927 -0.595927 -0.538276
v -1.211036 0.948038 -0.238803
vt 0.13823 0.806156
vn -0.84939 -0.296894 -0.436338
v -1.161122 1.143713 -0.329804
vt 0.142984 0.892241
vn -0.595927 0.595927 -0.538276
v -1.15207 1.193627 -0.238803
vt 0.14418 0.898841
vn -0.29689 0.849378 -0.436363
v -1.211036 1.134661 -0.238803
vt 0.136384 0.891044
vn -0.84939 0.296894 -0.436338
v -0.62818 0.948038 -0.238803
vt 0.215294 0.837406
vn 0.84939 -0.296894 -0.436338
v -0.678095 0.938986 -0.329804
vt 0.208695 0.836209
vn 0.595927 -0.595927 -0.538276
v -0.687147 0.889072 -0.238803
vt 0.207497 0.829609
vn 0.296894 -0.84939 -0.436338
v -0.678095 1.143713 -0.329804
vt 0.206849 0.923491
vn 0.595927 0.595927 -0.538276
v -0.62818 1.134661 -0.238803
vt 0.213449 0.922294
vn 0.84939 0.296894 -0.436338
v -0.687147 1.193627 -0.238803
vt 0.205652 0.930091
vn 0.29689 0.849378 -0.436363
v -2 4 0.5
vt 0.063746 0.884413
vn 0 0 1
v -1.1 3.45 0.5
vt 0.061811 0.866689
vn 0 0 1
v -2 3.45 0.5
vt 0.063746 0.866689
vn 0 0 1
v -1.1 4 0.5
vt 0.061811 0.884413
vn 0 0 1
v -1.1 4 -0.35
vt 0.061811 0.993788
vn 0 1 0
v -2 4 -0.5
vt 0.063746 0.993788
vn 0 1 0
v -1.1 4 -0.5
vt 0.061811 0.993788
vn 0 1 0
v 0.9 3.45 -0.5
vt 0.057511 0.804189
vn 0 -0.707107 -0.707107
v -1 3.379289 -0.429289
vt 0.061596 0.80191
vn 0 -0.707107 -0.707107
v 1 3.379289 -0.429289
vt 0.057295 0.80191
vn 0 -0.707107 -0.707107
v -0.9 3.45 -0.5
vt 0.061381 0.804189
vn 0 -0.707107 -0.707107
v -0.9 3.45 0.5
vt 0.061381 0.804189
vn 0 -0.707107 0.707107
v 1 3.379289 0.429289
vt 0.057295 0.80191
vn 0 -0.707107 0.707107
v -1 3.379289 0.429289
vt 0.061596 0.80191
vn 0 -0.707107 0.707107
v 0.9 3.45 0.5
vt 0.057511 0.804189
vn 0 -0.707107 0.707107
v 2 3.2 0.25
vt 0.055145 0.796132
vn 0 -0.707107 0.707107
v -2 3.2 0.25
vt 0.063746 0.796132
vn 0 -0.707107 0.707107
v -0.9 4 0.5
vt 0.061381 0.884413
vn 0 0 1
v 0.9 3.45 0.5
vt 0.057511 0.866689
vn 0 0 1
v -0.9 3.45 0.5
vt 0.061381 0.866689
vn 0 0 1
v 0.9 4 0.5
vt 0.057511 0.884413
vn 0 0 1
v 2 3.45 -0.5
vt 0.055145 0.804189
vn 0 -0.707107 -0.707107
v 2 3.2 -0.25
vt 0.055145 0.796132
vn 0 -0.707107 -0.707107
v 1.1 3.45 -0.5
vt 0.05708 0.804189
vn 0 -0.707107 -0.707107
v -2 3.45 0.5
vt 0.063746 0.804189
vn 0 -0.707107 0.707107
v -1.1 3.45 0.5
vt 0.061811 0.804189
vn 0 -0.707107 0.707107
v 2 3.45 0.5
vt 0.055145 0.804189
vn 0 -0.707107 0.707107
v 1.1 3.45 0.5
vt 0.05708 0.804189
vn 0 -0.707107 0.707107
v 2 4 -0.5
vt 0.055145 0.884413
vn 0 0 -1
v 1.1 3.45 -0.5
vt 0.05708 0.866689
vn 0 0 -1
v 2 3.45 -0.5
vt 0.055145 0.866689
vn 0 0 -1
v 1.1 4 -0.5
vt 0.05708 0.884413
vn 0 0 -1
v 0.9 4 -0.35
vt 0.057511 0.993788
vn 0 1 0
v -0.9 4 -0.5
vt 0.061381 0.993788
vn 0 1 0
v 0.9 4 -0.5
vt 0.057511 0.993788
vn 0 1 0
v -0.9 4 -0.35
vt 0.061381 0.993788
vn 0 1 0
v -1.1 4 -0.5
vt 0.061811 0.884413
vn 0 0 -1
v -2 3.45 -0.5
vt 0.063746 0.866689
vn 0 0 -1
v -1.1 3.45 -0.5
vt 0.061811 0.866689
vn 0 0 -1
v -2 4 -0.5
vt 0.063746 0.884413
vn 0 0 -1
v 0.9 4 -0.5
vt 0.057511 0.884413
vn 0 0 -1
v -0.9 3.45 -0.5
vt 0.061381 0.866689
vn 0 0 -1
v 0.9 3.45 -0.5
vt 0.057511 0.866689
vn 0 0 -1
v -0.9 4 -0.5
vt 0.061381 0.884413
vn 0 0 -1
v 1.1 4 0.5
vt 0.05708 0.884413
vn 0 0 1
v 2 3.45 0.5
vt 0.055145 0.866689
vn 0 0 1
v 1.1 3.45 0.5
vt 0.05708 0.866689
vn 0 0 1
v 2 4 0.5
vt 0.055145 0.884413
vn 0 0 1
v -2 3.45 -0.5
vt 0.063746 0.804189
vn 0 -0.707107 -0.707107
v -2 3.2 -0.25
vt 0.063746 0.796132
vn 0 -0.707107 -0.707107
v -1.1 3.45 -0.5
vt 0.061811 0.804189
vn 0 -0.707107 -0.707107
v -1 4 0.429289
vt 0.061596 0.88119
vn -0.577352 0 0.816496
v -0.9 3.45 0.5
vt 0.061381 0.866689
vn -0.577352 0 0.816496
v -1 3.379289 0.429289
vt 0.061596 0.86441
vn -0.577352 0 0.816496
v -0.9 4 0.5
vt 0.061381 0.884413
vn -0.577352 0 0.816496
v -1.1 3.45 0.5
vt 0.061811 0.866689
vn 0.577352 0 0.816496
v -1 4 0.429289
vt 0.061596 0.88119
vn 0.577352 0 0.816496
v -1 3.379289 0.429289
vt 0.061596 0.86441
vn 0.577352 0 0.816496
v -1.1 4 0.5
vt 0.061811 0.884413
vn 0.577352 0 0.816496
v 1 4 0.429289
vt 0.057295 0.88119
vn -0.577352 0 0.816496
v 1.1 3.45 0.5
vt 0.05708 0.866689
vn -0.577352 0 0.816496
v 1 3.379289 0.429289
vt 0.057295 0.86441
vn -0.577352 0 0.816496
v 1.1 4 0.5
vt 0.05708 0.884413
vn -0.577352 0 0.816496
v 0.9 3.45 0.5
vt 0.057511 0.866689
vn 0.577352 0 0.816496
v 1 4 0.429289
vt 0.057295 0.88119
vn 0.577352 0 0.816496
v 1 3.379289 0.429289
vt 0.057295 0.86441
vn 0.577352 0 0.816496
v 0.9 4 0.5
vt 0.057511 0.884413
vn 0.577352 0 0.816496
v 1 4 -0.429289
vt 0.057295 0.88119
vn 0.577352 0 -0.816496
v 0.9 3.45 -0.5
vt 0.057511 0.866689
vn 0.577352 0 -0.816496
v 1 3.379289 -0.429289
vt 0.057295 0.86441
vn 0.577352 0 -0.816496
v 0.9 4 -0.5
vt 0.057511 0.884413
vn 0.577352 0 -0.816496
v 1.1 3.45 -0.5
vt 0.05708 0.866689
vn -0.577352 0 -0.816496
v 1 4 -0.429289
vt 0.057295 0.88119
vn -0.577352 0 -0.816496
v 1 3.379289 -0.429289
vt 0.057295 0.86441
vn -0.577352 0 -0.816496
v 1.1 4 -0.5
vt 0.05708 0.884413
vn -0.577352 0 -0.816496
v -1 4 -0.429289
vt 0.061596 0.88119
vn 0.577352 0 -0.816496
v -1.1 3.45 -0.5
vt 0.061811 0.866689
vn 0.577352 0 -0.816496
v -1 3.379289 -0.429289
vt 0.061596 0.86441
vn 0.577352 0 -0.816496
v -1.1 4 -0.5
vt 0.061811 0.884413
vn 0.577352 0 -0.816496
v -0.9 3.45 -0.5
vt 0.061381 0.866689
vn -0.577352 0 -0.816496
v -1 4 -0.429289
vt 0.061596 0.88119
vn -0.577352 0 -0.816496
v -1 3.379289 -0.429289
vt 0.061596 0.86441
vn -0.577352 0 -0.816496
v -0.9 4 -0.5
vt 0.061381 0.884413
vn -0.577352 0 -0.816496
v 2 4 -0.5
vt 0.055145 0.993788
vn 0 1 0
v 1.1 4 -0.35
vt 0.05708 0.993788
vn 0 1 0
v 1.1 4 -0.5
vt 0.05708 0.993788
vn 0 1 0
v 2 3.45 0.5
vt 0.055145 0.804189
vn 1 0 0
v 2 3.2 -0.25
vt 0.055145 0.796132
vn 1 0 0
v 2 3.2 0.25
vt 0.055145 0.796132
vn 1 0 0
v 2 3.45 -0.5
vt 0.055145 0.804189
vn 1 0 0
v 2 4 0.5
vt 0.055145 0.884413
vn 1 0 0
v 2 3.45 -0.5
vt 0.055145 0.866689
vn 1 0 0
v 2 3.45 0.5
vt 0.055145 0.866689
vn 1 0 0
v 2 4 -0.5
vt 0.055145 0.884413
vn 1 0 0
v -2 3.45 -0.5
vt 0.063746 0.804189
vn -1 0 0
v -2 3.2 0.25
vt 0.063746 0.796132
vn -1 0 0
v -2 3.2 -0.25
vt 0.063746 0.796132
vn -1 0 0
v -2 3.45 0.5
vt 0.063746 0.804189
vn -1 0 0
v -2 4 -0.5
vt 0.063746 0.884413
vn -1 0 0
v -2 3.45 0.5
vt 0.063746 0.866689
vn -1 0 0
v -2 3.45 -0.5
vt 0.063746 0.866689
vn -1 0 0
v -2 4 0.5
vt 0.063746 0.884413
vn -1 0 0
v 2 4 0.5
vt 0.055145 0.993788
vn 0 1 0
v 1.1 4 0.5
vt 0.05708 0.993788
vn 0 1 0
v 1.1 4 0.35
vt 0.05708 0.993788
vn 0 1 0
v 2 4 0.5
vt 0.055145 0.993788
vn 0 1 0
v 1.1 4 0.35
vt 0.05708 0.993788
vn 0 1 0
v -0.9 4 -0.35
vt 0.061381 0.890614
vn -0.680205 0.680205 0.273205
v -1 3.9 0.35
vt 0.061596 0.828114
vn -0.680205 0.680205 -0.273205
v -1 3.9 -0.35
vt 0.061596 0.828114
vn -0.680205 0.680205 0.273205
v -0.9 4 0.35
vt 0.061381 0.890614
vn -0.680205 0.680205 -0.273205
v -1.1 4 0.35
vt 0.061811 0.890614
vn 0.680205 0.680205 -0.273205
v -1 3.9 -0.35
vt 0.061596 0.890614
vn 0.680205 0.680205 0.273205
v -1 3.9 0.35
vt 0.061596 0.890614
vn 0.680205 0.680205 -0.273205
v -1.1 4 -0.35
vt 0.061811 0.890614
vn 0.680205 0.680205 0.273205
v 1.1 4 -0.35
vt 0.05708 0.890614
vn -0.680205 0.680205 0.273205
v 1 3.9 0.35
vt 0.057295 0.828114
vn -0.680205 0.680205 -0.273205
v 1 3.9 -0.35
vt 0.057295 0.828114
vn -0.680205 0.680205 0.273205
v 1.1 4 0.35
vt 0.05708 0.890614
vn -0.680205 0.680205 -0.273205
v 0.9 4 0.35
vt 0.057511 0.890614
vn 0.680205 0.680205 -0.273205
v 1 3.9 -0.35
vt 0.057295 0.890614
vn 0.680205 0.680205 0.273205
v 1 3.9 0.35
vt 0.057295 0.890614
vn 0.680205 0.680205 -0.273205
v 0.9 4 -0.35
vt 0.057511 0.890614
vn 0.680205 0.680205 0.273205
v 0.9 4 0.5
vt 0.057511 0.993788
vn 0 1 0
v -0.9 4 0.35
vt 0.061381 0.993788
vn 0 1 0
v 0.9 4 0.35
vt 0.057511 0.993788
vn 0 1 0
v -0.9 4 0.5
vt 0.061381 0.993788
vn 0 1 0
v 0.9 4 0.35
vt 0.057511 0.993788
vn 0 1 0
v -0.9 4 0.35
vt 0.061381 0.993788
vn 0 1 0
v -1.1 4 0.5
vt 0.061811 0.993788
vn 0 1 0
v -2 4 0.5
vt 0.063746 0.993788
vn 0 1 0
v -1.1 4 0.35
vt 0.061811 0.993788
vn 0 1 0
v -1.1 4 -0.35
vt 0.061811 0.993788
vn 0 1 0
v -2 4 -0.5
vt 0.063746 0.993788
vn 0 1 0
v -1 4 -0.429289
vt 0.061596 0.993739
vn 0 1 0
v -1 4 -0.429289
vt 0.061596 0.993739
vn 0 1 0
v -1 4 -0.429289
vt 0.061596 0.890614
vn 0.52773 0.52773 0.665584
v -1 4 0.429289
vt 0.061596 0.993739
vn 0 1 0
v -1 4 0.429289
vt 0.061596 0.993739
vn 0 1 0
v -1 3.9 0.35
vt 0.061596 0.890614
vn -0.680205 0.680205 -0.273205
v -1 4 0.429289
vt 0.061596 0.890614
vn -0.52773 0.52773 -0.665584
v 1 4 0.429289
vt 0.057295 0.993739
vn 0 1 0
v 1 4 0.429289
vt 0.057295 0.993739
vn 0 1 0
v 1 3.9 0.35
vt 0.057295 0.890614
vn -0.680205 0.680205 -0.273205
v 1 4 0.429289
vt 0.057295 0.890614
vn -0.52773 0.52773 -0.665584
v 1 4 -0.429289
vt 0.057295 0.993739
vn 0 1 0
v 1 4 -0.429289
vt 0.057295 0.993739
vn 0 1 0
v 1 4 -0.429289
vt 0.057295 0.890614
vn 0.52773 0.52773 0.665584
v -1 4 0.429289
vt 0.061596 0.890614
vn 0.52773 0.52773 -0.665584
v -1 3.9 -0.35
vt 0.061596 0.890614
vn -0.680205 0.680205 0.273205
v -1 4 -0.429289
vt 0.061596 0.890614
vn -0.52773 0.52773 0.665584
v 1 4 0.429289
vt 0.057295 0.890614
vn 0.52773 0.52773 -0.665584
v 1 3.9 -0.35
vt 0.057295 0.890614
vn -0.680205 0.680205 0.273205
v 1 4 -0.429289
vt 0.057295 0.890614
vn -0.52773 0.52773 0.665584
f 1/1/1 3/3/3 2/2/2
f 1/1/1 2/2/2 4/4/4
f 5/5/5 7/7/7 6/6/6
f 5/5/5 6/6/6 8/8/8
f 9/9/9 11/11/11 10/10/10
f 9/9/9 10/10/10 12/12/12
f 13/13/13 15/15/15 14/14/14
f 13/13/13 14/14/14 16/16/16
f 17/17/17 19/19/19 18/18/18
f 17/17/17 18/18/18 20/20/20
f 21/21/21 23/23/23 22/22/22
f 21/21/21 22/22/22 24/24/24
f 25/25/25 27/27/27 26/26/26
f 25/25/25 26/26/26 28/28/28
f 29/29/29 31/31/31 30/30/30
f 29/29/29 30/30/30 32/32/32
f 33/33/33 35/35/35 34/34/34
f 33/33/33 34/34/34 36/36/36
f 37/37/37 39/39/39 38/38/38
f 37/37/37 38/38/38 40/40/40
f 41/41/41 43/43/43 42/42/42
f 24/24/24 41/41/41 42/42/42
f 44/44/44 46/46/46 45/45/45
f 44/44/44 45/45/45 47/47/47
f 48/48/48 50/50/50 49/49/49
f 28/28/28 48/48/48 49/49/49
f 51/51/51 53/53/53 52/52/52
f 51/51/51 52/52/52 54/54/54
f 55/55/55 57/57/57 56/56/56
f 55/55/55 56/56/56 58/58/58
f 59/59/59 61/61/61 60/60/60
f 59/59/59 60/60/60 62/62/62
f 63/63/63 65/65/65 64/64/64
f 63/63/63 64/64/64 66/66/66
f 67/67/67 69/69/69 68/68/68
f 67/67/67 68/68/68 70/70/70
f 71/71/71 73/73/73 72/72/72
f 71/71/71 72/72/72 74/74/74
f 75/75/75 77/77/77 76/76/76
f 75/75/75 76/76/76 78/78/78
f 79/79/79 81/81/81 80/80/80
f 79/79/79 80/80/80 82/82/82
f 83/83/83 85/85/85 84/84/84
f 83/83/83 84/84/84 86/86/86
f 87/87/87 21/21/21 24/24/24
f 87/87/87 24/24/24 42/42/42
f 87/87/87 89/89/89 88/88/88
f 87/87/87 88/88/88 21/21/21
f 90/90/90 25/25/25 28/28/28
f 90/90/90 28/28/28 49/49/49
f 90/90/90 92/92/92 91/91/91
f 90/90/90 91/91/91 25/25/25
f 93/93/93 95/95/95 94/94/94
f 93/93/93 94/94/94 96/96/96
f 97/97/97 99/99/99 98/98/98
f 97/97/97 98/98/98 100/100/100
f 101/101/101 103/103/103 102/102/102
f 101/101/101 102/102/102 104/104/104
f 105/105/105 107/107/107 106/106/106
f 105/105/105 106/106/106 108/108/108
f 109/109/109 111/111/111 110/110/110
f 109/109/109 110/110/110 112/112/112
f 113/113/113 115/115/115 114/114/114
f 113/113/113 114/114/114 116/116/116
f 117/117/117 119/119/119 118/118/118
f 117/117/117 118/118/118 120/120/120
f 121/121/121 123/123/123 122/122/122
f 124/124/124 121/121/121 122/122/122
f 125/125/125 127/127/127 126/126/126
f 125/125/125 126/126/126 128/128/128
f 129/129/129 131/131/131 130/130/130
f 132/132/132 134/134/134 133/133/133
f 135/135/135 137/137/137 136/136/136
f 138/138/138 140/140/140 139/139/139
f 141/141/141 143/143/143 142/142/142
f 144/144/144 146/146/146 145/145/145
f 147/147/147 149/149/149 148/148/148
f 150/150/150 147/147/147 148/148/148
f 151/151/151 153/153/153 152/152/152
f 151/151/151 152/152/152 154/154/154
f 155/155/155 157/157/157 156/156/156
f 158/158/158 160/160/160 159/159/159
f 161/161/161 163/163/163 162/162/162
f 164/164/164 166/166/166 165/165/165
f 167/167/167 164/164/164 165/165/165
f 167/167/167 165/165/165 168/168/168
f 169/169/169 171/171/171 170/170/170
f 172/172/172 169/169/169 170/170/170
f 173/173/173 175/175/175 174/174/174
f 165/165/165 166/166/166 176/176/176
f 177/177/177 165/165/165 176/176/176
f 178/178/178 180/180/180 179/179/179
f 178/178/178 179/179/179 181/181/181
f 182/182/182 183/183/183 171/171/171
f 184/184/184 182/182/182 171/171/171
f 185/185/185 187/187/187 186/186/186
f 188/188/188 190/190/190 189/189/189
f 191/191/191 193/193/193 192/192/192
f 191/191/191 192/192/192 194/194/194
f 195/195/195 197/197/197 196/196/196
f 198/198/198 195/195/195 196/196/196
f 199/199/199 201/201/201 200/200/200
f 202/202/202 204/204/204 203/203/203
f 205/205/205 207/207/207 206/206/206
f 208/208/208 210/210/210 209/209/209
f 211/211/211 208/208/208 209/209/209
f 212/212/212 214/214/214 213/213/213
f 212/212/212 213/213/213 215/215/215
f 216/216/216 218/218/218 217/217/217
f 219/219/219 216/216/216 217/217/217
f 220/220/220 222/222/222 221/221/221
f 223/223/223 225/225/225 224/224/224
f 223/223/223 224/224/224 226/226/226
f 227/227/227 229/229/229 228/228/228
f 227/227/227 228/228/228 230/230/230
f 231/231/231 233/233/233 232/232/232
f 234/234/234 231/231/231 232/232/232
f 235/235/235 237/237/237 236/236/236
f 235/235/235 236/236/236 238/238/238
f 215/215/215 227/227/227 239/239/239
f 240/240/240 242/242/242 241/241/241
f 240/240/240 241/241/241 243/243/243
f 244/244/244 246/246/246 245/245/245
f 244/244/244 245/245/245 247/247/247
f 248/248/248 250/250/250 249/249/249
f 248/248/248 249/249/249 251/251/251
f 252/252/252 254/254/254 253/253/253
f 255/255/255 252/252/252 253/253/253
f 256/256/256 258/258/258 257/257/257
f 256/256/256 257/257/257 259/259/259
f 260/260/260 262/262/262 261/261/261
f 263/263/263 265/265/265 264/264/264
f 266/266/266 268/268/268 267/267/267
f 269/269/269 271/271/271 270/270/270
f 272/272/272 274/274/274 273/273/273
f 272/272/272 273/273/273 275/275/275
f 276/276/276 278/278/278 277/277/277
f 276/276/276 277/277/277 279/279/279
f 280/280/280 282/282/282 281/281/281
f 280/280/280 281/281/281 283/283/283
f 284/284/284 286/286/286 285/285/285
f 287/287/287 284/284/284 285/285/285
f 288/288/288 290/290/290 289/289/289
f 288/288/288 289/289/289 291/291/291
f 292/292/292 294/294/294 293/293/293
f 295/295/295 297/297/297 296/296/296
f 298/298/298 300/300/300 299/299/299
f 301/301/301 303/303/303 302/302/302
f 304/304/304 306/306/306 305/305/305
f 304/304/304 305/305/305 307/307/307
f 308/308/308 310/310/310 309/309/309
f 308/308/308 309/309/309 311/311/311
f 312/312/312 314/314/314 313/313/313
f 312/312/312 313/313/313 315/315/315
f 316/316/316 318/318/318 317/317/317
f 319/319/319 316/316/316 317/317/317
f 320/320/320 322/322/322 321/321/321
f 320/320/320 321/321/321 323/323/323
f 324/324/324 326/326/326 325/325/325
f 327/327/327 329/329/329 328/328/328
f 330/330/330 332/332/332 331/331/331
f 333/333/333 335/335/335 334/334/334
f 336/336/336 338/338/338 337/337/337
f 336/336/336 337/337/337 339/339/339
f 340/340/340 342/342/342 341/341/341
f 340/340/340 341/341/341 343/343/343
f 344/344/344 346/346/346 345/345/345
f 344/344/344 345/345/345 347/347/347
f 348/348/348 350/350/350 349/349/349
f 351/351/351 348/348/348 349/349/349
f 352/352/352 354/354/354 353/353/353
f 355/355/355 352/352/352 353/353/353
f 356/356/356 358/358/358 357/357/357
f 359/359/359 361/361/361 360/360/360
f 362/362/362 364/364/364 363/363/363
f 365/365/365 367/367/367 366/366/366
f 368/368/368 370/370/370 369/369/369
f 368/368/368 369/369/369 371/371/371
f 372/372/372 374/374/374 373/373/373
f 372/372/372 373/373/373 375/375/375
f 376/376/376 378/378/378 377/377/377
f 376/376/376 377/377/377 379/379/379
f 380/380/380 382/382/382 381/381/381
f 383/383/383 380/380/380 381/381/381
f 384/384/384 386/386/386 385/385/385
f 384/384/384 385/385/385 387/387/387
f 388/388/388 390/390/390 389/389/389
f 391/391/391 393/393/393 392/392/392
f 394/394/394 396/396/396 395/395/395
f 397/397/397 399/399/399 398/398/398
f 400/400/400 402/402/402 401/401/401
f 400/400/400 401/401/401 403/403/403
f 404/404/404 406/406/406 405/405/405
f 404/404/404 405/405/405 407/407/407
f 408/408/408 410/410/410 409/409/409
f 408/408/408 409/409/409 411/411/411
f 412/412/412 414/414/414 413/413/413
f 415/415/415 412/412/412 413/413/413
f 416/416/416 418/418/418 417/417/417
f 416/416/416 417/417/417 419/419/419
f 420/420/420 422/422/422 421/421/421
f 423/423/423 425/425/425 424/424/424
f 426/426/426 428/428/428 427/427/427
f 429/429/429 431/431/431 430/430/430
f 432/432/432 434/434/434 433/433/433
f 432/432/432 433/433/433 435/435/435
f 436/436/436 438/438/438 437/437/437
f 436/436/436 437/437/437 439/439/439
f 440/440/440 442/442/442 441/441/441
f 440/440/440 441/441/441 443/443/443
f 444/444/444 446/446/446 445/445/445
f 447/447/447 444/444/444 445/445/445
f 448/448/448 450/450/450 449/449/449
f 448/448/448 449/449/449 451/451/451
f 452/452/452 454/454/454 453/453/453
f 455/455/455 457/457/457 456/456/456
f 458/458/458 460/460/460 459/459/459
f 461/461/461 463/463/463 462/462/462
f 464/464/464 466/466/466 465/465/465
f 464/464/464 465/465/465 467/467/467
f 468/468/468 470/470/470 469/469/469
f 468/468/468 469/469/469 471/471/471
f 472/472/472 474/474/474 473/473/473
f 472/472/472 473/473/473 475/475/475
f 476/476/476 478/478/478 477/477/477
f 479/479/479 476/476/476 477/477/477
f 480/480/480 482/482/482 481/481/481
f 480/480/480 481/481/481 483/483/483
f 484/484/484 486/486/486 485/485/485
f 487/487/487 489/489/489 488/488/488
f 490/490/490 492/492/492 491/491/491
f 493/493/493 495/495/495 494/494/494
f 496/496/496 498/498/498 497/497/497
f 496/496/496 497/497/497 499/499/499
f 500/500/500 502/502/502 501/501/501
f 500/500/500 501/501/501 503/503/503
f 504/504/504 506/506/506 505/505/505
f 504/504/504 505/505/505 507/507/507
f 508/508/508 510/510/510 509/509/509
f 511/511/511 508/508/508 509/509/509
f 512/512/512 514/514/514 513/513/513
f 512/512/512 513/513/513 515/515/515
f 516/516/516 518/518/518 517/517/517
f 519/519/519 521/521/521 520/520/520
f 522/522/522 524/524/524 523/523/523
f 525/525/525 527/527/527 526/526/526
f 528/528/528 530/530/530 529/529/529
f 531/531/531 533/533/533 532/532/532
f 534/534/534 536/536/536 535/535/535
f 537/537/537 534/534/534 535/535/535
f 538/538/538 540/540/540 539/539/539
f 538/538/538 539/539/539 541/541/541
f 542/542/542 544/544/544 543/543/543
f 545/545/545 547/547/547 546/546/546
f 548/548/548 550/550/550 549/549/549
f 551/551/551 553/553/553 552/552/552
f 554/554/554 551/551/551 552/552/552
f 554/554/554 552/552/552 555/555/555
f 556/556/556 558/558/558 557/557/557
f 559/559/559 556/556/556 557/557/557
f 560/560/560 562/562/562 561/561/561
f 552/552/552 553/553/553 563/563/563
f 564/564/564 552/552/552 563/563/563
f 565/565/565 567/567/567 566/566/566
f 565/565/565 566/566/566 568/568/568
f 569/569/569 571/571/571 570/570/570
f 572/572/572 569/569/569 570/570/570
f 573/573/573 575/575/575 574/574/574
f 576/576/576 578/578/578 577/577/577
f 579/579/579 581/581/581 580/580/580
f 579/579/579 580/580/580 582/582/582
f 583/583/583 585/585/585 584/584/584
f 586/586/586 583/583/583 584/584/584
f 587/587/587 589/589/589 588/588/588
f 590/590/590 592/592/592 591/591/591
f 593/593/593 595/595/595 594/594/594
f 596/596/596 598/598/598 597/597/597
f 596/596/596 597/597/597 599/599/599
f 600/600/600 602/602/602 601/601/601
f 600/600/600 601/601/601 603/603/603
f 604/604/604 606/606/606 605/605/605
f 607/607/607 604/604/604 605/605/605
f 608/608/608 610/610/610 609/609/609
f 611/611/611 613/613/613 612/612/612
f 611/611/611 612/612/612 614/614/614
f 615/615/615 617/617/617 616/616/616
f 615/615/615 616/616/616 618/618/618
f 619/619/619 621/621/621 620/620/620
f 622/622/622 619/619/619 620/620/620
f 623/623/623 625/625/625 624/624/624
f 623/623/623 624/624/624 626/626/626
f 603/603/603 615/615/615 627/627/627
f 628/628/628 630/630/630 629/629/629
f 628/628/628 629/629/629 631/631/631
f 632/632/632 634/634/634 633/633/633
f 632/632/632 633/633/633 635/635/635
f 636/636/636 638/638/638 637/637/637
f 639/639/639 636/636/636 637/637/637
f 640/640/640 642/642/642 641/641/641
f 643/643/643 640/640/640 641/641/641
f 644/644/644 646/646/646 645/645/645
f 644/644/644 645/645/645 647/647/647
f 648/648/648 650/650/650 649/649/649
f 651/651/651 653/653/653 652/652/652
f 654/654/654 656/656/656 655/655/655
f 657/657/657 659/659/659 658/658/658
f 660/660/660 662/662/662 661/661/661
f 660/660/660 661/661/661 663/663/663
f 664/664/664 666/666/666 665/665/665
f 664/664/664 665/665/665 667/667/667
f 668/668/668 670/670/670 669/669/669
f 668/668/668 669/669/669 671/671/671
f 672/672/672 674/674/674 673/673/673
f 675/675/675 672/672/672 673/673/673
f 676/676/676 678/678/678 677/677/677
f 679/679/679 676/676/676 677/677/677
f 680/680/680 682/682/682 681/681/681
f 683/683/683 685/685/685 684/684/684
f 686/686/686 688/688/688 687/687/687
f 689/689/689 691/691/691 690/690/690
f 692/692/692 694/694/694 693/693/693
f 692/692/692 693/693/693 695/695/695
f 696/696/696 698/698/698 697/697/697
f 696/696/696 697/697/697 699/699/699
f 700/700/700 702/702/702 701/701/701
f 700/700/700 701/701/701 703/703/703
f 704/704/704 706/706/706 705/705/705
f 707/707/707 704/704/704 705/705/705
f 708/708/708 710/710/710 709/709/709
f 711/711/711 708/708/708 709/709/709
f 712/712/712 714/714/714 713/713/713
f 715/715/715 717/717/717 716/716/716
f 718/718/718 720/720/720 719/719/719
f 721/721/721 723/723/723 722/722/722
f 724/724/724 726/726/726 725/725/725
f 724/724/724 725/725/725 727/727/727
f 728/728/728 730/730/730 729/729/729
f 728/728/728 729/729/729 731/731/731
f 732/732/732 734/734/734 733/733/733
f 735/735/735 732/732/732 733/733/733
f 736/736/736 738/738/738 737/737/737
f 739/739/739 736/736/736 737/737/737
f 740/740/740 742/742/742 741/741/741
f 743/743/743 740/740/740 741/741/741
f 744/744/744 746/746/746 745/745/745
f 747/747/747 749/749/749 748/748/748
f 750/750/750 752/752/752 751/751/751
f 753/753/753 755/755/755 754/754/754
f 756/756/756 758/758/758 757/757/757
f 756/756/756 757/757/757 759/759/759
f 760/760/760 762/762/762 761/761/761
f 760/760/760 761/761/761 763/763/763
f 764/764/764 766/766/766 765/765/765
f 767/767/767 764/764/764 765/765/765
f 768/768/768 770/770/770 769/769/769
f 771/771/771 768/768/768 769/769/769
f 772/772/772 774/774/774 773/773/773
f 775/775/775 772/772/772 773/773/773
f 776/776/776 778/778/778 777/777/777
f 779/779/779 781/781/781 780/780/780
f 782/782/782 784/784/784 783/783/783
f 785/785/785 787/787/787 786/786/786
f 788/788/788 790/790/790 789/789/789
f 788/788/788 789/789/789 791/791/791
f 792/792/792 794/794/794 793/793/793
f 792/792/792 793/793/793 795/795/795
f 796/796/796 798/798/798 797/797/797
f 799/799/799 796/796/796 797/797/797
f 800/800/800 802/802/802 801/801/801
f 803/803/803 800/800/800 801/801/801
f 804/804/804 806/806/806 805/805/805
f 804/804/804 805/805/805 807/807/807
f 808/808/808 810/810/810 809/809/809
f 811/811/811 813/813/813 812/812/812
f 814/814/814 816/816/816 815/815/815
f 817/817/817 819/819/819 818/818/818
f 820/820/820 822/822/822 821/821/821
f 820/820/820 821/821/821 823/823/823
f 824/824/824 826/826/826 825/825/825
f 824/824/824 825/825/825 827/827/827
f 828/828/828 830/830/830 829/829/829
f 828/828/828 829/829/829 831/831/831
f 832/832/832 834/834/834 833/833/833
f 835/835/835 832/832/832 833/833/833
f 836/836/836 838/838/838 837/837/837
f 836/836/836 837/837/837 839/839/839
f 840/840/840 842/842/842 841/841/841
f 843/843/843 845/845/845 844/844/844
f 846/846/846 848/848/848 847/847/847
f 849/849/849 851/851/851 850/850/850
f 852/852/852 854/854/854 853/853/853
f 852/852/852 853/853/853 855/855/855
f 856/856/856 858/858/858 857/857/857
f 856/856/856 857/857/857 859/859/859
f 860/860/860 862/862/862 861/861/861
f 860/860/860 861/861/861 863/863/863
f 864/864/864 866/866/866 865/865/865
f 867/867/867 864/864/864 865/865/865
f 868/868/868 870/870/870 869/869/869
f 871/871/871 868/868/868 869/869/869
f 872/872/872 874/874/874 873/873/873
f 875/875/875 877/877/877 876/876/876
f 878/878/878 880/880/880 879/879/879
f 881/881/881 883/883/883 882/882/882
f 884/884/884 886/886/886 885/885/885
f 884/884/884 885/885/885 887/887/887
f 888/888/888 890/890/890 889/889/889
f 891/891/891 893/893/893 892/892/892
f 891/891/891 892/892/892 894/894/894
f 895/895/895 897/897/897 896/896/896
f 895/895/895 896/896/896 898/898/898
f 897/897/897 900/900/900 899/899/899
f 897/897/897 899/899/899 896/896/896
f 901/901/901 903/903/903 902/902/902
f 901/901/901 902/902/902 904/904/904
f 905/905/905 906/906/906 893/893/893
f 905/905/905 893/893/893 907/907/907
f 908/908/908 900/900/900 897/897/897
f 908/908/908 897/897/897 909/909/909
f 896/896/896 899/899/899 910/910/910
f 911/911/911 896/896/896 910/910/910
f 912/912/912 914/914/914 913/913/913
f 912/912/912 913/913/913 915/915/915
f 916/916/916 918/918/918 917/917/917
f 916/916/916 917/917/917 919/919/919
f 920/920/920 922/922/922 921/921/921
f 920/920/920 921/921/921 923/923/923
f 924/924/924 926/926/926 925/925/925
f 924/924/924 925/925/925 927/927/927
f 928/928/928 930/930/930 929/929/929
f 928/928/928 929/929/929 931/931/931
f 892/892/892 933/933/933 932/932/932
f 934/934/934 892/892/892 932/932/932
f 935/935/935 937/937/937 936/936/936
f 935/935/935 936/936/936 938/938/938
f 939/939/939 941/941/941 940/940/940
f 942/942/942 939/939/939 940/940/940
f 943/943/943 945/945/945 944/944/944
f 943/943/943 944/944/944 946/946/946
f 947/947/947 949/949/949 948/948/948
f 950/950/950 947/947/947 948/948/948
f 951/951/951 953/953/953 952/952/952
f 951/951/951 952/952/952 954/954/954
f 955/955/955 957/957/957 956/956/956
f 958/958/958 955/955/955 956/956/956
f 959/959/959 961/961/961 960/960/960
f 959/959/959 960/960/960 962/962/962
f 963/963/963 965/965/965 964/964/964
f 966/966/966 963/963/963 964/964/964
f 967/967/967 969/969/969 968/968/968
f 893/893/893 906/906/906 933/933/933
f 893/893/893 933/933/933 892/892/892
f 970/970/970 972/972/972 971/971/971
f 970/970/970 971/971/971 973/973/973
f 974/974/974 976/976/976 975/975/975
f 974/974/974 975/975/975 977/977/977
f 978/978/978 980/980/980 979/979/979
f 978/978/978 979/979/979 981/981/981
f 982/982/982 984/984/984 983/983/983
f 982/982/982 983/983/983 985/985/985
f 986/986/986 988/988/988 987/987/987
f 989/989/989 967/967/967 968/968/968
f 989/989/989 968/968/968 990/990/990
f 991/991/991 993/993/993 992/992/992
f 991/991/991 992/992/992 994/994/994
f 995/995/995 997/997/997 996/996/996
f 995/995/995 996/996/996 998/998/998
f 999/999/999 1001/1001/1001 1000/1000/1000
f 999/999/999 1000/1000/1000 1002/1002/1002
f 1003/1003/1003 1005/1005/1005 1004/1004/1004
f 1003/1003/1003 1004/1004/1004 1006/1006/1006
f 1007/1007/1007 1009/1009/1009 1008/1008/1008
f 1007/1007/1007 1008/1008/1008 1010/1010/1010
f 1011/1011/1011 916/916/916 919/919/919
f 1011/1011/1011 919/919/919 1012/1012/1012
f 1013/1013/1013 1015/1015/1015 1014/1014/1014
f 1016/1016/1016 1017/1017/1017 1014/1014/1014
f 1015/1015/1015 1016/1016/1016 1014/1014/1014
f 1018/1018/1018 919/919/919 917/917/917
f 890/890/890 888/888/888 1019/1019/1019
f 996/996/996 1020/1020/1020 998/998/998
f 1010/1010/1010 1008/1008/1008 1021/1021/1021
f 1022/1022/1022 1015/1015/1015 1013/1013/1013
f 1023/1023/1023 1024/1024/1024 994/994/994
f 1025/1025/1025 1009/1009/1009 1007/1007/1007
f 987/987/987 988/988/988 1026/1026/1026
f 1027/1027/1027 1028/1028/1028 1002/1002/1002
f 1029/1029/1029 968/968/968 969/969/969
f 918/918/918 916/916/916 1030/1030/1030
f 1004/1004/1004 1031/1031/1031 1006/1006/1006
f 995/995/995 1032/1032/1032 997/997/997
f 991/991/991 1034/1034/1034 1033/1033/1033
f 1003/1003/1003 1035/1035/1035 1005/1005/1005
f 999/999/999 1037/1037/1037 1036/1036/1036
